/* XPM */
static char *result[] = {
/* columns rows colors chars-per-pixel */
"64 64 48 1 ",
"  c #26211D",
". c #28231F",
"X c #272521",
"o c #2B2521",
"O c #2E2824",
"+ c #2E2E2A",
"@ c #332B26",
"# c #372629",
"$ c #3F272B",
"% c #352D29",
"& c #3B2A2B",
"* c #2F302C",
"= c #34322D",
"- c #3B322C",
"; c #3C2B30",
": c #2C3432",
"> c #2F3836",
", c #2C3A39",
"< c #303937",
"1 c #43272F",
"2 c #41282F",
"3 c #442632",
"4 c #412931",
"5 c #552A43",
"6 c #5D2F4C",
"7 c #5F304E",
"8 c #672F51",
"9 c #682E51",
"0 c #673052",
"q c #385254",
"w c #365759",
"e c #395658",
"r c #36595C",
"t c #3C5F62",
"y c #3D6365",
"u c #3E676A",
"i c #3E696D",
"p c #3E6C71",
"a c #40696F",
"s c #426A71",
"d c #4A6875",
"f c #4C6B7A",
"g c #52697C",
"h c #893A74",
"j c #8F3A79",
"k c #983C7F",
"l c #9C3C82",
"z c None",
/* pixels */
"----------------------------------------------------------------",
"-----------------2-----------------2-----2----------------------",
"4----------%@@@@%@@%@@@@@@@@%@@@@@@@@@@@@@@%@@@@@O@@@-----------",
"----------%%@-@-%%%%-@-@=@@-%%%=-%%%@-%-%%%%--@%--@-@@----------",
"---------@%----%&=%%=-=%--=-%-%-%--=---%=%%%-@--@--=-@@---------",
"--------@@-%@@%@@@=@@%@%@@%=%@=@%%@=@@@@%@%%@%%@@@@-%%@@--------",
"-------@@-%%..           ... ...  ....             o%%-@--------",
"--4---==--=o.z          zzzzzzzzzzzzzzzz          z.o%%=%%------",
"----2@@-@@..z........oXoXzzzzzzzzzzzzzzXX.Xo.......z o=@-@@-----",
"-----O%%-..zOOO+Oo@OOOOOOzzzzzzzzzzzzzzO+OOoO.@O@.+.z .=%-O-----",
"-----O%-o z.OO@@O@@O@OO++zzzzzzzzzzzzzz++@@OO@@O@@OOOzXO=@O-----",
"2----O%%*:++@O@@@@@@@@@%+zzzzzzzzzzzzzz*%O@%@@@@@@@@++:*-@O-----",
"-----O%%>,*@@@@@O%%%@%+%+zzzzzzzzzzzzzz*=O@@%O%@@@@%@+,<%%O-----",
"-----O%-qr*@@@@=%%%O@@%*+zzzzzzzzzzzzzz*=%%@%%@@@%@@@+wq-%O-----",
"-----O==yi@@=@=@#%@%@@%=:zzzzzzzzzzzzzz*=%@@@@%%@%%%@*uu%=@-----",
"-----O%=yp==@@@@@%@@@%%=%zzzzzzzzzzzzzz*:%%%%@@@@@%@=*iu-%@-----",
"-----@-=yp*@@=%%%@&@@%%-*zzzzzzzzzzzzzz*-@@-@@@-%%%%%*iu=-O-----",
"------%=yp==@@@@%%@@%@%=*zzzzzzzzzzzzzz*=@@@@@@@@%@%=*pu=-O-----",
"-----O-=yp===@@%@@@@@%%=*zzzzzzzzzzzzzz*=%@@@@@@%@%%=*pi=@O-----",
"-----O-=yp*@=@@@@%@%%%%=*zzzzzzzzzzzzzz*=%-@&@@@@@%%==iu=-O-----",
"-----O@-yp==%%%@%%%@%%%=*zzzzzzzzzzzzzz*=%%%@@@@@%%%==pi=-O-----",
"-----O=-yp==%@@%@@@@@%@=*zzzzzzzzzzzzzz===%@@@-@@%@%=*ii=%O-----",
"-----O@-tp=%%@%@@@@%@%%=*zzzzzzzzzzzzzz+=%%@@-@@%@%%=*pi=%+-----",
"-----O==aa=%%@&@@%@%@%%==zzzzzzzzzzzzzz+=%%@@$@@@%%%%=ii=-------",
"-----O@=yp==%&@@%@-@@-@-@zzzzzzzzzzzzzz*-%%%%@@@&%%%==ia=%O-----",
"-----O--yp=%%%%%&@@@@&%%=zzzzzzzzzzzzzz=%%%%@&@&%%%@==iu=-O-----",
"-----O-=ys=%@@@&@@&@&@%%=zzzzzzzzzzzzzz=-%&@&@@@@&&=@=ia-=O-----",
"-----O-=ya=%&&&&2$@2@&&-%zzzzzzzzzzzzzz+%&&@&&&&$@@&&%au==@-----",
"------==ys--&&&&$$$&$-$-%zzzzzzzzzzzzzz@2&&&&&2&$%&&-&aa=-@-----",
"--------ys-2&&21$$21$$$2#zzzzzzzzzzzzzz#21&222&2$$&2--aa=-O-2---",
"-----O-=ys709999999999993zzzzzzzzzzzzzz399998899999907si=-@-----",
"-----@%=yfhlllllkkllkklk5zzzzzzzzzzzzzz5kkkkkklllkkkljgi=@=-----",
"-4---O==ys;2111111111224#zzzzzzzzzzzzzz#222111111112;;sa=&O-----",
"-----O--ys=-&2&22&$&&&&&#zzzzzzzzzzzzzz@&2&&&&&$$@&&&=pi=%o-----",
"-4---@%=ys-&@&&&&&&&&&%&=zzzzzzzzzzzzzz@&%@&@&@$@&@&==ii--O-----",
"-----.=-yp@@@@@@#O@@#@&%%zzzzzzzzzzzzzz+%%&@@#@@@@@@%=ii==O-----",
"-----@%=yp==%%@%@@&@@@%=+zzzzzzzzzzzzzz+=%%@@&@@@&%%@=ii==O----4",
"----&@=-yp=%%%@%%@@&%%%=*zzzzzzzzzzzzzz+=%%%@@@&@@%%==ii-=O-----",
"-----O%-yp=%%%%@%@@@%%%=*zzzzzzzzzzzzzz+-%@-@@@%@%%%@=iu==O-----",
"----=@==yp:=%@%%@%%%%#%=+zzzzzzzzzzzzzz+%%@@&@@%@&@%==iu-%=-----",
"-----=-=yp===%@%@%@&@@%-*zzzzzzzzzzzzzz+=%%@%@@@@=@-**ii==@-----",
"-----==-yp=*%@@%@@@@@%%-*zzzzzzzzzzzzzz+=@%#%@%@@@@@=*ii=%.-----",
"-----@%=yp+=%@@@%@&@%%@=*zzzzzzzzzzzzzz+=O%%%%@@@%@==*ii-%.-----",
"-----.=-yp*=%%%@@@@@@@==*zzzzzzzzzzzzzz+=%%%@%@@@@@@=*ii=%@-----",
"-----@%-yp*=%%@%@%%=%%@=*zzzzzzzzzzzzzz+=%%@%@&@%%%%=*iu-%O----4",
"-----.%=yp*=%@@@@@@@%@@=*zzzzzzzzzzzzzz+=%@%@@%%@@@%=*ii-@O-----",
"-----O-=yp=@@@%@%@@@@===*zzzzzzzzzzzzzz+=%%@@%@@@@@%=*iu==+-----",
"-----O%=yp=%%%@@%@@@@@@=*zzzzzzzzzzzzzz+=+%@@@@%%%@%**iu-@@-----",
"-----O--ti==@@@@@@%%@%@=*zzzzzzzzzzzzzz*==-@@@@@@@@%=*ii=@O-----",
"-----O@=yi*@@@@=@@@@@@@=*zzzzzzzzzzzzzz==@@@@@-@@%@%@*iu==O-----",
"---2-O@-yi*=@@@@@=@@@=@=*zzzzzzzzzzzzzz:=@@@@@@@%@%@=+iu@=O-----",
"-----O@=qw*@=@@@@@@@@@@=*zzzzzzzzzzzzzz*=@@@@@@@@@%@@+ww-@O-----",
"------%%::O+@@@@%@@@+@@@*zzzzzzzzzzzzzz:=@@@@@@@@@@@O+,:-@O-----",
"-----O%-Ooo+OO@@.@@@@@@=*zzzzzzzzzzzzzz<=O@@@@@@@@@OOooO-@O-----",
"-----O@%=..oOOOO@@@%O@%=OzzzzzzzzzzzzzzO@OO@O@@O@OOOo o%@%@-----",
"-----@+%-@oozOOO@@..+..@+zzzzzzzzzzzzzzOOOOOOOOOOOOOoo@%-O@---2-",
"------@@@-%..zoO.Oo.O...ozzzzzzzzzzzzzzOooO.Ooooooo.o@@-OO------",
"------%O+@%%o.............z ....Xo...z.... .........-@-OO-------",
"--------O@%%@O@@@@@@@@@@=%@@@@@@=+@@@@+@O@@@@@@O@@O-@-O@--------",
"---------O@%-----%%&----==--=-%---@--=-=--@--@--=--@-oO---------",
"----------@OOO@Oo@@@O@@OO@O@O@@O.@.@.@.@@O@OOOO@O@O@@@----------",
"-----------%O@O@@@@o@O@O@O@O@@O@%@%@%@@@O@O@@@@@@OO@------------",
"----------------------------------------------------------------",
"----------------------------------------------------------------"
};
