/* XPM */
static char *result[] = {
/* columns rows colors chars-per-pixel */
"64 64 59 1 ",
"  c #1A1612",
". c #1E1914",
"X c #1C1E1A",
"o c #241C17",
"O c #261E18",
"+ c #291F1A",
"@ c #17221E",
"# c #1E221D",
"$ c #25221D",
"% c #2D231E",
"& c #30251F",
"* c #192521",
"= c #242621",
"- c #2C2621",
"; c #252823",
": c #2A2824",
"> c #322621",
", c #3A2424",
"< c #352A23",
"1 c #392D26",
"2 c #3A2228",
"3 c #412227",
"4 c #422128",
"5 c #6E294F",
"6 c #722953",
"7 c #7A2957",
"8 c #742858",
"9 c #7A2A58",
"0 c #354A44",
"q c #394A45",
"w c #374F49",
"e c #3F544F",
"r c #3C5551",
"t c #3B5853",
"y c #325C58",
"u c #3F5F5A",
"i c #37635F",
"p c #3C6966",
"a c #3E736F",
"s c #3E7471",
"d c #405550",
"f c #405F5A",
"g c #42716F",
"h c #4C6E70",
"j c #427471",
"k c #4B7574",
"l c #457976",
"z c #4A7977",
"x c #527375",
"c c #922F6E",
"v c #952F70",
"b c #A32E7C",
"n c #A7307D",
"m c #A8307E",
"M c #6B6E86",
"N c #6F7189",
"B c #846D96",
"V c #897199",
"C c None",
/* pixels */
"1111111111111111111111111111111111111111111111111111111111131111",
"1111111111111111111111111111111111111111111111111111111111111111",
"111111111111<<11<<<<<<<<1&1&<<<<1<<<<<1<<<<<<<<<<<1<<11111111111",
"111111111111111111,111,<1111<,1111,<<111<,11111,1<11<<1111111111",
"111131111<<&:%%&%%&%&%&&&&&&%&%%>%%%&%&%%%&%>%%%&&%%&<&111111113",
"11111111<<&&$$OOOOOOOOOOo$OOOOOOOOOOOOOOOOOOOOOOo$O$&&<&11111111",
"1111111<>&%OoOOOOOOOOOOOoOOOOOOOOOOOOOOOOOOOOOOOoOOo$%&<11111111",
"11111111&%Oo$%CCCCCCCCCCCCCCCCCCCCCCCCCCCCCCCCCCCC%OOO%&11111111",
"11111&&&&%o$%C        CCCCCCCCCCCCCCCCCCCC.       C%$OO%11&11111",
"11111&&%$o$%C..ooo.oooCCCCCCCCCCCCCCCCCCCCoooo.o  #C%OoO;:&11111",
"11111%%%o$OC.ooOOO%$$$CCCCCCCCCCCCCCCCCCCC$+OO%$$$..C%%o%%&<1111",
"1111<%%%$%@.XO$%%%%%%%CCCCCCCCCCCCCCCCCCCC>%%%%%%$OXX@$O$%%11111",
"11111%&%$0i#$$%%%%%%%>CCCCCCCCCCCCCCCCCCCC>%%&%%%%$o#ywOO&-<1111",
"1111&&&%Otl$$%%%&-:%%>CCCCCCCCCCCCCCCCCCCC>%&&-%%%%$#auO$&&<1111",
"1111&&%%Odl*$-%-&%&&&>CCCCCCCCCCCCCCCCCCCC>>&&%&%%%%=auo$<-13111",
"3111&%&%Odl;=%-%%&&&->CCCCCCCCCCCCCCCCCCCC>-&&-&%%%$=atOO&<11111",
"11111-&%odl$%%%%;&;&&<CCCCCCCCCCCCCCCCCCCC>&&&>%%&&%;sto$%&&1111",
"11111&-%$el$;%&&&&%&&&CCCCCCCCCCCCCCCCCCCC<-&>%&%&%$;st$%%%11111",
"1111<%-%$el;;;&&&&&&&<CCCCCCCCCCCCCCCCCCCC<&&&>%&&;-#sto$&%11113",
"1111<%%%%rl;%%&&&&&&&<CCCCCCCCCCCCCCCCCCCC>&&&%>&&&;%aroO%%&1111",
"1111<%%%Odl;:%%&%&&&&&CCCCCCCCCCCCCCCCCCCC>>&%>%&&&;;jro$%-<1311",
"1111<%%%Odz$%%:&&&%%&:CCCCCCCCCCCCCCCCCCCC<>&>%&&&&-;jeoO--<1111",
"1111&%%%$dl;=&%&&%&&&<CCCCCCCCCCCCCCCCCCCC>-&%%&&%;;%sto%%<<1111",
"1111<%%%$rl;:%>%&&%&&1CCCCCCCCCCCCCCCCCCCC>&%>>&&%&$;st$O&<11111",
"1111<%&OOel;:%%&&&&&&>CCCCCCCCCCCCCCCCCCCC<>%>%&&%%:$aro%&%<1111",
"1111<&%%Oel;->-&:&&:&<CCCCCCCCCCCCCCCCCCCC<&&-&&&&&&:groO&%<1111",
"1111<O&%%dz--&&&<&&&&,CCCCCCCCCCCCCCCCCCCC,&>>&&:&&::jeo$&%<1111",
"1111<%&%Odl:-&<,&&&<<,CCCCCCCCCCCCCCCCCCCC<&>&&>&&&:%jeoO&%<1111",
"11111<&OOez&&&,&<<&&,,CCCCCCCCCCCCCCCCCCCC1>,>>><>>>&krO%&%<1111",
"1111<&&%%el%&1&1,&&+,,CCCCCCCCCCCCCCCCCCCC,>,>,<><<>1xt$O%%<1111",
"1111<%&%Oexc9999c77cc5CCCCCCCCCCCCCCCCCCCC69779999996xeOO%%11111",
"1111<%&OOeVmnnmmbbbbvcCCCCCCCCCCCCCCCCCCCCcbmbnnnnnbvBtOO<&11111",
"1111<%&%odx24444444444CCCCCCCCCCCCCCCCCCCC22334444332hro+>%<1111",
"1111<+&O+rz2<,,,,,,,,<CCCCCCCCCCCCCCCCCCCC,,&,&,,,,>:hroO%%<1111",
"1111<%%%+dz:>>&&&,,&&,CCCCCCCCCCCCCCCCCCCC<>&&&&>->>:kro+&%<1111",
"111,<%&%odk=++%%++OO&<CCCCCCCCCCCCCCCCCCCC<%&+++++++$gro$&%<1111",
"1111<%&%+rk:-&&-&&&>>>CCCCCCCCCCCCCCCCCCCC<>-&&&>%->-jtoO&+<1111",
"1111<%%++el-:&-&&&&&&<CCCCCCCCCCCCCCCCCCCC>&&&&&&---;jtoO&%<1111",
"1111<O%%Odz;:&&&%&&&&>CCCCCCCCCCCCCCCCCCCC>&&&&&&&---sto+&&<1111",
"1111<%%%Orz;%:%&&&&&&>CCCCCCCCCCCCCCCCCCCC>&&&%%%-%-;jroO&$<1111",
"11111$%%Odz:%-%-&&&%>>CCCCCCCCCCCCCCCCCCCC<&&&&:-%%-=stoO>%<1111",
"11111%%%$dl=:%&&>%&%%>CCCCCCCCCCCCCCCCCCCC>&&&&%%-%-=stoO%$<1111",
"1111&%%%Odl;%%%-%&&>>>CCCCCCCCCCCCCCCCCCCC>&&&&--%--=jr.%%%<11<1",
"1111&$%$Orl=:%%%%-&%%>CCCCCCCCCCCCCCCCCCCC:&&-%%%&$-=jroO%%<1<11",
"1111&%&%Odl=---%>%%&>>CCCCCCCCCCCCCCCCCCCC>&&%&%&%--=aeo+%->1111",
"11111%%$Oel=%%%-%&-%%>CCCCCCCCCCCCCCCCCCCC>%&-%&%%$-=sro+-%<2111",
"1111&+%%Oel;:%%%%%%&->CCCCCCCCCCCCCCCCCCCC>&&%%%%%%-=sroO%-><1<1",
"1113&%%+otl;$%%%%&%&%>CCCCCCCCCCCCCCCCCCCC<%%&&%-%%$=sroO%-<111<",
"1111&%%%odl;$&&$%%&%&&CCCCCCCCCCCCCCCCCCCC&%&%%%%%$-;atoo%$<1111",
"1111&%%%odl$;&$&%%%%&&CCCCCCCCCCCCCCCCCCCC&&%%%%%%$%#seo$%%<1111",
"1111&%%Oodk$$%&$%%%%%&CCCCCCCCCCCCCCCCCCCC&%%&%%%%$-$seoO%%><111",
"1111&%%%oqi$&$%%%%%%%&CCCCCCCCCCCCCCCCCCCC&%%%%$%%%$#i0o%%%>1111",
"111<<$%%%$#$$%%%%%%%&&CCCCCCCCCCCCCCCCCCCC<&%%%%$%$%o@$oO%+11<11",
"1111<$%%$%  $$$$%%O%%&CCCCCCCCCCCCCCCCCCCC&%%%%%%O$O .%O+-%>11<1",
"11111%%%%$$. o$$%O%%%%CCCCCCCCCCCCCCCCCCCC%%%%%%O+O .O%&>%+11111",
"11<11&$$%%O%. ooOOOO$%CCCCCCCCCCCCCCCCCCCCOOOOO$OO .$$%%%O><111<",
"<11<11&$%%&O%o ...o...CCCCCCCCCCCCCCCCCCCC$.....  o$$%%%+<11<111",
"1111111&o%%%O%%%&&%%&%&&>&>&>&>&&<&&>&>>&&&&%%&&&%%%&%%%>1<11<11",
"1111<1<<&%%%&&&&1&&&&&1&<><<<<<<<<<<<<<>1&&&&&&1&&&&%%$&11111<11",
"11<11111&&%%&&&&&&&&&&&&&%%&&%&&&%%&%&%&&&&%&&&&&&&%%$&11<1<<11<",
"<1<1111<<1&$%%%%%%$%%%%%%$%%O%$O%O%O%%%O%%%%%%%%%%%%%&1<<<1<111,",
"1111<1<1111<&&&&&&&&%&&&&&&&>&&<>>>-&&&&&&%&%%%%&&&&&<1111111<11",
"<11<1111111113&11<1<<<<1<1,<<11<1111<111&11&1&<1<1&3111<1<1111<1",
"11111<1<11111&11<1<1<<<1<<1<<<<11<>11<1111111111<111<111111<11<1"
};
