/* XPM */
static char *result[] = {
/* columns rows colors chars-per-pixel */
"64 64 50 1 ",
"  c #060502",
". c #080704",
"X c #0A0805",
"o c #0D0D09",
"O c #120F0A",
"+ c #16120C",
"@ c #19140E",
"# c #1B1611",
"$ c #1C1B14",
"% c #251D16",
"& c #291F17",
"* c #271F18",
"= c #291F18",
"- c #252017",
"; c #262118",
": c #2C231B",
"> c #31241C",
", c #1F3C35",
"< c #2E2620",
"1 c #4C1B2E",
"2 c #4D1C30",
"3 c #5F1635",
"4 c #5C1935",
"5 c #5C1D39",
"6 c #611C3B",
"7 c #5B213B",
"8 c #1D433C",
"9 c #154B46",
"0 c #184B45",
"q c #1F564F",
"w c #1F5751",
"e c #115954",
"r c #1F5952",
"t c #24554F",
"y c #245751",
"u c #215A53",
"i c #15605A",
"p c #424E5D",
"a c #41505F",
"s c #AD2391",
"d c #B22295",
"f c #944DAB",
"g c #F21DC9",
"h c #E424C5",
"j c #EE25CF",
"k c #18A195",
"l c #1BA49E",
"z c #1BA4A0",
"x c #21A7A2",
"c c #21A8A3",
/* pixels */
">><>>>>>><>>><<><>>>><>>>>><:<>><>>>><>><>><>>>>>><>>>>>>><<<><>",
">:>>>>:><>>>>::::::::::::::>:::::>::::>>:::::>:::>>:>>>>>>>>>>>>",
">>>>>>><>>>:-:--****:%*%*%--***=:%;%*%;-*%**=%*%=%;:->:>>>>>>>><",
">>>>>:<>>>;-----***=*****;%:***;%;****;;***=:***=;;%:->>>>>><<>>",
">>>><:>>>&--::>>:<>:>:::::::>:::>:::::>::<:>:><::>::%-:><>>>>>>>",
"<><>>>>>&&->:::::::::<:::::::::::::::::::=::<::::::::%-->>>>>>>>",
">><>::>;&-;>--$$#+++@@#+#@+@#@+@#++@@+##+#@@#+@+@@*;::%-;>>><>:>",
"<>:>>>;;%:;--o.oXXXXXXXXXXXXXXXXXXXXXXXXXXXXXXXXX O%=::%;;<:>:>>",
">>:>>&%%&:-&OX@$#$#$%##$%#%$%$$@#$#%$#$$%##%#%##$@XO--::--->>>>>",
">>>::%%::--Oo#%-%%=*%****%%*%%=%%****%=*%%**%%*%-$@X+--::--:>:>>",
">>>>:%%:--+o$%--%::===:**=*;*=:%$:==%:*:;*==-:%:---@o+--:--:::>>",
"::>::%%-&@i8%-:-:=:::=:::::::::%%:::::::::::-::%---$8e$-:--->:>:",
":><>:%%:;$cu%;:;:::-:::;:=:::::%%::::=::::::::::::;%uc$-:--:>>>>",
":>>::%%:-$cu%;:::-::=::::::::::%%::::::::::::::::;;-uk$-:--:>>>>",
">;>>:-%:--zi;::::::-:::::::::::%%::::::::::::::::>:-uk$-:--:>>>:",
"><>>;%%:-$zr;>:;:::::::::::::::%%::::::::::::::;:;>-ik$-:--:::<:",
">>>>:----$cu;:;:::>:::::::::::>%%><::>:>:::>:::::>:;rl$->--::>>>",
":<:::-->-$cu;::::::::::::>:>:::%%>=::::=>:::<:::;>:;rl$-:%%>>:>>",
">::>-%---$cr;:::::<:>:>:::>:::>%%::::::<::::::::::<;rl$-:$--:>>>",
":>>>:%-:-$cr;;:::::::::::::::::**>::>::>::::>::>::;;il$;:-%:::>:",
">>:::%%&-%xr;;:::::::::>::>:::>%%:::>:::::<=<=>=::<;il$;:$-::>:>",
">>:>:%%:-$xr;<:::>:::::::::::::%%:>:::::>::>:::>:<<;rl$->%->>::<",
">:::&%%:%$ci;<::::>:::::>::::::=*:::::::::::::::::<;ul$;:%--<<>>",
">>>>:%%:--ci;;::::::::>::::>:::*%>::>=><:>=>>:::::<;ul$;:%-;>>>>",
">>>>&&-:&$cq;:::::::>=>:::<=::>*%:::<:>:=>::>::>::>;rl$&:%%&>>:>",
";>:;&--&&$cr;>::<::>::::>::>>=:=*>::=>::<::::::::::;ul$=:$%:>::>",
":>>:&&-:--cr-::::>::=>>=::::=<>%%::>>:::>>>=:::>::>-ul$-:%%:>::>",
">::>&%-:-$cr-:::::::>=>>>::>>>==%>:::::>=>=>:><=:::-ul$-:%%&>:>:",
":>>>:-&&-$cu:>>><>>>>>>>>>>>=>>==>>>>>>>>>>>>>>:<:<:ul$-:$-:>>:>",
">>::--&:&$cy:>>>>>>>>>>>>>>>>>>==>>>>>>>>>>>>>>>>>::ul$-:%%:>::>",
">:>::--&-%lp4776755636556356666126353366563563555573pk%&:%-:>>>>",
"<:<::-%&-&kfghhhhhhhhhhhhhhhhhgddjhhhhhhhhhhhhhhhhhgfk%&&%-:::;>",
">::>=%%:%%xa7777764674647446555115355555447447644774pl%%:%%=>:>>",
"::>>:%%:%%xy:>>:>>:>>>:>>>>>>>>&=>>>>>=>>>>>>:>>>:>&tl$%:%%:>:::",
">::>:%%:%$xy-><::>>>>>>::>>>>>>&=>>>=>>>>>>>:>:::>>&ul$=:%%&:>>:",
">:::&%%:%%cr-;--&%%&%&&:::::::>%%>=>>>=>:&&&&&&&=-:%rl$%:%%=>:>:",
":>>>:%%:%$cu;;<:::&:&::::::>&:>%%:::=::::::&&::::::;rz$--%--:>;>",
">:>::%%-%$cu;;<::::::>>:::::>>>%%>:>>>>:::>:::::::<;rz$=:%-:>>>>",
":>:>:%%:-$xu;<;:::::::&>:::::::%%>:::::::::::::::-:;il$-:%%::>>:",
"::::-%%:=$cu-<<:::::::::::>::::%%::=>::::::::::::::;ul$-:%%:::>:",
":::>>----$cu-::::::&>:::::&::::&%<=::::::::::::::::;rl$-:%%&:>::",
">:;>;--:-$cu;::::::&::::::::&::%%=::::::::::::::::<;rl$-:%%:::>>",
":>>>&%-:-$cr;:;:&::>:::::::::::%%::=:::=::::::::;::;rl$-&%%:>::>",
">>;>:%%:-$cr;:<;:::::::::::::::%%::::::::::::::::::-rl$-:%$:::>>",
"::::&%%--$cr-;::::::::::::::&::%%=::::::::::::::;:;;rl$--%%:>>::",
":::>:%%:-$cu-::::&::&::::&:::::%%>:::=::::&:::&:::<;ul$-:%%:::::",
">:>:&%%:-$cr-<:::::&::&::::::::%%::=:=>=:-::&:&::;;;rl$%:%%-::>:",
">::::%%&-$cr-;-::&::&:::::&:&::%%=:::::::::::::::<;;uk$&&%-:>>::",
":>:::%-&&$cq-;>;::::::=:::::-::%%:::::-::::::-=:;;<-ul$%-%%->:>:",
">>:>&-%&--cq--;>&:-::&::-::&:::%%:&:&:::::-:::::::;-ul$%:%%::::>",
">>::&&-:%$xt-;;>=::&:::::&:&:=&%%&:&:&:&&&:&&:&:-:;-tk$%-%%:>::>",
"::::&%%&%@xt&;:-::&:=-&:&:=:=:-%%:&:&::&::=:&:::::;-ul@%:%%-::::",
">::>:--&%-88-&---:=-:=-::=:=-:&%%:&-:=-:&:-::-:----%,8%%&%%:>:>:",
"::::--&:&&$O-&&::-:==:&--=:-&=&%@:&::-:&&=&&=:==:-&-+$-&&%%::::>",
":::>&&--:&&%+%&&===-==:=:&=&&=-%%:&&========&===&&%O-;::%%%:::::",
">:::::&&&:&-%+%--==%===-===--=:%#-%&-&=:-=-&--%=-%O$--:-&=:::::>",
":>:::::&&-:-:%+@@@@@#@@#@#@@#@@@+@@@@@@@@@@@@@@@@+%&::&&&:::::::",
"::::::::-&&:-:&&*%%%;%%%%%*%%%%%&&%&===-%==%=-%=&%%%:&%%:::::>::",
":::>&:&>:&:-:--:::::::::::::::::::::::::>:::::::::::%%&:::::::::",
">:::::::::&&&::::*:=:::=::=:::*::=-:::-:-=::::-::::&%&:::::::::>",
"::::&>&::::&----*****%%%***===%*%%===%=%======&&%&%&&::::::>>>::",
":::>>>>:::::::::=*:::::::;=:-;:::::==:::-=:--:-=:::-::::::::::>:",
"::::>&:::::::::::::::::::::::::::::::-::::::::::::::::::::::::::",
":>::>::::&::&::::::::;=::::::=::::::::::::::::::&:::::::::::>::>"
};
