/* XPM */
static char *result[] = {
/* columns rows colors chars-per-pixel */
"64 64 64 1 ",
"  c None",
". c #191917",
"X c #1A1A19",
"o c #201F1D",
"O c #1E201F",
"+ c #21211E",
"@ c #1E2424",
"# c #252422",
"$ c #292624",
"% c #252827",
"& c #2D2926",
"* c #252B2B",
"= c #2E2C29",
"- c #312C29",
"; c #3A2B2D",
": c #27302F",
"> c #2E302E",
", c #36322E",
"< c #38322E",
"1 c #362E34",
"2 c #3D2B31",
"3 c #3D2E3B",
"4 c #253131",
"5 c #2C3433",
"6 c #2C3738",
"7 c #2D393A",
"8 c #333432",
"9 c #3B3633",
"0 c #363936",
"q c #3D3935",
"w c #35373E",
"e c #39303C",
"r c #32393D",
"t c #4B2736",
"y c #422931",
"u c #492836",
"i c #452A38",
"p c #6B2C55",
"a c #772B57",
"s c #7A2956",
"d c #772B58",
"f c #324E51",
"g c #355153",
"h c #35575A",
"j c #36595C",
"k c #3E6366",
"l c #3E6569",
"z c #3F696E",
"x c #406265",
"c c #42676D",
"v c #41696E",
"b c #466770",
"n c #4D6775",
"m c #446971",
"M c #56667A",
"N c #536879",
"B c #477377",
"V c #497276",
"C c #4A787C",
"Z c #952F72",
"A c #963073",
"S c #AA2F79",
"D c #A9307A",
"F c None",
/* pixels */
"<<<<<<,<<<<<<<<<<-<<<<<,<,<<<,,,<,<<<,<,<<,<<<<<<<<<<<<<<,<<<<<<",
"<<<<<<<<<<<<<<<<<<9<<<<<<<<<<<<<<<<<<<<<<<<<<<<<<<<<<<<<<<<<<<<<",
"<<<<<<,<<<---&====-&&=&=&&&&====&===-&====&-====&=&==<,<,<<,<<<<",
"<<<<,<<<<,&-<8,<<<<8<<<,<8<,<<<8,,<,<8,,,<<8,,<,<8,<=&,<<,,<<<<,",
"<<<<,<<<<&-98qq9q99999qq99q99q99q8989999999999qq99998-&<<,,<<<,<",
"<<<<<<<<&-<89--,-8<,<<--,,>,,=-,-,,5-,,,,,,>,<-<,,-9<9=&,<<<,<<<",
"<,<,<-<&-<<8%X..XX.....XXXXXXXX  ..XXXXX.XX.XX.. ..%<,,=&,<,,<<,",
"<<,<,,&=<,<$X .......... XXXXFFFFFXXXX X..... ...X X$,,,=&,,<,,<",
"<<<<,&&,,,#XXO++++$+$++$#$#%@FFFFFF@%##$####++$+++OOO+,,,=&<<,<<",
",,<<,$,,,%OX#$$&$$&$$&&&$$%&*FFFFFF*%&$$$$$$&$$&=+++.O#,,,$<,<,<",
"<<<<,+>,%XX#%&&&&&&&&&&&&&&*4FFFFFF:*=&=&&&&&&&&=&+&+OO%>>$,<,<,",
"<<<<<&,,%@%&&&&&-&&&&&&&&&=>4FFFFFF4>*&=&&&&-&&&&=&=%OO*,,$,,<,<",
"<<<,,$,8:**&===&&=&&&&&&====4FFFFFF45===&-&&-=&==&==*&::,,$,<<,<",
"<,<,,&,,gf:=====&--=-=--&==55FFFFFF55===&----&=-===&=*ff8,&<,<<,",
",<<,,$,8kl:>===&-&-&&-=&&==>5FFFFFF45===-&-&-&-&-&=-=:ll8,&,<<,<",
"<,<<,%,8kz>>====-&=-&=-&--=56FFFFFF5,==-&-&-&-&-&-&-::ll08$<,<,<",
"<<<<<&,8kz>>=-===-&-&-&-==>56FFFFFF7>===---&-&----&->>zl0,&,,,,,",
"<<<<,&>0lz5>-===-=----&--=-,7FFFFFF75,>&------&--&-->5zz0,&,,,,,",
"<<<<<+,0lz>>--=-&&-&----=-,>6FFFFFF70=--&---&-&----->>zv0,&,,<,,",
"<<<<<%,0lz5,>--&--&----&===87FFFFFF7>>-----&-&---=-=>>zv0,&,<,,,",
"<,<,<&<0lz5>=---------&-=-,87FFFFFF7,----&---&-&-=-=>5zv0,&,,<,<",
"<<,<<=,0lz5,------&&------>57FFFFFF7<---------&;----,5vv0,&,<,,<",
"<,<,<&,0lz5>-----&--&---=-=87FFFFFF7<-------&------=-5vv0>&,<,,<",
",<,<,&>0zz8>,---------&--=,87FFFFFF7<-<&---&-------->5vv0,&<<<<<",
"<<<<,&,0lz58,=------;&;---;<7FFFFFF78,=-&-&----------5vv00&,,,,,",
"<,<<,$,0lz5,2-------&&&----<7FFFFFF78,--;&;--;--;--<88vv0,&,,,,,",
"<,<,,&80zv8,----;-;-&;;&---<rFFFFFF78,-;;;;&--;&-----8vv0>&,<,<,",
",<<<,&,0lm5,-;;;;-;;;;;;<<<<rFFFFFF782-;&;;;;;;;;;;-15vv0,&,<<<<",
"<<<<<&80lv812;22;;;;;y;y;;;<9FFFFFFw822;;;;y2;y;2;;2<8cv0,=,,<<,",
"<,<<,&80xm122yyyyy;;yyyyyy;;eFFFFFF33yyy;;yyyyy;yyy2<<bv0,&,<<<<",
"<<<<,&,0lnpasssssZssssssZssspFFFFFFpsssssZsssssssssaapVz0,&,<<<<",
"<<<<,&80zNADSDSSSSSSSSSSZSSSAFFFFFFZDSSSSSSSSSSSSSDSDANz0,=<<<<<",
"<<<<<&80lb9iuutytttttutuuuuueFFFFFF3iuuttttttttttttyy3vvq8&<<<<<",
"<<<<<&80lm9<yyyyyyyyyyyyy22ewFFFFFFwe222;;yyyyyy;yy;9<vv98&<<<<<",
"<<<<<&88lm0<<<<<;;;;,;;;;-28fFFFFFFw82;;;;;;;;;;;-<<,8vv08$-<9<<",
"<<<-<&80lc8>-----&---&-;-;-80FFFFFF78----;&-&-&----->>vv08&<<-<<",
"<<<<<&80lm58,----;&-------<8rFFFFFF78,---;----------<<vv0,&<<,<,",
"<<<<<$<0lv5,-,----------,-,87FFFFFF788--------------,8vv0,$<<<,<",
"<<<<<$80lz5,-----&---------87FFFFFF78--------------->5vv0,$<<,<<",
"<,<<<&80lz5,->------------>87FFFFFF788-------------->5vv08%<,<,<",
"<<<<,&,0lz5,==-------&---=,87FFFFFF78>------------=,,5zv0,&<<<,<",
"<,,<<%88lv0>,------------->,7FFFFFF68=,==---------=->>zz0>$<,,<,",
"<<,,<&,0lz5>=-=-&---&-----,57FFFFFF68>-------------=>8zv0,%<,<,<",
"<,<<,%,0zv5,>--=--&------->87FFFFFF65,==&--=----====>5zv8,&<<,<,",
"<,,<,$<0kz5>------&---&--=,87FFFFFF68=,=----=-&-===->>zv8>&,,<,,",
",<<<,$,0zz5,-----&-------=>>7FFFFFF68>=---=--&---=-->5zz0,$<<,<<",
"<,<<<%,8kz>>---&&--&-&--=--57FFFFFF65--==-==-&-&---&>>ll0,$,,<,<",
"<<<<<&,8zz>----&-&&------->87FFFFFF68>=--&==&-&--&=-:>zB8,&,<,<,",
"<<,<<$<8kz>>=--&--&--&&-&--,6FFFFFF6,>--&-=-&--=&&-==>zB8,&<<,<,",
"<<<,,&,8kz>>>==--&-&&-----=,6FFFFFF5>-=&-&-=-&-&=-==-:zB,>+<<<,<",
"<<<,<$>,kl>===&--=&=-&-&&==>6FFFFFF6>>==&-&-&-==-==&:>lC,,&<<<<,",
"<<,<<%,,kh::==-&&=--&-&--=>>5FFFFFF5>>==&--&-&=&+&==&:hC,8%<<,<<",
"<<,,,$,,F4*:===&=&&&=&==&==>5FFFFFF5>===--&&&===--&==%4F,>&<<<<<",
"<<,,,&-,FF+&&&=&&=&=&&=====>5FFFFFF4>===&&&&&=&&&-==&+FF,-&<<<<<",
",<<,,$,,0FF+&=&&&&=&=&==&===:FFFFFF:==-&&&-&=&&&+&&=+FF<,>&<<<><",
"<,<,<&&,<<FF++&&&&&&&&&&&&&*:FFFFFF*<+&-&&&&=&&&--++FF0,<&+<<<<<",
"<<,<,,$&,,,FF+$$&+&$$$$$$&%%%FFFFFF%%%$$%&+&$$$$$$+FF<-<&+<<<><<",
",,<,<<<&%,,<FFFFFFFFFFFFFFFFFFFFFFFFFFFFFFFFFFFFFFFF<><--<<<<<<<",
"<<,<<,<<$&,,<8qqq0qyqq9qqqq9qq99q999q999qqqyqqqqqq9,,,>&<,<<<<<<",
",<<,,<<<,&&,<,<<<<<<<<<,<<<<<<,,<<<<<<<<<<<<<<<<,<,,,&+<<<,<><<<",
"<,<,<<<<,,&&======&&--&-==-=-&--=-&=========---&&===+-<<<<><<<<<",
"<<<,<<,-<<<&&&&&=&&-&&&&&&&&&&&&&&=&=&&&&&&&&&&&==&&&<<<<<<<<<<<",
",<<<<<<<<<<<<<<<,,<<<<<<<<<<<<<,<<<<<<<<<,<<<<<<<<<<<<<<<<<<<<<<",
"<<<<<<<-,<<<<<<<;,<,<<-<,,,<<-,<,,<<<<<<;,<<<<,<,<,,-<<<<<<<<<<<"
};
