/* XPM */
static char *result[] = {
/* columns rows colors chars-per-pixel */
"64 64 179 2 ",
"   c #0F3837",
".  c #3C2D31",
"X  c #253C3B",
"o  c #2C3E3E",
"O  c #3E3436",
"+  c #3C3738",
"@  c #343D3D",
"#  c #3D3C3D",
"$  c #353636",
"%  c #44231C",
"&  c #592E1C",
"*  c #64341E",
"=  c #6B391F",
"-  c #773C1D",
";  c #4D1F30",
":  c #571E36",
">  c #621F3B",
",  c #49272A",
"<  c #4E3227",
"1  c #41332F",
"2  c #4D332A",
"3  c #4F382E",
"4  c #543326",
"5  c #5A3626",
"6  c #5E3926",
"7  c #523429",
"8  c #5A3A2B",
"9  c #55372A",
"0  c #4C2635",
"q  c #432D34",
"w  c #4C2936",
"e  c #4A2734",
"r  c #542637",
"t  c #562639",
"y  c #512A3A",
"u  c #5B253C",
"i  c #413434",
"p  c #413837",
"a  c #423638",
"s  c #49353B",
"d  c #413E3E",
"f  c #4F3B33",
"g  c #6E3D23",
"h  c #713E23",
"j  c #63233E",
"k  c #09403F",
"l  c #2B403F",
"z  c #3E413E",
"x  c #43403F",
"c  c #66402B",
"v  c #734024",
"b  c #7C4323",
"n  c #794A2D",
"m  c #353F40",
"M  c #3E3F41",
"N  c #751E45",
"B  c #423F40",
"V  c #6E2244",
"C  c #682A44",
"Z  c #7A244A",
"A  c #7C2A4D",
"S  c #74284A",
"D  c #7D2C53",
"F  c #0D4D4B",
"G  c #1E4E4C",
"H  c #1C4745",
"J  c #1F504D",
"K  c #1D5553",
"L  c #1F5957",
"P  c #1B5B59",
"I  c #244644",
"U  c #234C4A",
"Y  c #2B4C4B",
"T  c #2A4645",
"R  c #334343",
"E  c #3E4041",
"W  c #21504F",
"Q  c #215452",
"!  c #235A57",
"~  c #215D5B",
"^  c #295250",
"/  c #0D635E",
"(  c #21615E",
")  c #1D6663",
"_  c #1A6E6A",
"`  c #186B67",
"'  c #17736E",
"]  c #19716D",
"[  c #197974",
"{  c #25736F",
"}  c #237773",
"|  c #434242",
" . c #484343",
".. c #854B27",
"X. c #984F21",
"o. c #87522F",
"O. c #965226",
"+. c #955429",
"@. c #9B582C",
"#. c #865230",
"$. c #995C31",
"%. c #A65D2B",
"&. c #AA5E2A",
"*. c #A45826",
"=. c #B65A3B",
"-. c #AF622C",
";. c #B9672E",
":. c #A96331",
">. c #BC6C32",
",. c #CC7332",
"<. c #C77133",
"1. c #D67B36",
"2. c #DC7C36",
"3. c #D57C38",
"4. c #DC7D39",
"5. c #80254E",
"6. c #872652",
"7. c #8D2656",
"8. c #8C2956",
"9. c #8F2858",
"0. c #902557",
"q. c #912658",
"w. c #9C275E",
"e. c #932B5A",
"r. c #9E2D62",
"t. c #A12A62",
"y. c #AA2966",
"u. c #B12D6C",
"i. c #B6286C",
"p. c #A83F75",
"a. c #C22C74",
"s. c #CA2F7A",
"d. c #C52F78",
"f. c #C7327B",
"g. c #C9337C",
"h. c #C13177",
"j. c #B04E4F",
"k. c #CA4172",
"l. c #1A837E",
"z. c #13847E",
"x. c #DD823B",
"c. c #E28238",
"v. c #EC8B3D",
"b. c #F28F3E",
"n. c #F08E40",
"m. c #F99543",
"M. c #CF3580",
"N. c #D13682",
"B. c #D53986",
"V. c #D73A88",
"C. c #DA3A89",
"Z. c #D93787",
"A. c #1B8681",
"S. c #178A85",
"D. c #1A8984",
"F. c #1A8E89",
"G. c #178D88",
"H. c #13928B",
"J. c #1A908A",
"K. c #199C95",
"L. c #368C89",
"P. c #15A59D",
"I. c #1AAAA3",
"U. c #13ADA4",
"Y. c #17B0A7",
"T. c #16BBB3",
"R. c #1ABDB4",
"E. c #22B7B0",
"W. c #17C0B7",
"Q. c #19C4BA",
"!. c #17C8BD",
"~. c #1BCDC3",
"^. c #1AD1C7",
"/. c #19D4CA",
"(. c #1AD9CF",
"). c #17D5CB",
"_. c #1CDED3",
"`. c #1DE5DB",
"'. c #1EEFE3",
/* pixels */
"| | | | E  .E E |  .| E | E | |  . . .E E | E E  .| | E | | | E | | |  .E  .E E M |  . .E  .| |  . .E  . .M  . .E |  .E |  .E  .",
"| | | | E  . .E E E E E E | |  . .Y |  .| | E  .E | M | | | | | | | E E  .E E | B  .| | B Y | B M E  .E  . .| | E  .|  . .E  .E ",
"| | | |  .E | | E  .E  .E E |  . . .| | | | |  .E | | M B | | | | | |  .| | | | B  . . . .B  .B | E E | Y  . .|  .Y  .|  .B Y  .",
"| E E | | | | | | | | |  . .E  .| | | E E | | | | | M | M M B | | | |  . .| E |  .B Y  . .B B | E | | |  . .E |  . . . . . .B  .",
"E | | E | E E |  .|  .E E  .|  .| | | E E  .| | | | | M B | M | R  . .E | |  .E E  .| |  .E | E  .M  .E  .M | |  .E E E  .E  . .",
"E | |  .| |  .E |  .R  . .R E  .E  .| | E E  . .| | M | B E | E |  .E E E | E  . .E E | | | | E  .M E M E  .| | E  . . .E  .B Y ",
"| | | |  . .E | E  .| | | E  . . .E  .E  .E | | | | E | | | E | | | E  .R  . .E  . . . .| | |  .E E  . . .| | |  .Y  .E M  .B B ",
"| | | E | | E | E E | | | |  .R E  .E | E  .| E | | | | | | | | | |  . . .E E  . . .Y | | E E  . .E M E E | | |  .B E  . . . . .",
" .R  .R E  . .E  . . . . .E E  . . . .| | | E | | | | |  .R  .R  .E  .E E  .| |  . .Y  .E E |  .E  .M E B  . . .B B  . .E  . .E ",
" . . . . .E E E E E R | E  . .E R  .| E E |  .| E | | | |  . . . .E E  .| | | | E  . . . .| | E  .E  . .B B Y E B  .E  .E E  .E ",
" .E R  .E  .|  . .Y  . .Y  .E | E  .| E |  .Y  .| | | M | E E  .| | E | | | E  .E E B  .| | E | E E  .M  .B  .E  . .E E E E M E ",
"R  . . . .R  . .E  . . . . .E |  .| |  . .E  . .| | | E | |  . .|  .| | | | | | |  .B M | | | |  .E M B  . .E  .M  .E  . . .E  .",
"E M M M E # E # M M M M | M M M M | | |  .| |  .| | | |  .E  . .| | | | |  .| | | | E M  .E | | E  .E  .M  .E E  . .B B E E  .E ",
"[ ] ] ] ] _ ] ] ] _ _ _ [ ] ] ] L M E | E E  .R E | | | E E E R | |  .| | E E  .| | E  .| | | |  .E  .M  . . .E E B B M E  . . .",
"~.^.^./././.).).)././.).)././.(.^.Q  .R R  .E  .| E E |  . .| |  . . .|  . . .E | | | E  . .E | E  .E M  . . .E E B m J.( B ^ B ",
"U U U U W W U U W G G W W W Q H K.Y.R E  . . .E  .| | | E  . .|  .Y | | Y  .E  .| | | | | | | E  .E E  .B  .Y  . .m I.`.~.^ B B ",
"| | | | | |  .E | | E  .E  .^  .Y ~.[ $ + + # # + # + + + # + + # + @ # # + # | | | | | | | | | E E  .m $ m M m . W T.F U.{ s | ",
"| | E | | E E  .| | E |  .E E  .d _ ~.S.S.S.D.S.A.l.S.D.A.A.A.D.A.l.A.A.A.A.) #  .| E | | | | | E  .m G.G.G.S.G.G.P.T.k U.[ + | ",
"| | | |  .E E  .| E | | E  .E E  .l D.Q.T.R.T.R.T.R.W.T.R.R.R.R.R.R.W.R.R.Q._.~ E  .| | | | | E B m K.).T.T.T.!.R.T.).T.!.^ B B ",
"| | | | E  .E E | E | | E  .E  . . .z o o o o o o T X m T o o o T o X m m X F.R.T E | E | | | B B ( Q.G m I m m m X ) T.' M | | ",
"E | | |  . .E  .| | E | | | | E | | | | B  . .| | | |  . .| | | B | | | |  .T R.D.O B B d B d d m T.[ M B B  . .|  .# o M | | | ",
"| | | | E E | T I @ | E | | | | | | | | | | E | | B # |  .| | M | B | | | E d ~ /.` ~ L ~ ~ ~ K K.U.m B  .B | E | | | | E E | | ",
"| E | | | | R G._.z.@  .| | |  .|  .B | | | | | | # E | | | | | d | | | M | | M D._.^.^./././.).!.Q B B B | B M E | d E E | | M ",
"| | M | | B ! !.H.~.P G U U U U U U U T U U U I R | | | | E B B # | | | | | B | m K ! L L L ! L U B B B  .M  .M | | | | | | B B ",
"E | z | | d { P.  T.`.).).).(.).)./././.^.^.^.(.A.@ M B | B B B d | | d | | | B | B B B B B M d d | | | B | B | | | | | E | | # ",
"| | | | | p ~ W./ Q.z.] ' ' ' ' ' ' ] ] ' ' ' [ ~.K B | | B B B B B | x | | | | | | |  .| | M M  .B B | | | B B | | | | B | d | ",
"| | M | | | @ I.'.P.o # M # # # # # + + # + # $ G.E.O y w w e 0 0 0 0 0 0 0 0 w e e e e y e e e 0 0 0 0 0 0 s B | B B M | | | # ",
"| M | | | M # U ` T | | | | | | | | | | | B B  .R L.p.s.d.s.s.s.g.g.g.d.g.g.f.g.d.d.M.M.M.M.M.M.g.g.g.g.g.N.Z a | d B | B | | | ",
"B | | | | B | B # | | | B B | | | E | d | | B B # D a.6.q.q.q.q.q.q.q.q.0.7.0.7.q.q.q.q.7.7.7.q.q.7.7.7.7.r.M.u d d | | d B | B ",
"| B | | B B | | | | | | | | | | | | B d B | B d C i.C a a q s B a O a a a a a q a a O O a a a a a a d a + . r.u.e d d d d d d d ",
"| | | | | | | | | | | | d | | | | | | | | B | q y.q.+ | B  .B B B B |  .| | | | |  .| |  .| |  .| | | |  . .w g.q.> C j j j j j ",
"e e 0 0 w w e e w 0 y w e w 0 0 e e 0 0 0 0 ; 6.i.w | B B B B B B B | B |  .| B | | | | | | | | | B | B  . .x V C.Z.Z.V.V.V.Z.C.",
"f.M.g.s.g.g.f.f.g.g.g.g.g.g.s.g.d.M.s.s.f.f.M.N.V B  .| |  .B B | B d | B | | | | | | | | | | | | d | | | | | s V V V V V V V V ",
"6.6.7.7.8.6.7.7.7.7.7.7.7.7.7.7.8.8.8.q.q.7.q.V a | B | a a a a a a a O a a a a O a a a a d d | d | | B | |  .| d p s d d d p d ",
"+ O a d + a O a O + a a a O a a O a s a O + a s B B  .a Z q.7.8.7.7.7.7.9.8.9.7.8.9.8.7.q.6.y x B B d | |  . . .| | | B | | | B ",
"B B | | | | | | | | | | | B | | B B | B | B  .B | B + S C.g.g.g.g.g.g.s.g.g.g.g.g.g.g.g.f.C.w.a | d d B B | d B B |  .d B | B | ",
"B B | B B B | | | | | | | x | B | | B | B | | | B B r s.Z e r 0 0 0 w w e e e e w w 0 y w t g.S # | d d  .B d B d | f b 8 B | | ",
"| | | | d d M | | | | | | | B | B | | | B | B B  .a t.y.q  .| | B  .| | x  .| x | | | |  .p A f.0 d d d d d d d x O @.m.,.9 | | ",
"B | B | | | B B | | | a a d | x B  .| | B B B | # V s.y |  .| B B | | | | d | x | | | |  . .a j.=.= v v h h h h v - 4.- ,.#.M | ",
"| B | | | | | | | | a w.u.y d d B B B B d B d | w s.A +  .| B B B B | | | d B z d | z x | x B 9 2.b.b.v.b.v.b.v.v.m.4.% %.$.#  .",
"| | | | | B | | z z S g.h.t.: r u u r r r r r ; w.i.q  .x | |  .B x x x |  .| x x x x x | d B d 5 g g g h = - b v - x.*.1.n B  .",
"| B | | | B | | x z r.5.: C.Z.g.N.N.M.M.N.N.N.B.s.u x x x x B d d s d d d d d s d d d x  .d d | | # d x x x x x d a ..b.-.i  .| ",
"| B | | B | | |  .+ r.6.j a.V Z Z Z Z Z Z Z Z Z j d d | | d g h v h v v h h h h h h 6 d B | d  .x x x x x x x x x  .f 4 3 x d | ",
"M | | | B B | |  .x C g.N.8.i d d a p d + a d p d | | | | 5 1.v.v.v.v.v.v.v.v.b.b.n.,.7 |  .d  .| d  . .x  .x x x x | | | | | | ",
"x x x | | | | | |  .a 5.w.s  .B  . .B B | | B | B B d  .. <.;.* = = g = h g h h h = 3.%.+ | d d x x | x x x ..* d x | | | | | | ",
"x | |  .|  . . .| |  .d p  .B B B B B B |  .x  . .d  .a ..2.7 d x x d d d p d d d d c c.g d B B x | x  .p +.b.2.8  .|  .| | | x ",
"< < < < < < 7 < < < < 7 4 7 < < 4 < < < < < 7 7 < < < * 2...# x x x x x d | | x d  .a $.3.& 4 6 4 4 5 7 & 1.b >.$.# | |  .| | | ",
"1.1.1.1.1.1.1.1.1.2.3.1.1.2.2.1.1.1.1.1.1.1.1.1.1.1.1.b.&.1  .d x x | x x | d d B | | 2 <.n.4.2.c.c.c.c.v.x., +.:.+  . .| | | | ",
"%.:.%.%.&.&.*.-.-.%.:.-.&.-.&.&.&.&.&.-.&.&.-.-.%.-.-.*.7 d x x | | B | d d | | | | x # 8 O.O.O.O.O.O.+.O.x.X.,.o.# | | | | | | ",
"i i 1 O i i 1 i 1 1 1 i 1 1 1 1 1 1 1 i i 1 1 O . 1 O O x x | x B | z # | | | # x | x x x + i a + O + + . ..b.,.3 | | |  .| |  .",
" .| x x |  .| |  .|  . .|  .x  .| |  .| x |  . . .| x  .| | | | | # d x | | | d # | | | x x | | |  .x x  .d 6 9 x | | d |  .| | ",
"x x |  . .| | | | | | | x | x x x |  .|  .| |  .| | x x | | x | d | | | | # | # E  .| x | x | x x | |  .|  .x | x | | z E | | # ",
"| | | | | | | | | | | | | z | | d | | | | | | | | x | | | | | | B | # B | | d # | | | | | | d | x z | | B | | | | M | | x # | | ",
"| | # x | | # | | d | | | x E x | | | | | | | M z | | | | | | # # | | # | | | x | | B | | | | # # | | # | | | d | | | | | | | | ",
"z | | | | B # | | | | | z | | | # | | | d | x x z | | | | | | # | d | | | E d | | | | | | | | | | d | | | | | | | | |  .| | | # ",
"| | | z z d B | | | | | | # x | d x | M d | | | | | x z | | | x # | # # B d # | | | | | # | | d | | | z | | | |  .| | | # | | | ",
"x # x x # d | E d | | B d # | | | | | | |  .| | | | | | | | | x # | # # | | | | | | | | | | | | | | | x | | | | | | | # # | | | ",
"| | M | | | | | | | | | | d | | | | | | | | | | | | | | | | | | # | | # d | | | | | | # # B | | |  .| | | | | | | | | # | | | | ",
"| | | | | | | | B | | | | d | | | | | | M # | | | | | | | | | # d B | x | | | | | d | x | x E | | | | | | | | | | | z | | | | | ",
"E | | | # | | # E | | | x | | # # x d | | d | | | | | | B z d E | | # | | | | | | | | | | | | | E | | | | | | # | | | d |  .| | ",
"| z # | d x | # | | | | | d # | d | | | d | | # B | | | | | d | | d | | | | | | | | | | | E | x d | | # | | | | # | # | | | | | ",
"| | d d | | # | | | # | | E d # E | | | | | | | B # d | | | | x z z x | | # | | | | | | | x | | | B | | | B | | | B B z | z | | ",
"| E M # | | d # z | E x | | z # # z x | | # | | # | M d d # # | d B | | # x d d | | | | | # | E # # B | | # d | | # | | # # # B ",
"# # + + z E + # # | x | # # + # + # x | | # | | d # | # + @ + | # | | # # # # # d | z x | # | # + + # | | # z | d | # z + + # | "
};
