/* XPM */
static char *result[] = {
/* columns rows colors chars-per-pixel */
"64 64 52 1 ",
"  c #161613",
". c #181614",
"X c #171817",
"o c #1A1816",
"O c #1E1D1A",
"+ c #201E1B",
"@ c #1E201E",
"# c #23211E",
"$ c #1C2220",
"% c #252421",
"& c #2B2622",
"* c #272926",
"= c #2E2925",
"- c #202C2B",
"; c #2E2D29",
": c #322625",
"> c #312A26",
", c #3E212D",
"< c #352F2A",
"1 c #3B292B",
"2 c #2D312E",
"3 c #34312D",
"4 c #352D30",
"5 c #3B2B31",
"6 c #293230",
"7 c #343530",
"8 c #44262E",
"9 c #41282D",
"0 c #452632",
"q c #4C2532",
"w c #422832",
"e c #662C4B",
"r c #6B2B4D",
"t c #70294D",
"y c #752C51",
"u c #7A2A51",
"i c #2F4D4F",
"p c #344F4F",
"a c #335254",
"s c #3C6366",
"d c #3B666A",
"f c #3D696D",
"g c #41666D",
"h c #49636F",
"j c #476671",
"k c #4D6776",
"l c #506374",
"z c #953269",
"x c #9D316B",
"c c #A63372",
"v c #AA3271",
"b c None",
/* pixels */
"<3<<<<<<<9<<<<<<<<<<<<<<<<<<<<<<<<<<<<<<<<<<<<<<<<<<<<<<<<<<<<<<",
"<<<<<<<<<<<<<<<<<<<<<<<<<<<<<<<<<<<<<<<<<<<<<<<<<<<<<<<<<<<<<<<<",
"<<<<<<<<<<<>==<>#>==>=>>&=>>#<==<=====<=#>=><===&&>>=<<<<<<<<<<<",
"<<<<<<<<<<>><><<<<<<<<>><<<<<<;<<<<><><<<<<;<<><<<<<>&<<<<<<<<<7",
"<<<<<<<<<=<<<<<<<<<<3<<<<<<<<33<<<<<<<<<<<<<<<<<<<<<<>=<<<<<<<<<",
"<<<<<<<<&;<<<=>>>>>;>>>>>=;;>>==;=;<>>>;>><=>>><<>;><<>&<<<<<<7<",
"<9<<<<<=><<>#ooooo.ooooooooo+@@#@O@@oooooo..@.o.ooo#;><;<<<<<<<<",
"<<<<<<<<<<>#o   .....o.#o.oobbbbbbbbo........ .+   o#<<<<<<<<<<<",
"<<<<<=;<<<#ooO+###########%$bbbbbbbb@%@#########++Ooo%;<<<&<<<<<",
"<<<<<&<<=#oo@%&%=###>###%&*$bbbbbbbb$*%&&%&###=#&%#+ o%;<<&<<<<<",
"<<<<<&<=%@o#%&&&#:=#:#=>&*;%bbbbbbbb%2*&&&==>=#>&&%%@oO%<>&<<<<<",
"<<<<<&;3*@@*&=&=======>#==;*bbbbbbbb%2;=====#><#=&=*%@@*<<&<<<<<",
"<<<<<&<<6-**==============;*bbbbbbbb*2;=======<>===&**-6<<><<<<<",
"<<<<<&<3pp*;=============;2*bbbbbbbb*2;===:===#>====;*pp<<&<<<<<",
"<<<<<%=3sf;;=====:=>=:=>=;2*bbbbbbbb*22==:==>>===>==;=ss<<><<<<<",
"<<<<<=33sf2=======:====>=>6*bbbbbbbb*6;>=;;:==>=====;7ss<<<<<<<<",
"<<<7<><<sd6;;=>=;==>===>=;3*bbbbbbbb*2==>=>=>>>><>==;;sf7<&<<<<<",
"<<<<<<<<sf2;;==>===>>>>>=>2*bbbbbbbb*33;>>>>>:>:===<*2ff7<&<<<<<",
"<<<<<=<7sf2;=>>>===>>>=>>;6=bbbbbbbb*23=>&=>>>>:>===;2ff7<*<<<<<",
"<<<<<=<7sf2;>==>=<>==>=>;>3*bbbbbbbb*2==>>>>>=>>===<;6sf7;*<<<<<",
"<<<<<&<<sf6;>>>>>>>>>=>>>>2*bbbbbbbb*3;;>>>>>>>>>>=>32df3<=<<<<<",
"<<<<<=<3sf23>>>>>>>>>>>=>>2*bbbbbbbb*;;=>>>>>>>>=>>==2ff7<=<<<<<",
"<<<<<&<7sf;<>>>>>>>>>><=>;3*bbbbbbbb&3>>>>>>>>>>>>><<2sf7<=<<<<<",
"<<<<<%<7sf3<>>>:>>>>>>>=>;3*bbbbbbbb=<>>>>>=<:>>>>>><;df7<<<<<<<",
"<7<<<&<7sf7;><::>::>>>:<>><&bbbbbbbb67;;>>>>>1<>>><><3sf7<&<<<<<",
"<<<7<&<7sf7<>:><><><1:<::<<&bbbbbbbb*7<>>11:>:::>>>><<ff7<=<<<<<",
"<<<<<=<7sf;<:<1:1>1>::1:><<=bbbbbbbb*3><>:1:1<::<>>><3ff7<%<<<3<",
"<<<<<=<7sf7;<>111111111:<<3&bbbbbbbb&<<<19::1:1111<<<<sf7<*<<<<<",
"<<<<<<<7sf79<91119999989111=bbbbbbbb&45,:89999111111<7ff<<><<<<<",
"<<<<<><7sf<7999<88qq8888991&bbbbbbbb=5888:8898999999<<sj7<&<<<<<",
"<<<<<=<<sgeyuuuzuuuuuuuuuut,bbbbbbbb,ryuuzuuuuuuuuuyyeff7<><<7<<",
"<<<<<><<sjzcvvvvvvvvvvvvvvxqbbbbbbbb0xvvvvvvvvvvvcccvzjf7<<<<<<<",
"<<<<<&<7dj50qqqqqqqqqqqqqq0:bbbbbbbb:5qqqqqqqq8qq888w5df7<&<<<<<",
"<<<<<&37dg5<999989888999,55=bbbbbbbb&555999119919191<<dj7<&3<<<<",
"<<<<<&37sf3<<<<19111:111113&bbbbbbbb*411:111:11111<<33sf7<&<<<<<",
"<<<<<=>7sf3>:<>>::::::>1>;3;bbbbbbbb*4>:<:::::&:=>>>;2df7;&<<<<<",
"<<<<<&<7sf6<>>>>>>>:>>>:>16*bbbbbbbb*7>>>>>>>>>>=>>;>6df7<<<<<<<",
"<<<<<&<7sf6;<>>>>>:>>>>>>><*bbbbbbbb*6<>>:>:>>>>>>>>23df7<#<<<<9",
"<<<<<&<7df2<;>>>>>>:>>>>>;7*bbbbbbbb*2;:>>>>:>>>>>=>>2df7<#<<<7<",
"<<79<&<7df6;>>>=>>>>>>>>>;4*bbbbbbbb*2<;>>>>>>>>=>>;22df7<<<<<<<",
"<<<<<=<7sf6;;=>>>>=>>>>>>=3*bbbbbbbb*6>>>>>>>=>>====;6sf3;=<<<<<",
"<<<<<=<3sf63;>>>>>>>>=>=>;2*bbbbbbbb*7>>>;>>>>>===<=;6ff7<>7<<<<",
"<<9<<&<7sf23=>>>>>>>=>>>>;3*bbbbbbbb*6;=>=>;>=>>=<=;;2ff7<#<<<<<",
"<<<7<&<3sd2<>===>=>=>>>==;2*bbbbbbbb=6>:>>>>>>=>==;=;2sf7;#<<<9<",
"<<<<<=<7sf6;;>>>=>=>>>>=>=7*bbbbbbbb*6;;>=>=>>>==<==;2sf3<&<<<<<",
"<<<<<&;3sf6;;===>>>>==>=>;2*bbbbbbbb*7>==>>>=>>>===<;2df3<&<<<<<",
"<<<<<&<7sd2;==>>>======>=;2*bbbbbbbb*7;;>>>>>=>==;==;2sf3<=<<<<<",
"<<<<<&;3sf2<>==>>=>=>>===>26bbbbbbbb*6;:======;>====;6sf3<=<<<79",
"<<<<<&<<ss6;==;;==>==>>==><*bbbbbbbb*2;==>>===>=====;;sf23&<<<<<",
"<<<<<&<<sf;;==;=>==>==>=>=;*bbbbbbbb*7==>=>=>>=====<2*sf2<&<<<<<",
"<<7<<&<<sf6;====>>>&>==>==2*bbbbbbbb*2;&============;;sf3<%<<<<<",
"<<<<<&<<pa*;====&>>>===>=;2%bbbbbbbb%2;;=>>==>======;;aa3=&<<<<<",
"<<<<<<><2-*=;====&>==>=>=;2%bbbbbbbb*;;==============*-6<>=<<<<<",
"<<<<<>><*@+&==============2%bbbbbbbb%;============&=*++%<<&<<<<<",
"<<<<<><<;%O+&&============;%bbbbbbbb%;============&&++%;<>=<<<<<",
"<<<<<>&<<<#OO&&==&=&===>==*%bbbbbbbb%&&======&====&+O%<<<&<<<<7<",
"<<<<<<==<<<#OO%%####&#######bbbbbbbb#*##&&&&+&&#%%++&><<&&<<<<<<",
"<<<<<<<<&;<>#OOO++#++#++#@@##b##**b#@@@#++OOOO+O+++#<<>>&<<<<<<<",
"<<<<<<<<&=<<<>=>>>>>>><>>>>><;>>;;;>=<;>>>>><==<===<<<>><<<<<<<<",
"<<<<<<<<<&&<<<<<<<<<<<<<<<3<<<<<33<<<<<<<<<<<<<<<<<<<&><<<<<<<<<",
"<<<<<<<<<<&&;&==&==&=====>>====&=====&===>&=&=======<<<<<<<<<<<<",
"<<<<<<<<<<<<==&=>>&>=&=<=#<#>>&>=&=<==#=>>==========<<<<<<<<<<<<",
"<<<<<<<<<<<<<<<<<<<<<<<<<<<<<<<<<<<<7<<<<<<<<<<<<<<<<<<<<<<<<<<<",
"<<<<<<<<<<<<<<<<<<<<<<<<<<<<<<<<<<9<<<<<<<<<<<<<<<<<<<<<<<<<<<<<"
};
