/* XPM */
static char *result[] = {
/* columns rows colors chars-per-pixel */
"64 64 50 1 ",
"  c #17120F",
". c #171511",
"X c #1A1511",
"o c #1E1914",
"O c #1E1E1A",
"+ c #231B16",
"@ c #261E19",
"# c #281F1A",
"$ c #16211E",
"% c #1E201B",
"& c #24221D",
"* c #2D231E",
"= c #30251F",
"- c #182520",
"; c #242621",
": c #2B2521",
"> c #252823",
", c #322521",
"< c #3A2323",
"1 c #352A24",
"2 c #392D26",
"3 c #432127",
"4 c #672648",
"5 c #682548",
"6 c #752554",
"7 c #7D2656",
"8 c #3A4A44",
"9 c #374D48",
"0 c #3A514C",
"q c #315A55",
"w c #355F5B",
"e c #37635F",
"r c #3B6764",
"t c #3F7671",
"y c #405651",
"u c #425F5A",
"i c #42605B",
"p c #427773",
"a c #4B7574",
"s c #457A76",
"d c #497976",
"f c #517374",
"g c #832A5E",
"h c #9D2772",
"j c #9E2973",
"k c #A12973",
"l c #706F87",
"z c #737189",
"x c #8B6E96",
"c c None",
/* pixels */
"2222222222222222222222222222222222222222222222222222222222222222",
"2222222222222222222222222222222222222222222222222222222222222223",
"2222222222222222221222121221211122222222221122222222122222222222",
"2222222222222222322222222222222223222222322222222222112222222222",
"2222222221111===,====,,,*,==========:,==============111122222222",
"22222222=11=&&@&+##+&+@++&#+@@@@@@@@@@@@@@@@@@@@@@+*==1=22222222",
"222222212==#@@@@#+@@+&@@@*+##@#@+*@@##&+#@@#@@&@+&@+@==122222222",
"222222221=@@#*cccccccccccccccccccccccccccccccccccc*@@@=122222222",
"222221===@+&*cXXX  XXXXccccccccccccccccccXXX  XX..c*#@@*11=22222",
"22221=1*#@&*cXX+++++++@cccccccccccccccccc@++++++oooc*#@@=:=12222",
"22221==*@&*coo@#&&*****cccccccccccccccccc****&*&&&ooc*#@&=*12222",
"2222=*=@@*%o++*********cccccccccccccccccc:*******&+Oo$&@&=*12222",
"22221*=&+8w%&&****=*=*,cccccccccccccccccc,*:==***&#&%q9+@=*12222",
"2222=***+ys;&***:&*,:*,cccccccccccccccccc,=,*==:***&%ti+@**12222",
"22221*=&+ys-&**:======,cccccccccccccccccc1:*===****&%ti+&=*12222",
"2222=***+ys;;:**======,cccccccccccccccccc,=======***;ti+@==12222",
"22221**&+ys>==*1***=:=1cccccccccccccccccc1=,,==:=***&se+@===2222",
"22211*=@+ys&>**=1*====1cccccccccccccccccc,,:===**===&ti&@==22222",
"2122=***&ys>&==&*=*====cccccccccccccccccc,,,==*,**&*&pi+&=*=2222",
"22221**@&0s>>===**1*==1cccccccccccccccccc1*,==,*=1*&*pi+@=*=2122",
"21121**@+yd>:::*&======cccccccccccccccccc1:===*,*1&*>si+&=*11221",
"22221*=@+ys>**=,======1cccccccccccccccccc,,,==,***1&>ti+&=*12222",
"2122=*=*+yd>>*=*======1cccccccccccccccccc,====,*>=*1>se+&*==1222",
"22111*=@+yd>>*:*======1cccccccccccccccccc1:==,*===*>>ti&+=*=2221",
"22221*=*+ya&::*,==*1==,cccccccccccccccccc1,:======::=pi+&===3222",
"1212=*=&+ys>:,,*======,cccccccccccccccccc,=,=======:>pi++===2222",
"2222===*+yd>:::,=:====,cccccccccccccccccc1,====**:::=ti+@=*=2222",
"1222=#=@+yd>:,,,,===,=1cccccccccccccccccc,==,,=,,,,*>pi+@=*=2222",
"22211**&+yd:,,<,,,===<,cccccccccccccccccc1,=,,,,,,,,,ai+@=*11221",
"2221=*=@@yd,1<<<3<3=<<<cccccccccccccccccc<<<<<<<<,11<fi+@=*=2222",
"12121**&+yz677777g77g75cccccccccccccccccc567gg7777776fu+@=*12221",
"2222=*=*+yxkkkkkkkkkkkgccccccccccccccccccghkhkkkhkhhhxu+@**11122",
"2222,*,#@yf<3<3333333<<cccccccccccccccccc<<<3333333<<au+#,,11221",
"2211,#,#@yd:<<<<<<=<<<,cccccccccccccccccc,<,,<,<<,<=:auo+*#11122",
"12121*:#+0d::,<==<<=*=,cccccccccccccccccc,=====,,,**:au+@**12212",
"2121,*,#@ya;########**,cccccccccccccccccc,==####@####pi+@,#11212",
"1121,#,#@ya::,=**===*,,cccccccccccccccccc,,=====,,::&ai+@:*12212",
"22121#:#+yd;:=*,=**=,*,cccccccccccccccccc,:=*=*=,*,:;pi+@*#12111",
"2122,&*#@ud>:*===*====,cccccccccccccccccc,,*===***,:;ti+@*:,2121",
"2221<#=#+0d>::*:===*=*,cccccccccccccccccc,*==*=*:**&;ai++=:,1212",
"2121=**&@ys>::******===cccccccccccccccccc,===*===*&=&pu+@**,1211",
"2221=*=&@0s;:::**==***,cccccccccccccccccc,*=******>=&pu+@**12112",
"2222=+=&+ys;:*****===*,cccccccccccccccccc==**==***&>>pu+@**,2112",
"=212=*=++ys;:**:=****=,cccccccccccccccccc=*==*****==&pu+@**,1211",
"2122=*=&+ys;::****=*=*=cccccccccccccccccc,=***=****:;tu+@**,1121",
"1212===@@0s;&******=**,cccccccccccccccccc:**=******:;tw++**12112",
"2122=&=++yp;:*********=cccccccccccccccccc=********&*;tu+@*#,1121",
"123==+=*+yp;:&*********cccccccccccccccccc1*********;&tu+@**12211",
"21211@=@+ys;&***&**=**=cccccccccccccccccc=*****=***&&ti++=*=1111",
"1211=*=@+ys&&*&****#**=cccccccccccccccccc=*****@*&*&&tw++=*11112",
"2112=@=#+yp;&&********=cccccccccccccccccc=#*#***#*&*&pe++=#=1112",
"12111#*@+8e&&*&***@*#**cccccccccccccccccc=********&@&e9+@=*=2111",
"2111=**@@&$+@*@***#****cccccccccccccccccc=****@*#**++-&+&**=1112",
"1221=**#@&o.+&*@@**@@**cccccccccccccccccc=*#@**#@@&+cO*+&**11221",
"2121=&***@@o.+@@*##&*@*cccccccccccccccccc*##*&*@#&+c@*@****=1211",
"11111=@***@&o.++@@+@@+@cccccccccccccccccc*#+@@+&@++@@@***&==22=2",
"112111=+***+@+XXXXXXXX+ccccccccccccccccccc*+oooooo+@@***+=2=3211",
"1111111=@***@#*************************************@**#*==2=2211",
"21111211*@***=*=========,,==,,===,=,,,,,===========***@===221121",
"111111111=@**==*===*======*==*==*=*=**=*====*====****@=1222=2111",
"1111211111=@#*###*#**##***##**&#&********######*@*@***1111121111",
"12211111111======*=**=***=*======****=***==========*=11111111112",
"11111111111111111111111111111111==1111,1111111111111111111112111",
"11111111111111=111,11,,11,111=111111=111=111=1=11=11111111111111"
};
