/* XPM */
static char *result[] = {
/* columns rows colors chars-per-pixel */
"64 64 48 1 ",
"  c #2F363A",
". c #2F393E",
"X c #333433",
"o c #313739",
"O c #30383C",
"+ c #2E3B43",
"@ c #2B3E4A",
"# c #303A40",
"$ c #2A404E",
"% c #274355",
"& c #284152",
"* c #24465B",
"= c #23485F",
"- c #1F4B66",
"; c #1D4E6C",
": c #1C506E",
"> c #175476",
", c #1A5272",
"< c #15577C",
"1 c #14597E",
"2 c #214A63",
"3 c #125C84",
"4 c #125F88",
"5 c #0D628E",
"6 c #11618C",
"7 c #0D6491",
"8 c #0D6896",
"9 c #06669B",
"0 c #04689E",
"q c #0B6B9C",
"w c #056CA3",
"e c #086CA1",
"r c #006FAC",
"t c #0670A7",
"y c #0271AC",
"u c #0073B3",
"i c #007CBE",
"p c #007FC2",
"a c #0080C4",
"s c #0696D5",
"d c #0698D7",
"f c #0698D8",
"g c #1EA4D7",
"h c #1CA6DB",
"j c #1CA8DD",
"k c #41CCEF",
"l c #56E1F8",
"z c #71F7FF",
/* pixels */
"XXXXXoXXXXXXXoXXXXXXXXXXoXXXXXXXXoXXoXXXXXooXXXXXXoXXXoXXXXXXXXo",
"XooXXXXooooXoXoXoXooXoXXooXoXooXoXXoXoXoXoXXXooXoXoXoXXooXXXXooX",
"oXoXoooXXoXooXoooooXooXXXooXXooXoooXXooXXXoooXoXoXoXoXXoXoXXXXXo",
"oooooooooooXooXoXooooooXoXoXoooooooooooooooooooooooooooXooooOooo",
"ooooooooooooooooooOooooooOoOooOO.ooooOOoo OOoOooooooooooooOoOOoo",
"OoOOOoOOOOOOoOO#O.O.OO. OOO#OOO#O...OOOOOOO.O...#OOOOOOoOOOOOoOO",
"OO#O.##O$oXOOo#$+.+++#.+###++#+++++++.##OOOO.+..#######O###OOOO#",
"#+++++++$#$O$O$O+++++++++@+++@++++++++$+$#$$.$$.$#$#$#$OO$#O$#O$",
"$#$$$+$$$O$$$$$#@@@@@@@@@@$$@$$@$@@@$$$$$$$$$$$$$$$$$$$$$#$#$#$#",
"$$$$$$$&$$$&$$$$&&&&&&&&&&$&&&&&%%&&$%$&&&&$&%&&$&$&$$$&$$$$$$$$",
"$&%%$%%%&*****&*%*******************==*%********%***%%%%%%%&&&$&",
"=============2222-------222-2-2------------------22222===22===**",
":;;;;;::::::,,,:,:,>>;:,,::,,;,,:,,,:>>,:,>,:,,,,:,::::::::::;22",
"<<<<<<<111111111131113131113133111311111111111111111111>>1>><>>>",
"5565555555557686777757777757877777757775777777775575555566556666",
"eeteetttttttttttttwwrwtwtttwwrwrtttyyttttttttttttttttttqttqtqqqq",
"ddssssssdsssdsdddsddssssssssssssssssdsdsdsssssssddddddsssssssssa",
"zzzzzzzzzzzzzzzzzzzzzzzzzzzzzzzzzzzzzzzzzzzzzzzzzzzzzzzzzzzzzzzz",
"gghhghghhjhhhjjjhjjjjjjjhjjhjhhhjjghjjhhjjjjjjjjjjhhjjjjgjjjghhg",
"89990090000q00w0000www0wwwwwwwwwwwwwwwwwwwwwwwwwww0ew00899999998",
"6116116116161616333363444444434434443344334444346161616633331311",
"::::,,:,,,>,,,,,,,>:,>>>,:,,>,>,,,,,,,,,,>,>>,,,>,>>>::>,::,::::",
"==------------2-------------------------------------222-22222222",
"%%%%%%%%%*%%*%%%*****%*%*********-@*****@******%%%=%%**%*%%*%%%%",
"$$$$$$$$$$$$$$$$@@%@$&&&$&$&&$&$@@@@@@@@$$$$$$$$$$$$$$$$$$$$$$$$",
"$+$.+$.$#+.$$$#$++@@@++@@++@+@+@@@@@@@@@+$$++$$+$++$#O$#$+@++$##",
"O+o..++.#+..####++++++#+++++++++++++++++$O+O.+++O#$OO#O$O###O+##",
"ooOooOoOOOOOOOOO.   OOOOO#OoOOOO+    + +OOOOOOoOOOOOOOOOOoOOOOOO",
"oooooooooooooooo  oOoOOooooo.o OOooO OOOOOoOoOoooOoOoooooOoooooO",
"oooooooooooooooooOooooooooOooooooooo  ooooooooooooOooooooXoooooo",
"ooooooooooooooooooooooooOooooooooooooooooooOoooooooooooXooooooOo",
"ooooooXooooooooooo oooOooooooOoooooooooOoOooooooooooOooooooooooo",
"oOOOoooOOOooooo# X #  ##oo##o###OOOO OOoOOOOoO    OO  O OOOoOoOo",
"OOOOOOO#Oo########### #######o##+  #+## ##### ++###  ## OO OOOOO",
"##############++#+++#+@@##++##@@+@+@@@++@+@@+++++@++@++@+++#+++#",
"@@#@@@@@@@@@@@@@@@@@@@@@@@@@@@@@@@@@@@@@@@@@@@@@@@@@@@@@@@@@@+@@",
"@@%@@@%@@@@%@@*@@@*@@*@@%%%%@**%*%%**%%%@2@@2@2@*@@*@*@@&&&&@@@%",
"*2=2*22222222222222;22;222222222222-2222222222222222222*======*2",
";;;;2;:2,2;;;;,:,,,,,,,,,,,,,,,,,:,,:>:>,,,,:,::>::::;:;:;;;;;22",
"<3<3333333343334333333434446444434334333434334444333333313<3<<33",
"87788888e9qqqqqe9qqqqqeq9qqeeqqqeeqqeqqeqeqqqqeeqe8qq88888788878",
"ipiipippppppppppppppppppppppppppppppppppaaaappppppppppppppiiiiii",
"llllllllllllllllllllllllllllllllllllllllllllllllllllllllllllllll",
"kkkkkkkkkkkkkkkkkkkkkkkkkkkkkkkkkkkkkkkkkkkkkkkkkkkkkkkkkkkkkkkk",
"ruuuuuuruuuuuuuuuuuuuuuuuuuuuuuuuuuuuuuuiuuuuuuuuuuuuuuururrwrrr",
"4447456666667666777687687777777777787777787677667776774666664443",
",><>>><<3,>33>3>3>3><333<<<<<<<<<<<<33<3333333>3<3<<3<<<><<>>>,,",
"222:2;;2-;;;2;;;;;;;;;,2,;,;;;;;;;;;2:2,2;2;;;;;2::22:2,22222222",
"2*******2*===2*===**=22**2*22**22*2**22==2======2222--*-2*-@-2@2",
"&&@&&&&&&&%%@%%@&&%%&%%&%%&%%&%%%%%&*&&%%&&&%&&&%@@@@@@@@@@@@@@@",
"@@@@@@@@@@@@@@@@@@@@@@@@@@@@@@@@@@@@@@@@@@@@@$#@@@@@@@@@@@@+++@+",
"#############+++++##++@#++++++@#++@++++#++@#@#oX+++@+##+++++++++",
"OOOOOOOO# OOOO#Ooo##XXXX+#### # .###########XXXX## # # #OO#O# #O",
"oooooooooooOoooOooooXXXX    oooo    oo o#oooXXXX  ooOOoooooo  oo",
"XooXoXooooXoXooXXXXXXXXX  XooX oX   oooooXooXXXX oooooXooXoXXoXo",
"XXXXXXXXXXXoXXoXXXXXXXXX XXooXXoX XXXXXoXXoXXXXXXXXXXXXXoXoXXXXX",
"XXXXXXXXXXXXXXXXXXXXXXXXXXXXXXXXXXXXXXXXXXXXXXXXXXXXXXXXXXXXXXXX",
"XXXXXXXXXXXXXXXXXXXXXXXXXXXXXXXXXXXXXXXXXXXXXXXXXXXXXXXXXXXXXXXX",
"XXXXXXXXXXXXXXXXXXXXXXXXXXXXXXXXXXXXXXXXXXXXXXXXXXXXXXXXXXXXXXXX",
"XXXXXXXXXXXXXXXXXXXXXXXXXXXXXXXXXXXXXXXXXXXXXXXXXXXXXXXXXXXXXXXX",
"XXXXXXXXXXXXXXXXXXXXXXXXXXXXXXXXXXXXXXXXXXXXXXXXXXXXXXXXXXXXXXXX",
"XXXXXXXXXXXXXXXXXXXXXXXXXXXXXXXXXXXXXXXXXXXXXXXXXXXXXXXXXXXXXXXX",
"XXXXXXXXXXXXXXXXXXXXXXXXXXXXXXXXXXXXXXXXXXXXXXXXXXXXXXXXXXXXXXXX",
"XXXXXXXXXXXXXXXXXXXXXXXXXXXXXXXXXXXXXXXXXXXXXXXXXXXXXXXXXXXXXXXX"
};
