/* XPM */
static char *result[] = {
/* columns rows colors chars-per-pixel */
"64 64 105 2 ",
"   c #0C0C0C",
".  c gray6",
"X  c #101010",
"o  c #111111",
"O  c #101011",
"+  c #131313",
"@  c gray7",
"#  c #111112",
"$  c #0E0E0E",
"%  c #0F0E0F",
"&  c #121112",
"*  c #111011",
"=  c #121111",
"-  c #0D0D0E",
";  c gray8",
":  c #151515",
">  c gray9",
",  c #141415",
"<  c #181818",
"1  c #161616",
"2  c #121313",
"3  c #121213",
"4  c #161617",
"5  c #151516",
"6  c #131314",
"7  c #0E0E0D",
"8  c #191919",
"9  c gray11",
"0  c gray12",
"q  c #1B1B1C",
"w  c gray10",
"e  c #1E1E1E",
"r  c #202020",
"t  c gray13",
"y  c #222222",
"u  c #232323",
"i  c #1D1E1E",
"p  c #1B1C1B",
"a  c #100F10",
"s  c #171718",
"d  c #1A191A",
"f  c #1D1D1D",
"g  c #1B1B1B",
"h  c #181919",
"j  c #1C1D1D",
"k  c #1A1B1B",
"l  c #212122",
"z  c #1B1C1C",
"x  c #19191A",
"c  c #1A1A1B",
"v  c #1E1F1F",
"b  c #1C1C1D",
"n  c #222223",
"m  c #1F2020",
"M  c #191A1A",
"N  c #0E0E0F",
"B  c #151616",
"V  c #1D1C1D",
"C  c #161716",
"Z  c #181718",
"A  c #171818",
"S  c #1C1B1C",
"D  c #1D1D1E",
"F  c #171817",
"G  c #1B1A1B",
"H  c gray5",
"J  c #181819",
"K  c #141515",
"L  c #1C1D1C",
"P  c #131414",
"I  c #1A1A19",
"U  c #1B1A1A",
"Y  c #151415",
"T  c #161516",
"R  c #171617",
"E  c #181717",
"W  c #161717",
"Q  c #141314",
"!  c #131213",
"~  c #0F0F10",
"^  c #1A1919",
"/  c #1D1D1C",
"(  c #0E0D0E",
")  c #191A19",
"_  c #191819",
"`  c #0D0E0E",
"'  c #1B1B1A",
"]  c #161615",
"[  c #151414",
"{  c #0F1010",
"}  c #101111",
"|  c #1A1B1A",
" . c #111212",
".. c #191818",
"X. c #171616",
"o. c #181918",
"O. c #0D0C0D",
"+. c #151514",
"@. c #191918",
"#. c #171716",
"$. c #100F0F",
"%. c #161515",
"&. c #181817",
"*. c #1C1B1B",
"=. c white",
/* pixels */
"  . . X o O . X + X . X o @ @ @ # O . $ . X o % . . & * . % . o . X @ O o + X . . * o = o o @ o X . . . $ X o . . . o o X . . . ",
"- # @ ; : : ; ; > : , : > < < > 1 : @ X & ; : ; ; ; : ; 2 3 + : + + : 1 4 < 1 : , : 5 1 1 > > 1 : ; 3 o @ ; : ; ; ; : : ; ; 6 + ",
"7 + > 8 9 0 q w 9 e r 0 t y u t i p , a : s d f e 0 g h > w w 8 8 d g f r u t 0 0 j 9 e r t t f g e > @ < w w g 9 9 w k 9 g w > ",
"- + 1 g f g 9 e l 0 f z e 0 e e 9 g ; X : k e 8 x w 9 g k 8 w g 9 z g w c 9 9 g f k c g 9 9 v f g w : @ 8 8 < < < < 8 w b 8 < > ",
"$ + 1 g f 8 9 e n v 9 c 9 f w 9 j g : X ; g m s < 8 9 9 9 x w g f 9 c 8 < < x w g w 8 8 8 M f 9 g < ; @ < < > > > < 8 w 9 8 > 1 ",
"N + B w V f w x 9 g 9 t q 8 < f t 9 C + + Z g s d 9 < 8 w 9 w A w w w 8 8 Z f e h S b M q 9 < < < w : @ 1 8 g > 8 f 9 w s g 8 : ",
"$ + 4 8 w w w w w w w 9 g g w 9 D 8 : + 6 F w > x 9 g g G w x h w w 8 q g s w g w w w 8 g z h < > < ; o 1 < w > < w 8 8 8 c 8 ; ",
"H @ s < < > w g < < < < g 9 9 g w > ; @ ; > 8 s 8 S i b g < 8 x w d < V b < s < g J s h w w w < > > + X 1 < 8 > < < < 8 g w < K ",
"H @ < w g h w w < 8 w L f f w g c < P X ; > 8 < < < w g w 8 M g g w < 8 w z D e 9 h < g 8 < < > > Z + X 1 < w w M < w w > < > 1 ",
"H + < g 9 w 8 8 < 8 w 9 g w w 8 < > + X ; > 8 < < 8 8 8 8 w w w M w g h w 9 S g w w w k 8 8 w 8 < < + X K > w 8 8 8 8 8 I < > 1 ",
"H @ > U 9 9 8 < J 8 w U < > w < 1 5 + X 6 > 8 s 8 w > > < w w J s 8 f 8 8 9 8 < s g 9 8 8 8 9 g 8 < + X ; > 8 > 8 g > 8 9 8 > : ",
"H @ : > < s 1 1 > > s 4 1 1 1 1 > ; @ X Y : : : : 1 1 T : 5 1 > 1 1 5 : 1 Z s s s R 4 1 E 8 > > W > + . ; : : 1 1 1 : : 1 1 : : ",
"H # Q Y : ; 6 ; T : : ; ; ; + ; ; ! # X ! + + ; + + 6 + + + + ; ; ; ; + + : ; ; ; ; ; + T > 1 : ; : @ . @ + 6 6 + + ; ; + + + + ",
"H o o X X X o @ , @ o # o o o o o X X X a ~ X + o . X o o o X X o # + o o + O X X X o o @ + ; @ o o X ~ . o @ O O o + @ X o o X ",
"$ 2 1 : 1 < < < s > > w 8 < < 8 w 8 > 1 < M g 8 8 w w 8 w e f 9 > ; * 6 1 w 8 8 8 < < 8 g f g k g g g ^ 1 > < < 8 g < < 8 A ; O ",
"$ ; < 8 8 M g g 8 8 8 g w x k g g x 8 x g g g g g g k c g i i f J : X : < g 9 9 w w w w g 9 q g z f 9 w < x g 8 g f w w w < : o ",
". : < g 9 8 9 f q M < < 8 w 9 9 g > 8 g f d > 9 w J s 8 G A 8 w 8 1 o > 8 J f f 8 g g < A > g x 8 f w > < w / 8 g f g 8 > > ; # ",
"$ + < < 8 A w g < 8 w 9 w < 8 < F 8 8 8 g 8 s 8 8 8 w 8 < w w g > ; X , s 8 8 8 J < h g 8 < < < < 9 M > > < 8 < w 9 < < > 1 ; o ",
"( + < < < > 8 8 > < 8 9 8 A 8 > 1 w 8 < w 8 < < < 8 w J > w w g 1 + X ; > < < < h > < w 8 h > > < w 8 s < < < A 8 w s s < 1 ; X ",
"$ P 1 < 8 w > W 4 W > w > C g h > w w 8 8 w w g ) < A < _ 8 < > : + X B < 1 > < w < > 4 x g < 8 d > 8 g g 8 < 1 1 1 8 8 < < 1 . ",
"` + > w k < > > < > > < < 8 < 8 8 < 8 w k w w 8 J < < < > > > < 5 6 o 1 < < 8 8 < < < < < < s < < 8 h < < 8 M > A < < < < > ; X ",
"H @ < w c s s > < > F W J 8 > 8 w 1 < 8 k c w s < < < < > W > < 1 ; o R 8 8 w w < < h 8 > 1 > > < 8 8 < > < 8 > < 8 < < < 1 + O ",
"H @ 1 > > > > > < < < < > < 9 w 8 > > > > < 8 > < w < A < < < < W ; . : > 1 1 > 8 < < A > > < < 8 < 8 ' 8 < < g w 8 8 8 w 1 ; o ",
"- @ : : T > > > 1 1 1 1 1 > 8 < s 1 1 1 > > > 1 > < > 1 1 : 1 > 1 + a ; : : : : > > > 1 W > 1 > < > > < > 1 1 8 < > 1 1 1 : ; & ",
"$ @ ; ; : > 1 1 ; ; Y ; : : 1 1 1 B 1 1 > 1 T : ] 1 : : : + Q : : + X + Q + Q Q : T 1 5 1 1 ; : 1 : : : [ ; ; 1 1 : ; Q ! ; ; @ ",
"H X X X * X X X @ o X X o o + @ o o @ @ # o # # o O o o X { X X . . . o o X ~ X o o * X o # o o o @ o o X X X . . X o X X } O X ",
". 6 ; ; , 1 : 5 < 1 : : 1 > < 1 : ; o O + 1 > > 1 : : : 1 : : ; 5 : ; : : 5 : 5 1 1 1 4 > W Q Q + X o @ ; ; ; : Y ; : : , ; ; ; ",
"X 1 8 < 8 q g g e g w g g 9 f w < 1 @ X 1 w f j g 8 8 w g k w 8 g w < 8 8 w w w M w g 9 f 9 > 1 : . o ; < < < g w J w 8 s > > < ",
"} 1 8 g g w < > g _ > g 9 9 w g g < + * : < w < _ 8 > > h 8 < < < > 1 > > 1 > < < < h < w 9 < 1 : X @ 1 < w z 9 w < g g < g w 1 ",
"@ > 8 w k 8 < > g 8 < w w k c w 8 > P o : < 8 w 8 8 > s h J J h 8 J < s > 4 < J J < < > _ 8 < 4 : X + : < M w g 8 > g g 8 x 8 > ",
"! < < 8 8 > > < w M J < h < g 8 > 1 + @ : W < 9 w < > s 8 < J w g w g < > 4 < 8 8 < > 1 R > < > : o @ ; s J J < > 1 w w w > > < ",
"+ A 1 8 8 1 > < s 8 w 8 < < s < < > + o : < x A < 8 g < 4 8 8 w < < 8 < < 4 1 > g 8 < < > 1 8 > K X # ; < w g < < < < < 8 | x 1 ",
"@ > > 8 8 1 > < > 8 w 8 < < < < A > + O ; > 8 4 s 8 c J 1 < 8 x < < < < < 1 1 > g 8 < < > W < > : X  .; 4 8 w s < < < < J w 8 1 ",
"X 4 w > > s A s s > > 8 8 8 g < 5 1 + o @ 1 < s > > W > > 1 > < G c 8 J Z 1 1 > w 8 8 1 > s > > 1 X & ; : 1 < < > 1 8 h > > W 1 ",
"o > w ..< < < < > 8 g g k g d h < 1 @ X + < w J < < < h w < < < > > 1 h 8 4 < _ > > 4 1 > < 4 1 1 X o ; W 8 w s 8 g s < < 8 < 1 ",
"X 1 < > > > s > 1 J w 8 8 8 > s s ] @ ~ P Z 8 < > > > _ U < < > 1 : ; s < 1 A < 1 1 5 : > s 1 1 : X o ; > < 8 > < w 4 > < < < : ",
". ; : ; + + : 1 : 1 > : 1 1 Q ; : ; @ X ; : : 1 : 6 ; 5 > > 1 ; : K + Y , ; : : : ; ; ; ; : 1 ; @ . # ; 1 1 Y : : ; : : Y : : : ",
"$ @ @ o o @ + ! # @ @ @ @ @ o @ @ X a ~ # @ @ @ @ o @ + ; + + @ @ @ o o o 3 # # + o X o o o o X X . . X o o o & @ @ + + @ o o o ",
"- # o 2 6 + + + 2 @ @ @ @ @ @ + + @ o o + + + @ @ @ ; ; ; + + 3 o o X o @ ; ! @ ; + @ @ @ @ @ = o o @ @ o o o @ @ + ; ; @ @ o a ",
"H @ 1 g f x w w g w 8 > > < g w 8 9 w < g g 9 8 8 w 9 g 8 8 8 < P @ @ 1 8 g w w g g 9 w w w e k 8 w 9 f 8 8 8 8 8 < 8 8 J 8 X.a ",
"- @ : < M w 8 8 9 c 8 > 8 k w 9 9 x h < > < w 9 w < h 8 w < < > ; + @ 1 8 g 8 8 w 8 h < < 8 8 < < < J J 8 w w > 8 k 8 8 8 < : o ",
"H @ : > < M < < g w 8 > M g M 9 j h J J > < M 9 w A > < w < s > ; + o > 8 w 8 < 8 < > > < < < < < < > > M 8 x > 8 g 8 < A > : o ",
"H @ B s J J > > A < < > < < > > A J < J w 8 < 4 > 8 s > > A < o.; @ * > 8 > < < s > > > < 8 9 w 8 > < 8 8 > 1 < < < > > > > ; . ",
"H @ 1 < 8 8 8 8 < > > < s s A < < 8 8 8 J J h > 8 g < < < 8 < > ; @ X 1 _ x J A > > > 8 8 8 8 8 8 > < 8 < < A < < < < J s > ; . ",
"H @ 1 < 8 < w w < < < 8 < > < 8 8 8 8 8 < _ 8 s x g 8 8 8 8 < W ; @ ~ : < g 8 < < < < w 8 h > < _ s < < W < 8 < < < w 8 < E : a ",
"O.o : 4 > < 1 > g 9 g > < 8 > < h 1 8 g < > W w 8 < < 8 w W < w + O . > 8 1 s J g J > > < < > > > 8 < > < > 1 > s A w 8 1 8 > . ",
"O.# 1 > s < < < 8 8 h > E > 1 < 8 > < h > > > < 8 8 < 8 w < < < + o . : < > s s < < < > > > > > > < > 1 4 1 1 8 8 h 8 8 < < 1 . ",
"- @ 1 > < 8 w 8 > 4 1 > R 1 : < 8 < > 1 1 > < 1 J g < 8 w 8 < 1 + o . ; 1 > > 4 1 < 8 < > > < Z > 1 1 1 : 1 1 8 8 8 < < x > ; . ",
"H # : 1 1 : : : ; + + , : ; ; : 1 : : ; + ; 5 : B 1 1 1 : : : : o { . @ + ; ; ; ; ; ; ; ; ; 1 1 T : ; + ! +.1 ; ; : 5 : Y ; @ . ",
"  X @ 3 3 @ @ @ o o * @ @ @ # @ + & & o X & @ 3 2 + 3 @ # @ @ @ X . . X } o o # o o o o o @ @ @ @ @ o o * @ + o o & ! @ # o O . ",
"O.X . . . . . . . . . . . . . ~ a $ % % . . . . . . . . . . . . . . . . . % . . . . . . . a . . . . % N % % N . . . X . N . . ~ ",
"o 1 1 < ^ @.< > > > > 8 ^ 8 8 > : Q o X : 1 > w 8 < 8 < > < < > < < > 8 8 > 8 8 < 8 8 < < 8 8 < 1 @ X . : T 1 < < < J < 1 > < < ",
"o W < 8 w w 8 < w 8 8 w g | 8 < > ; # X : < 8 w w 8 g 8 < 8 8 A 8 8 8 8 8 < w w 8 8 8 8 8 w g < #.+ X $.> < J < < 8 M M 8 8 8 8 ",
"O > 8 < < < A < g w w w ) 8 > < < : @ X ; 8 9 < 8 8 w h W > > > h 8 8 > 1 > w w s > > w 8 < ' < : ; o X W 8 w 1 1 > < w g < s 8 ",
"a : 1 < 8 J w g 8 < > < < < > > > : @ X + > w < s s > > 8 < < 8 1 > M s > 4 < < 1 < 8 W < 8 > > > + o o %.> < < < > A > > 8 < 1 ",
". ; > F < J 8 8 < < > > > > 1 > > : @ X + 1 8 < < h > < 8 < < < 1 C 8 > > > > s > < < 1 < 8 > > 4 ; @ o : W s > Z > A > > J < W ",
"~ : w > > 8 > 1 > E < W > > > A &.: @ X + 1 < J w g 8 < < < A > > > > > > _ > < w > > > < 8 8 s 1 : @ X : > h 1 > < < < A 4 > > ",
"a B < < 8 8 8 8 1 8 w > > > > < o.; @ o ; 1 < 8 w d 8 8 8 8 < W 8 8 s 8 8 8 < < s > > > < < < > > ; o X %.> 8 8 8 < < < _ 8 < 1 ",
". Y < < 8 8 w 8 > 8 w > < < A J < ; o X ; R < 8 _ < h < < < < W 8 8 8 8 8 8 < < > > > < < < > s > + o X ] > 8 8 8 8 < 8 w 8 A 4 ",
"H + < > < w w w 8 < W > 8 w < < C + o . + > 8 > R W < > 1 1 > < > < *.< s < < < > < 8 8 < < > < < + o ~ > < > > 8 g < 8 g > > 8 ",
"H @ : : 1 4 1 1 5 T 1 1 1 1 : : : @ X . + : 1 : : ; 1 : ; : : : 1 1 > 1 T 1 4 1 5 > > X.1 1 1 : : @ X . ; ; ; 1 1 1 1 > > : : 1 ",
"H & Q + + + + + ; ; ; ; 6 + @ + 6 o X . @ + + ; + @ ; + @ + + ; ; ; ; + + ; ; ; + ; [ ; ; ; ; Q + o X . @ @ ! ; Q + ; ; ; ; ; ; ",
"  O o X a a ~ X Q o ~ X # # . X O X a . a . % o * X X a X ~ X @ a X @ o o O X X X X a X o @ ~ X o X $.. o = & X X X X o o X o + ",
"O.o o @ 3 3 o X o o o o o o & o o X o o X O o o o o o o X * o o o o o @ @ o # o o o o o o o @ o o o o o # @ @ o o @ @ @ # + + @ "
};
