/* XPM */
static char *result[] = {
/* columns rows colors chars-per-pixel */
"64 64 31 1 ",
"  c #373733",
". c #383733",
"X c #373836",
"o c #383836",
"O c #363A3B",
"+ c #343D42",
"@ c #333F48",
"# c #334047",
"$ c #32404A",
"% c #2F4453",
"& c #2E4759",
"* c #2A495E",
"= c #304451",
"- c #1E5A7E",
"; c #2A4B62",
": c #254F6B",
"> c #24516E",
", c #235371",
"< c #1C5C81",
"1 c #146494",
"2 c #186491",
"3 c #116598",
"4 c #1887BF",
"5 c #1887C0",
"6 c #1788C1",
"7 c #198AC2",
"8 c #2997CA",
"9 c #2C9ACD",
"0 c #87E7FC",
"q c #88E7FC",
"w c #89E8FD",
/* pixels */
" .       ..  X               o               X    .    o        ",
"      .  X.  .. X    X          XooXXo       o  o      X        ",
"X. X.o oXX.  XX XXXX     X  o oOX X  X XXooo oo . XX      o  oo ",
" XX OX oXoXXX  XXXXX XXOXXXXXXoXoXoXXXXXo ooXO XXXoX O OXXX XXX ",
"XoXXOoOOO OOXXOOXXXXoooOXXXXXXXX OOOXXXOOoOoooooXXoXXOXXooOXXXXX",
"XXXXXXXXOO XXX OXOOXXOOOXOOXOOOOO OOXXXOooOOOOOoXOOOXXXXXoOXXXXX",
"XOOOOOOXOOOOOOOOXOOXXOOOOOOOOXOOOOOOOOOOOOOOOOOOOXOOXOOOXOXOOOOO",
"OOOOOO+OOOO+OO+O+O++O+OO+++O+++O+OO++O++O++O++O+O++O+OOO+O+OOOOO",
"#OO++OO#++++++++##+++##++++#++##+++++++++++++++++++##+O#+OO++++O",
"########+++@###@################@@@@$$$$$$#$#######$#$######+++#",
"#$#$$$$==@=$$=======$$==========%@%%=======$====$=$$$$#$$$=$=$$$",
"==&&&&&&&&&&&&&&&&&&&&&&&&=&&&&&&&&&&&&&&&&&&=&&&&&&&&&&=&=&==&=",
";;;;;;;;;;;:;:;;;;;:;:;;;;;:::;;;;;:;;:;;;:;:;::;;;;;;;;;;;;;;;*",
",,,,,,,,,,,,,,,,,,,,,,,,,,,,,,,,,,,,,,,,,,,,,,,,,,,,>,,>>>>>>>>:",
"<<,<<<<<<<<<<<<<2-<<<<2<<<<<<<<<<<<<<<<<<<<<<<<<<<<<<<<<,<--<<,<",
"2112322111111313323232232112111331313111212322221221321223222222",
"8766777777777777774777777777777777747777777477447778777747444744",
"ww00wwww00wwww00ww00wwww00wwwww0wwq0w000w000ww00wwwwq0qwwwqqwwww",
"8888888878879888989888987887998898888988998888788888788888888898",
"11<3111133333131111331133333111111131311313311331111113321111<22",
"---<------------------------------------------------------------",
":::>::::::>>>>>,>>>>>>>,,,,::,:,>>>>:::>:>::>>>>::::::>:::::::::",
"**;;;*;;*:********;**;************&***********;;****;;;;*****&**",
"&@@&@%%%%%%%%%%%%%%%%%%%%%%%%%%%%%%%%%%%%%%%%%%%%%%%&@@&&@%&@%%%",
"@@@@@@@@@@@@@@@@$$$$$$$%$$$$$$$$$$$$$$$$@$@$$$$$$$@@@@@@@@@@@@@@",
"@++++@++@+@@+@@+O#@@@$#OO@O@++++#+++++++@@@O@@O@@O@@+++@+@++@+++",
"OOOOOOOOOOOO+OO+OOOOOOOOO+OOO+OOOOOOO+X+OOOOOOOOOOOOOOOOOOOOOOOO",
"OOOOOOOOOOOXOOXOOOOOOOOOOOOOOOOOXOOOOXOXOOOOOOOOOOOOOOOOOOOXOOOO",
"XX O O OOXOX OO O  OO O XXXOOX OOOXXXXOXO O XOOOOOOXO X XXXXOXXX",
"XX XO O XX O  XX OO O X XXXXXXXXXXXXXXXX   O     XOXXXOX XXX XXX",
"XXXX O  X   OXXX  OO   OXXXXX XXXXXXXXXX OO O O X   XXO  OX XXXX",
"XXXX   OX OX XX O    O XXXXXXX OXXXXXXXXO   O   O  O  XX X XXX X",
"XXXXoXoooooOoooooooOoooOXooOooOoXXXOXXXXOoOoo XXXXXXooOX XoXoXXX",
"XOXoXoOoXoOOOoOoOOooOoOoXoOOXoOOOXXOOXXOOoOoOXXXOOOOOOOoXXOOXXXO",
"OOOOOOoOOOOOOOOOOOOOOOOOOOOOOOoOOOOOOOOOOOOOOOO++OOOOOOO+XOOOOOO",
"+#+O#+#+O#O#O#+#+++++++#+++++++#++++@+++++++++++++++++++++++++++",
"#####$$$####$######$$#$#$$$$##$$$$$$@@@@$$$$$$$#@##$#$##$#$$####",
"=====$========&======&=====&&=&=%%%%%%%&===&==&=%&=%=========$==",
"**********;;***;**;;;**;*;;;*;;;;******;;*;;;;;*;*;*;;**&*&;&&**",
">>>>>:>>>>>>>>>,>>,,>,>,>,>,,>>>,>,>>>>,,>>>,,,,>>>>>>>>>>>>>:::",
",<------<<<<<<<<<<<<<<<<<<<<<<<<<--<<<<<<<<<<<<<<<-<----<,------",
"2122221121123213211111111112111111112111111231111111121121222222",
"7444444476767777777777777664777767644556777755557545555577744444",
"qqqqwq0w0w00wwwwwwwwwwww0000wwwwqq0w0ww0wwww0wwwqw0www00wwwq0000",
"9899989989989999999999999999989889999999999999998999999898888888",
"1333133133133131331333333333333111313333333113311131111111211122",
"----------<-<<<<<<<<<<<<-<<<-<<----<-<<<<<<<<<<-<<<--<----------",
":>>>>>>>>>>>>>>>>>>>>>>,,>>>>>>:,>>>>>>>>>>>>>:,>>>>>>>>:>::::::",
"********************;***;*;;****;**************;;**;*****&&**&&*",
"======%%=&%%%%%&%%%%%%%%%%%%%&%&%%%%&%%%%%%%%%%%%%%%%%%%%%=%==%=",
"################$$$$$$$$$$$$@@@@$$#$$$##$$######@@@@@$$$$$$#$$+@",
"++++++++#O#++++++++#++++++++++@++#+++##++#+++#++++++++++O+O+O++O",
"XOOOOO+O+OOOO+OOOOOOOO  OOOO+OOOOOOO+OO+OOOO  XOOOOOOOOOO+OOOOOO",
"XOOoXOXOOOOXXOOXOOOOO.  OOOOOOOOOXOOXOOXOOOO  XXOOOOOOXOXXOXOOOX",
"XXXXoXXXoo XOOXXXXXOX.  OXXXOXXXXXOOXOOXXXOO .  XXXXOXXXOOXXXXXX",
"X oXoXX oo.ooXXX X.XXX  XXXXXXXXXX X X  OO      XXXXXXXX.oXXXXXX",
"        oX X .X                  XX  X X     .      .   o.. X   ",
"         .                       X  X        .  .               ",
"         ..   ..                    X.X     ..    ..       o  . ",
"         .. .                        ..     ..  .   ..   .  . ..",
"                                                   .            ",
"                                                                ",
"                                                                ",
"                                                                "
};
