/* XPM */
static char *result[] = {
/* columns rows colors chars-per-pixel */
"64 64 43 1 ",
"  c #1C1E0B",
". c #1E210C",
"X c #21250E",
"o c #25280F",
"O c #28290E",
"+ c #232710",
"@ c #262A11",
"# c #292D12",
"$ c #2D3315",
"% c #2F3817",
"& c #2F3718",
"* c #2F3818",
"= c #313616",
"- c #333917",
"; c #383B17",
": c #313718",
"> c #343B19",
", c #393E1B",
"< c #363E20",
"1 c #3A3F20",
"2 c #37401C",
"3 c #3A411D",
"4 c #3D4322",
"5 c #3F4823",
"6 c #41451E",
"7 c #414624",
"8 c #444A26",
"9 c #484B26",
"0 c #454B29",
"q c #494E2B",
"w c #4C512D",
"e c #4E5331",
"r c #515532",
"t c #555936",
"y c #595B36",
"u c #575B38",
"i c #5A5D3A",
"p c #5E613F",
"a c #60623E",
"s c #5D6040",
"d c #626541",
"f c #6B6E4A",
"g c #70714F",
/* pixels */
"XXXXOXXXX.X.XX.XXXXXXXX.XXXXX....X.XXX.X......X.X.o..XXX..XX.X..",
"Xo=----->>--2-----====;262==$%$X.#-22--2-%---2--2-2%-;-%--%---%o",
"oO-3y3-,32>>2333>>>>;>y9332=05$X.$322223w2>>2232222233>-32;r32-o",
"OO39850,22223>;>->>>-89322398>$oX-233-233232233392%222>392-332%@",
"O#;,3e3>>>2-;;%-----i9,,2%%2>>%+.#22222%->22>37>32-%-2->3;2-22=O",
"XO;;,r>-222w--$--,,ea9q1=32%>>%X+$>>2-%--,>>>>,=29>--2w0;2;-36%.",
"X#-;-3,:>>3322-%-q,75>,,$-2->*$+.$>**58%,7:=;>>--2--%3y,;-3;=2=X",
"XO=----;-------$&4>=;;;=%%%%>2%o.#>2*23->,%=;;==-=$-->2,-r3==$=.",
"o#>>::<*--==-=:&&$>:>=;=:--,,-:@+$2**>*>->&$=$==>-:=,8>:-9;=-=#o",
".#;,>:$&=-=>-=%$:::=-=>1<*->&%#X.%>**2**>>>*&-:=>->->7,#=;;;;$OX",
"X#-->>5&%-->4>%#:>>:===:>*>=$$#X.$2*,:5q>>>*:,,&:,::=$>>$===%%O.",
"@#:-,w5*5=>3,,&#:;>>====>2:>==#o.$**::48>>50:&$$$&:%>5:>=O=7:-#X",
".#>>*4**4**<$:$#-:,>-=$=-*&---##X%%$%=-&**>,-:#$$&-&>,::=$-6:=#X",
".#&&@+#&$##@@$#@$@$$##$$$##$###OO#$$$#@$$$$O#%$#$$$$###$===####.",
".. ..++....@@@@.XXXXXOO+XX.+XoXX..+.+XXX.XXXX@oX.+.+XOXXXXXXXXXX",
". .       ....  X    XX...   X X....      .   .X ..+XXX.  .. . X",
":&$$$=$$$$$=#=O.XO>=$$$$%$$$$$$$###==$$%$$$$$#o.+$$$$$==3===$$O=",
"5222-;;>,,2,;;$XX=933>>>2223>;,>;;;--;,>45-2,># X>,,3>3w0322;;;3",
"->>37-->:::>-3$.X=>,22--*->-=--==;;==;>%4e4-3-#XO->6>->0>2>>;=-;",
"*>>>9>-3,$$$$,$. -,-*%%32*,,-=$---;=35*>15,=,;#.O>>7>***>>>8===-",
"2,>>-;--$:07#=#XO->>>5552&22&&$,-$=$5q*>:%>4>-#.O>>$--**-&,7==->",
">>---;-%7:e0$;#OO->**pt24,%---*&47-,,*>:--48==#.#->4>--5-$&%=%--",
"*,-&==-,r1::$=#+.%>->54*82**>>-&88$58*:***5>#=#.X-20%*>0:&=-***2",
"**-=-5--,r1:=;$XX%*&>2**$%&,>**:*$$%:*:**50&::#.o>>%>%*%>>%%%%%*",
"24&%:0=;19:::;#+X%--2>>>5:&52#&:,&&*<54&7r1>==#X@,>:>:$;,>>=#&4<",
"28--=$====::=;$OX%-,>**>7,&2>$*&:-*&4e4*0s9>==OX#;:$:<::>=1:7:5:",
"-*--=;=1==;;#;=Oo=>>*>>*&-::**$$*&$$44#*90:;;=X.@>>$>$$:##$,s<:&",
"->>-;;;9;;:;=1##X=>>-*84&4-%>*$$:-$#<4&->==;7=o.@,>$:#$===,:4:7:",
"$$==$==#====1;#+X-=-*-**&$$***&&&&$#$*&*;=$#$:@ @>$$##<$$:7##&$$",
"-#==OO#O#O#####+X%$%#$$&##$*&$&$@####$#$$$#=$#@ X$$###$$####$###",
"###OOOOOOOOO##O.XX@@@@@#@+@++@#@++@#@@+@Oo###o+ .@@@oooo++@+@@@+",
"XX..XXX++X+X+X..XX.X.. .XXX.   . ... ...X...  .+  + .X......... ",
"XXoOOO@#O#@OOOXXOOOOoooooOoo+.+++++@@@@@#OXOXOOXo#X@oX#oooOOoOX.",
"XO-,33>>,--,;;;;>2-;2>2222-32%#+.#*22*22>>2>2>-22-->--2-22>>3>%X",
"X@;-;>,wq>>>,;;#r3-->3362;%-%%@++$44>55*>->,%--2022-22->23>32;$X",
" #;-,>>-=>;>-,;===-%;24pw222%%@+.$55*>*48-25->>-2-2*>2222-3p-=-X",
"o#>;e--*=>>--8-=->--->epfa82*$@+.$2>**22=>--->;#%->-4dt-----;-$X",
"o#,,-*>,4yw,-,-=-q;=-**e37322*$+.$>%****:::=---=-%>>>22%--%-;-$X",
"X$>>-&-qq,>0>-==>>:=&,2*%*2222@+o$>>2*>>>=,;;;==%$2e2>%-3y3;-=$X",
".$>>4->4:%===-===:&-&0e>$%*322@+.$>>%-3-;-1t0>-=-%%>>%2-2rw>;;$.",
"X$*-,e>---:-8,->-%---44****4*$#+o$22>*>-30>3;-=>w%>*2*$4t,>-2;$X",
"X$--&:--&*>q:&->$=0,4>**44$$*<$+X%-->%->>-==---=>22****2,-$->=$X",
"X@--=%%%*ee<*:*%%-::*&$%<**42*#@X$-%-*%4r2=;---=%3>$*45*$>->;$$X",
"@#-->$--20*&*:&&-===8>$$&*$54##+XO%->**34=;=4p0:->%*24**->8>$=$X",
"o@:>$$:-,:&$$>#=-=:05&&&$4**%$$X.$>--%>4>&%<e7:&%>-=***4**<q7-$X",
"X@>>$$$>-&<$$=#====>$$&&%**$$$$X.#>-%%*--&&&,:$&%$%$*****$&*-%$+",
"+@:####&$$&$########&$$###$###$XXO=$$$$%%$$$#:$##$$#$##$$#$#$$$.",
"@@###@#@+###@@XOoo#@@##@##XX@#OXXXOOO####@@@@###@#@@+@@@@#####X.",
"X+XXX XX  . XX..XX.  XXo. .XO..XXXXOXX..X.  .X++      .  oX. X  ",
"XXXX XX...X..X.....X XXXXX.XX..XX.XXX.XXXXXXXX........   XX XXXX",
">-==---===%-==#X.#--;=;;-=;;--%>=$-$$->--=$==$+.o=$$%=%&==-;====",
"33>-,3,>;>8,;;=XX;--;;;;;,,;2232>977w;32,>*,5-@ O,300-*2,323;=;;",
",,4w,;:>2-4>;=OXX--8,==03>>>>>2>=ya84*>-->3>1$+ O>>5,%*>-2>>;w--",
"--4u>:%-->=====oo-;7,,=yq-*22>>>-382$*220fa0,=@ X,-%,8>w>---;6->",
"%%-,>:--:-:-6;#O@--%>,=42--*%**>-$$%$*4t9pgw::# X>-%4u:5%>e7-=;;",
"$=:%,7>>7-::;=$XO;->--==%>2&%>q5$%$54#0s--8=#=#.@-%$*1-**,i2--;3",
"=:;=1q=;44-$%=$X@>6,$>:=2<**<*54%-**4*54======#X@>20&%::>*4==>:>",
";:==;1=1>w>#$:$XX:,;>;::42*&*&&*->#44*<$=;==;;#.@>27::&&-%$$==%=",
"::==;==;01:$:=#X+%-*->#$**45<***%$$4<&**--$=;;# @,-%-%,0>->=$1>$",
"==;;;==;,$%%=##X.&-&#>7,$$ee<**@$$##$&45>=;7;;# O>-$=&&4,>;4&,=$",
"1;#;=;7=#=0;==#.+$*$$&2&$$2*&&&$$$22#$24--,4--@ @-,0$:$$::-<&$-:",
";=#O#=1O#:7=###X.$&$@&@$##@@+&&&$+<2#$#$&&$#&$@ +=,5#=:1:&$$$$>=",
"O##=O#OOO=o##@OX @$&##+#++##+@@$+@+$&@@####@$@+ +####=$>$#$$$$#@",
"+OOOOXOOXXXX++... ++++.++++++++++++++++++.+++++  @@@@@@+@@++++++"
};
