/* XPM */
static char *result[] = {
/* columns rows colors chars-per-pixel */
"64 64 51 1 ",
"  c #3C342C",
". c #41372C",
"X c #45392C",
"o c #4B3C2C",
"O c #513F2B",
"+ c #55412C",
"@ c #5C442B",
"# c #60472C",
"$ c #63492C",
"% c #6C4D2C",
"& c #6F502D",
"* c #7D562B",
"= c #7F582D",
"- c #81572B",
"; c #81592D",
": c #895B2B",
"> c #9B672C",
", c #9D6A2E",
"< c #9E6C30",
"1 c #A0662A",
"2 c #A46B2C",
"3 c #AB6D2A",
"4 c #B26F29",
"5 c #B57129",
"6 c #C9832F",
"7 c #C78330",
"8 c #CA8631",
"9 c #CE8832",
"0 c #D28A31",
"q c #D98E32",
"w c #D79437",
"e c #D99236",
"r c #DA9638",
"t c #DE9B3A",
"y c #E19D3B",
"u c #E2A23E",
"i c #E8A23E",
"p c #E6A540",
"a c #E9A741",
"s c #ECAA43",
"d c #F0AF46",
"f c #F5BB4C",
"g c #F8BE4D",
"h c #F7BF50",
"j c #F8C04F",
"k c #F7C050",
"l c #F9C454",
"z c #FCCB5B",
"x c #FED05F",
"c c #FED362",
"v c #FFD868",
/* pixels */
"                                                                ",
"                                                                ",
"                                                                ",
"                                                                ",
"                      .                       X      X          ",
"     .  X X     ... ..       X  X       X  . X          X X     ",
"  ... .. XX X   ........   XXX XX  XX     X XXX   XXX X X  X    ",
"  ..XXX.XX XX   .....XXX  XXXXXXXXXXXX  XXXXXXXX  X XXXXXXXXX   ",
"XXXXXXoXXXX+ XXXooXoXXXooXXooooooXXooooooooXXXoXooXXooXXXXXoXXXX",
"oooOooOO++ ++ooooooooooooo+ooOoo+o+ooooooo+oo++ooooooooooooX+Xoo",
"OOOOOOOO+++++++++++++++++++++++@++++++++++++++++++++++++++++++++",
"########+@######@#@@#####$####$$&############################+#+",
"%%&%&%%&&&&&&&&&&&&&&&&&&&&&&&&&&&&&&&&&&&&&&&&&&&&&$&&$&&&&&&&#",
";;;:--;;===============================&===&===&=;===&==========",
"22221<<<<<<<<<<<<<<<<<<<<<<<<<<<<<<;<<<<<<<<<<<<<<<<<<<<<<<;<<<<",
"eqq000009998w9998888888888888889u88wu888u888w888877w77787777777w",
"vvvxcxxxjlzxzzxzzzzzzzlzjjlllllzllllljljjjjjgggizkkkjjjfjjjjffff",
"dssssaaaiqiiiiuuuuuuuuuuuuppppuuuuuuuuuuuuuuiyiquuurtttttyttytty",
"544443334414333333333333433333322233223322333314<<<<222222221131",
":::;-:;-----;;===;====:=***:==============*:**--;===-**-*-------",
"%%%%%%%%%%%%%%%%%%%%&&%%%%%%%%%%&%%%&%%%&&%%%%%%%%%%$%%$$$%$%$$%",
"@@@@@@@@@@@@@@@@@@@@@@@@@@$@@@@@$$$@@@@@@@@@@@@@@@@+@++@@@@@@@@+",
"OOOOOOOOOOOOOOOOOO+OO+++OOOO+OOOOOOO+++O++OOOOOO++o+OOOOOOOOOoOo",
"ooooooooooOooOoOoOooooooOoOOoOooooooooooooooooOoooooooXooXXXoooo",
"XXoXXXXXoXXXoXXXXXoXoXoXooXoooXXooXoXXoXXXoXoXXXXXXX... XX.XXXXX",
"X..X...X.XXX..XXXXXX..XX.X.X.XXXX.X..XXX...X.X...XX.. . ........",
" ... .  ......  ...... ..XX...  ..........  . ........  ........",
" ...    . .. .   .... . . ....  . . . ..    .. ...   .  .    .  ",
"                 .                                              ",
"                                       .                        ",
"                                                                ",
"                                                                ",
"                                                                ",
"                                                                ",
"                                                                ",
"                                                                ",
"                                           .                    ",
"      .        .    .       .            .   .                  ",
"       .     .       .. .   ...            .....                ",
"    ...     .....   .....   ...X..      XXX.. ..       .        ",
"  XXXXXXXXXX.XXXXXXXX.XXXXXXXXXXXXXX..o.X.XXX.XXX..X..X. .XXXX..",
"XXXXXXXXXooXXoooXooXXoXooooXooooooXooooooooooooXoooooXooXXXXXXXX",
"oooooooooOoooOoOo+o+++OoOoOooOO+OOOoOOOOOOOoOOooooOooooooooooOOo",
"O++++++@++@++++++++++++++@++@+++++++++O+++++++@+++++++++O@O@OOOO",
"#@#$$$$@$###@###@@#@####$$$$#$$#@$#$####$$$@$@##$@$@@@@@$@@@@@@@",
"%%&&%%%&&&&%&&%&&&&&&&&&&&&&&%&&%%&&&%&&%%%%%&&$%%%%%$&%%%%%%%%%",
"===========================*====******=*=======***==************",
"23222,2,2,,,<<,<<<<<<<<<,,,2,,,,212,,,,,,,,,,,,,,,,,>>,>>>:>>>>1",
"tww0q00009009999999898888889888888888866888866667777667777676666",
"xzzlljlllljjjljljjjjjjjjjjjjjjjjfffjffjffffffffffffffffffdfffffd",
"uuutqttqtttrrrtrwwwwwtwtwwwwwwwwwwwwwwwwwwwwwwqwwwwwwwwwwwwwwwqw",
"433333312,1,2,,,,2222,,,,22,>,2122,2,221,,1,>211,>,>>11111111111",
"*:**********************===*==**********************************",
"%%%%%%%%%%%$%%%%%$$%%$%%%%$%%%%%$%$%%$$%$%$$$$$$$$$%$$$$$%$$$$$$",
"@@@@@@@@@@@@@@@+@@+@@@@@@@@@+@+@@+@@+@@@@@@+@@@@++++++@+O@O@@O@O",
"OOooOOOOOOOOOOOOOOOOOOOOOOOOOOOOOOOOOOOOOOOOOoOOOOOOOOOOOOoOOOOO",
"ooooooooXoOXoooooOoOoooooooooOooooOooOoooooOoooooooooooXXXXoXooX",
".X.X.o..XXXXXXXXX..XXXoXoXooXXXXXXXXXXXXXXXXXXoXXXXXX...XX...X.X",
"...... .......X.... ..X.....X...X.....XX........................",
" .....  ..........  ..........  ..........  ..........  ........",
"            .           . .         . .         .               ",
"                                                                ",
"                                                                ",
"                                                                "
};
