/* XPM */
static char *result[] = {
/* columns rows colors chars-per-pixel */
"64 64 240 2 ",
"   c #1E1D1E",
".  c #1E1D1D",
"X  c #1F1E1F",
"o  c #212021",
"O  c #222122",
"+  c #242324",
"@  c #232223",
"#  c #222121",
"$  c #1F1D1E",
"%  c #201F1F",
"&  c #201F20",
"*  c #1F1E1E",
"=  c gray12",
"-  c #1E1C1D",
";  c #1D1C1D",
":  c #212020",
">  c #252425",
",  c #211F20",
"<  c #232222",
"1  c gray13",
"2  c #232122",
"3  c #201E1F",
"4  c #202020",
"5  c #323133",
"6  c #353335",
"7  c #373637",
"8  c #383738",
"9  c #383739",
"0  c #363536",
"q  c #363537",
"w  c #353435",
"e  c #373537",
"r  c #343335",
"t  c #302E2F",
"y  c #2F2E2F",
"u  c #2E2D2E",
"i  c #2D2C2D",
"p  c #333233",
"a  c #343334",
"s  c #383638",
"d  c #363436",
"f  c #2B2C28",
"g  c #292B26",
"h  c #2A2C27",
"j  c #2B2D28",
"k  c #2C2E2A",
"l  c #2C2D2C",
"z  c #2C2C2B",
"x  c #393839",
"c  c #3A393A",
"v  c #393739",
"b  c #3A393B",
"n  c #3A3A3B",
"m  c #373638",
"M  c #302F30",
"N  c #2F2F2F",
"B  c #2C2B2C",
"V  c #353436",
"C  c #3A383A",
"Z  c #2B2D29",
"A  c #2D2F2B",
"S  c #2F2F2E",
"D  c #2C2C2C",
"F  c #222221",
"G  c #2B2A2B",
"H  c #2B292A",
"J  c #2D2B2D",
"K  c #2C2A2C",
"L  c #313031",
"P  c #2F2D2F",
"I  c #2D2C2E",
"U  c #323132",
"Y  c #292829",
"T  c #292729",
"R  c #2A292A",
"E  c gray14",
"W  c #252525",
"Q  c #262526",
"!  c #343233",
"~  c #2B292B",
"^  c #2B2A2C",
"/  c #2F2E30",
"(  c #302F31",
")  c #2A2A29",
"_  c #2B2B29",
"`  c #242423",
"'  c #232323",
"]  c gray16",
"[  c #282728",
"{  c #343234",
"}  c #2A282A",
"|  c #2C2B2D",
" . c #302E30",
".. c #2F2D2E",
"X. c #2E2C2E",
"o. c #282627",
"O. c #282828",
"+. c #2E2C2D",
"@. c #2A2A28",
"#. c #2A2B28",
"$. c #292B27",
"%. c #282925",
"&. c #232322",
"*. c #252524",
"=. c #272627",
"-. c #222222",
";. c #262525",
":. c #2C2B2B",
">. c #272526",
",. c #333133",
"<. c #282729",
"1. c #2E2D2F",
"2. c #2A292B",
"3. c #2A2C29",
"4. c #242524",
"5. c #242223",
"6. c #333132",
"7. c #282628",
"8. c #2D2C2C",
"9. c #2C2C2A",
"0. c #252424",
"q. c #2A2829",
"w. c #242323",
"e. c #292A27",
"r. c #29282A",
"t. c #222322",
"y. c #292728",
"u. c #2B2C29",
"i. c #272727",
"p. c #2C2C2D",
"a. c #2A2A2B",
"s. c #312F31",
"d. c #323032",
"f. c #212120",
"g. c #2C2A2B",
"h. c #313032",
"j. c #2D2D2E",
"k. c #242425",
"l. c #262425",
"z. c #272626",
"x. c #242325",
"c. c #282829",
"v. c #252324",
"b. c #1D1D1D",
"n. c #1E1E1E",
"m. c #1E1E1D",
"M. c #20201F",
"N. c #1F201F",
"B. c #1F1F1E",
"V. c #2E302B",
"C. c #2C2E29",
"Z. c #2D2F2A",
"A. c #2D2F29",
"S. c #2D2E2B",
"D. c #2B2C2A",
"F. c #39393A",
"G. c #292A26",
"H. c #202120",
"J. c #323232",
"K. c #2F312D",
"L. c #2E302A",
"P. c #2E2F2A",
"I. c #2B2D2A",
"U. c #2A2B29",
"Y. c #3B3A3C",
"T. c #3C3B3D",
"R. c #2A2B27",
"E. c #2D302B",
"W. c #212221",
"Q. c #343434",
"!. c #2C2D29",
"~. c gray20",
"^. c #292828",
"/. c #282A26",
"(. c #222321",
"). c #373536",
"_. c #2B2A2A",
"`. c #2A2A2A",
"'. c #242523",
"]. c #232423",
"[. c #272825",
"{. c #282727",
"}. c #222021",
"|. c gray15",
" X c #262726",
".X c #2E2D2D",
"XX c #2C2D2B",
"oX c #2D2E2C",
"OX c #2A2929",
"+X c #262426",
"@X c #272527",
"#X c #262627",
"$X c #232324",
"%X c #1F1F20",
"&X c #39383A",
"*X c #2A2C28",
"=X c #2C2D28",
"-X c #313131",
";X c #3B3A3B",
":X c #373737",
">X c #2C2E28",
",X c #2B2B2A",
"<X c #2D2E2A",
"1X c #282926",
"2X c #272925",
"3X c #272726",
"4X c #282927",
"5X c #312F30",
"6X c #2D2B2C",
"7X c #272628",
"8X c #252325",
"9X c #252625",
"0X c #29292A",
"qX c #2A2D27",
"wX c #2F302E",
"eX c #2F2F2D",
"rX c #262824",
"tX c #252623",
"yX c #2C2D2A",
"uX c #30312F",
"iX c #313230",
"pX c #211F21",
"aX c #262724",
"sX c #262527",
"dX c #272826",
"fX c #252426",
"gX c #222123",
"hX c #30302F",
"jX c #2E2F2E",
"kX c #282928",
"lX c #282827",
"zX c #363535",
"xX c #333234",
"cX c #2E2F2B",
"vX c #292928",
"bX c #2E302C",
"nX c #222022",
"mX c #242224",
"MX c #232123",
"NX c white",
/* pixels */
"      . X o O + @ # $     % & & X X *   * .   * & X $ . = % -     % X X o & ; ; ; . * *   X O O : & & % ; - * X - ;   - $   . ; ",
"X X & : o O + > > + O o o & o O O O o o , o : & # o & : : : & & %   : O < # 1 o & o & & o # O < O 2 O o & 3 % 4 = * % & % =   ; ",
"4 O 5 6 7 8 7 8 8 9 7 0 0 0 q 8 7 8 7 w 0 e 0 6 r 0 e w t y u i O # p a w 0 s 0 0 w 0 7 8 7 0 d 8 8 e 0 w w f g h j j k l z 1 X ",
"% @ d 0 x c v c b n 8 8 c 8 8 x 7 8 8 8 m s x 0 0 8 x d M N y B # O q V q 8 c s d e c C b v x x c c 9 8 q 0 Z h j f j A S D F = ",
"% o a w G H u i a 6 J K B u L L K G i P M I U u Y T R Y E W R Q 4 o a 0 y M ! M R ~ ^ B G ~ M / / P ( P ) _ h h ` ' ` ` ] [ 4 4 ",
"% o p { R } K | U  .G ^ R B y y R R K u ..X.y i [ o.[ [ ' E O.[ o # p a / y / B Y Y G G G G u u +.u u i @.#.$.%.&.*.W > [ =.-.o ",
"% o { w R Y M i R R } Y u y B Y Y Y I u R R [ [ Y Y > ;.:.G >.[ & & L ,.L u <.[ u u G R y L  .1.Y R 2.} 3.$.4.&.` E B i [ =.> 5.",
"% o 6.a ~ Y u i T Y [ [ B I G [ [ T X.u R [ 7.=.] G W E B G [ =.& & L ,.y ^ =.T u i Y R u / y y R Y ~ G 8.9.-.1 ' W X.J <.=.0.@ ",
"% o p w i G Y Y u u i B [ [ Y Y Y Y Y T Y q.G Y w.&.e.3.O.q.R Y : 1 a 0 B r.u y R Y B | } Y Y [ ~ B y 1.^ Y t.-.R K y.[ } [ : X ",
"X o a w u G [ Y y u i B [ [ [ [ } 2.R Y Y Y G Y 1 &.u.u.i.7.[ [ , O { w p.B y u G R 1.u r.Y Y [ R B y | =.W -.&.G B } Y G Y % . ",
"& : p w G [ T Y P u a.Y u X.R Y s.d.L y G Y E ' ' E O.y.> > Q Q : O w w u i 2.G P y / P } K d.L y 1.i ~ 0.f.-.w.i u P i <.> X ; ",
"& o U p Y Q Y Y i u g.~ u M R T ( L h. .B q.> E w.E =.[ > > Q Q : o L a i i B K u M L 1.G B M d.u j.R y.@ 1 -.0.J i i g.Q 0.* ; ",
"% o G G + + =.T G } >.Q + Q [ [ Y R G q.Q + w.> E + O O > Q [ Y & o Y 2.+ k.Y R } Y Q l.Y R R ~ G B Q O < 1 Q z.> @ @ x.Q Q & * ",
"& : Y [ O < i.R R =.@ # 1 @ Q =.>.Q [ Q + + + ;.+ @ : o + =.Y [ O o z.T + O =.Y Y [ @ O [ c.=.T G Y O o 1 1 W =.@ O & o v.+ o & ",
"= 3 o & b.b.b.n.= = n.n.X = = 4 o 4 =   4 4 4 & n.n.& & = X = & o o O o o o 4 4 1 -.4 n.= 4 4 : # o : =   n.= & % & n.  * % X   ",
"O O 1 4 n.= = m.= 4 M.= N.M.n.B.= n.n.& 1 # 4 & & = O o X X = & O 2 ' < < O 4 B.B.N.M.= B.B.n.= % 4 -.O 1 & = % 4 o & o & & = % ",
"8 7 V.C.Z.C.C.j C.Z.A.C.C.V.S.D.1 1 u U V x 7 w w a 8 F.x 0 0 0 s x 8 x x s k h G.$.C.j C.f 1 H.1 + w 7 w w Z.j J.V a p U p h.U ",
"9 8 K.C.Z.j j h j C.L.Z.Z.P.I.U.1 @ p V 7 c 7 8 q w Y.T.c e w 6 x c c 8 8 8 Z.j f R.C.E.Z.C.W.4 4 < 8 c 0 Q.C.!.~.0 p p ! U d.U ",
"B B u u R ^.f $.F &.G./.(.W.F f.4 @ 0 ).J G G i / U s.y q.[ Y r.} g.u G L L U.$._.`.'.].&.t.H.f.= o 0 0 R [ R R Z k y / G [ T 7.",
"R B u P 2.Y $.R.1 4 [.[.4 4 W.f.: 2 d w ^ } R G ( M u K [ =.[ =.=.G X.G L i e.$.`.R F f.t.t.-.-.& o a 0 Y =.R ] R.f  ...[ Y [ =.",
"Y } } } J u E ` ].-.F -.O.{.' @ o }.! 7 i H y M L u Y [ B ^ 7.=.G y G G u g.> z.q.R ` ` O.|.' ' & o w 0 ^ R Y [ G G [ [ G B Y R ",
"T [ T } g.i ;.&.&.f.E E Y o.Q =.: o p d ^ G y M y B [ Y u P Q Q i  .~ R R } Q =.G G  X XY =.+ + o o 0 d B q.=.[ G R [ [ J G Y Y ",
"T } u y } q.B R ' 1 D .XQ Q R G & , 0 8 R G p p R Y y i Y Y Q =.y y =.[ Q ;.[ Y u u XXU.i.T G G , & w ).R [ =.=.K i i u R [ [ Y ",
"Y R u y R [ R _.' 1 B B [ {.R R & & a 6 G G p y R H y ..Y [ >.7.i B [ [ l.> [ [ B y oX] Y r.G } 3 o a w G y.[ [ B J i B <.[ [ [ ",
"R Y Y G B B Y `.&.1 ^.[ R OX=.> & o U U / u R G X.y t s.M +.[ [ [ y.i J > + B B Y [ } R G G =.+ 3 , y  .X.B [ 7.[ [ T [ K B [ q.",
"Y T Y G u X.[ i.-.-.Y Y Y y.Q > , o y M i G Y Y i L L L L u 7.Q Q Q B J v.+ G i Y Y } r.~ K +X@ & : u u u B =.@X=.o.Y [ G J [ =.",
"Q > > Q Q 7.=.+ -.O + v.v.> Q > & o [ [ =.[ 2.R } R [ z.> v.Q v.@ @ @ > Q >.#X7.=.> Q =.> + < @ % o Y [ + @ =.=.2 }.O @ > + ;.l.",
"@ O < o < Q Q @ # o O O O @ $XE & 3 =.Y 7.Q R Y [ =.+ O < @ Q =.}.& 4 : @ + + + @ O @ > 0.E @ @ & & =.Q O o > > o X & % O @ > > ",
"X X % = X X & * = & = n.* % X X   X o @ o 4 o & X X n.  * % & : n.. % = o @ & X & & X   X o &   * * & &     X * X   . -   * $ $ ",
"% * # }.& & o 3 : o o & & : O 1 % o o o & % = n.b.n.= * = 4 = *   * : < O < 1 # O o 4 & o 4 & n.%X& o & & % = & X X n.* * * - ; ",
"@ > ,.,.&Xb c &X0 q 0 m &Xe 0 e e 0 j *XZ f *Xf f C.j f j =XXXD.1 & u { 7 e r e v 8 V w 8 x 0 w w d 6 6 a 6 w 6 p -X!.h C.!.].1 ",
"@ x.r d &Xb b ;X0 0 m c x x m 7 v :XZ.A C.k j j C.C.>Xh C.C.,XD.o o p 0 9 &X6 d ;X;Xa a s 8 8 7 0 w w d e m 6 w q Q.<XC.Z.<Xt.1 ",
"o @ d s X.~ | u M p i i M U L ( R R Y Y Y [ t.f.f.t.R./.W.F {.[ o o p 6 B B (  .i G ..M / J ~ B  .y Y Y [ [ X.B B R u.*X` f.M.= ",
"o @ w 0 B } ^ K y y R K M y P B Y Y T [ [ [ W -.: f.1X2XW.1 ^.[ o O p w } Y P 1.K R y  .P G Y R  .i 7.7.=.[ i B ~ T e./.t.1 o & ",
"1 @ 7 0 G H M u R Y } R G G H Y u L y u Y T i :.&.F F &._.] + + # O { d G T Y R i G Y R T [ | B K G Y Y ..u 7.[ `.,X&.F 3X{.-.O ",
"o @ d 6 G ~ M I } R R } Y R Y Y u  .P K Y ~ i G F F ].W H Y z.E O O w s g.Y G } u u [ Y T Y i u G r.Y Y B B =.[ ) 4X-.-.{.=.@ O ",
"& @ d d R R L ( y y R R  .P Y Y R } Y Y J  .y u &.F f <XR [ R `.o 1 a w Y Y u i y y } [ =.Y M y u X.T T [ R i B o.w.# ` {.=.o & ",
", @ a a R ~ M L d.L H ~ 5XM } R Y T } R u M  .i &.W.u.oXG } G G o : L L Y Y u P M ..} Y [ } y J y u Y [ T y.B B =.;.t.E ^.=.& 3 ",
"o @ U U ~ Y R B G G P M 6XG [ R y u y u ^ B Q ' 4 t.R i M u =.;.O o X.u R Y Y R R G u u y u } q.} [ G R y u Y T B G Q Q =.Q o & ",
"& O y L R 7X[ Y [ [ u i } Y 7.[ u u y X.[ ;.-.1 W.E y.B +.B > + o o I P R [ <.Y T [ i | X.6XY [ Y [ [ [ u X.[ {.`.OXz.Q Q 0.& $ ",
"o o Y [ 8XQ [ [ > + Q Q v.> Q [ Y T [ 7.@ 4 F -.9X|.@ + > v.=.> o O [ [ > + Y 0XQ > T Y 7.Q > + Q l.8XQ [ =.@ O < -.Q Q Y =.% * ",
", & Q =.@ @ Q =.@ < 2 o @ < Q =.l.Q Q Q O o -.-.W z.@ O @ @ 7.@X, o Q > @ @ [ R @ o =.[ Q l.l.+ + @ @ @ =.W # o 1 1 E E > Q X X ",
"X X O o & X 1 O & & o o O O : & = & & & o o 4 = = 4 & 4 : : o o , o o & X X & & o & : & o # + < & , & X = X * X = = M.= n.* b.; ",
"O O @ @ o 4 1 # -.1 : : 4 1 = X X   % & # O O 1 4 : o # O # o o # }.O # o 4 & = : : : 4 o # O 1 X & & o 4 % : 4 M.4 = 4 = & & & ",
"x 7 8 c V 0 A qXC.C.j j C.<X` ' 4 o i P q x 9 7 wXeX0 7 w p p U a V w V 0 w A k k A A k C.A D.U.% o i I p p Z g rXtX$.<XU p U U ",
"x 7 C 9 s 7 yXj !.Z.Z f Z.k F 1 4 :  .s.d 7 v 9 uXiXq 7 d { { { 0 d a w 0 r A Z Z.A k k Z.S.XXU.O pXL M p U *X$.aXtX*Xk L d.L U ",
"L G Y ~ L M B G R Y O.O.-.4 4 1 = & { w 2.2.| J M L Y [ Y } } R R R i P 1.X.R Y w.' ] O.&.@ G R o # U U [ Q ;.;.].` ] ] R R Y o.",
" .B [ 2. .i G 2.Y T Y [ -.1 f.-.X O 6 d ^ 2.} R ( 1.[ =.[ Y R R R [ | u P u r.[ ' F 3XO.' w.R G # }.p a =.+ > E ].*.Y R <.T @XsX",
"G R [ r.r.[ Y R g.B ' f.] OX0.|.& o 6 w i i Y T 2.Y o.T B u B B <.[ Q =.T [ 7.=.z.|.1 1 i.[ {.=.o : L L Q l.G ) 2XdX=.z.l.l.> > ",
"Y Y [ [ T Y [ Y ~ G -.4 Y ] ;.|.X & p a J u Y [ T Y r.R J X.B G [ =.Q =.7.7.=.[ O.;.1 f.;.[ =.=.o : M  .[ 7.^ ) e.e.>.> Q Q +X+X",
"} Y ~ i u y R [ Y [ O W.W Q =.Q X % w 0 ^ R T } i P  .u T [ 7.=.y.[ i  .P i R Y i B F 1 &.W Y [ o : L L B i =.=.B G [ =.G r.Q > ",
"Y y.G i  .P } [ 7.=.-.-.> > z.z.& o a 6 B Y Y G u I u i [ 7.[ T T y.B y y I } Y u +.-.F + 0.R Y o : L M B G Q =.B K [ [ R q.Q > ",
"Q 7.i +.H T i 6X' 1 |.|.Q Q + @ & o M M Y Y K B G Y R Y J i i G =.=.[ o.[ Y G G Y =.f.F Y ~ + O & : G J o.+X>.[ o.[ G 6XR Y =.Q ",
"> =.K G 7.[ B G -.f.W > Q > > @ X & i u [ Y B J ^ R [ =.g.P I K Q Q @X[ o.[ B ~ W w.1 &.Y } > 1 X o G G @XQ Q +XQ Q K J Y 7.Q > ",
": O @ 2 -.1 1 1 1 4 = : @ + > ;., o [ @X+ 5.@ l.=.@X@ O Q [ Q =.@ O O + =.Q + + -.1 1 1 @ @ Q > X % > Q > @XO o Q @XQ > Q Q O }.",
"& = & o 4 = 4 4 4 H.= 4 1 @ > > & O [ fXO 1 o 2 =.=.gXO >.[ + l.o & & # Q Q 1 1 4 4 4 & o o Q > X & + + =.Q o 4 ;.sX+ @ Q +Xo o ",
"& X % X X n.= = = = = n.% & o & 3 & o : X & }.o }.O o & o o o O % & % & }.o = 4 X X = = & & : & X X & 3 o & = & 3 & & & & % X X ",
"& % o & o 1 1 : H.4 O 1 o o o o : }.O O }.O + @ # o : 1 4 % & & % & o 1 < O 1 1 4 : % 4 o # 4 & o o : o o o o O & 3 & X $ %     ",
"o @ 6.a 7 7 w V hXjXa V a { a 0 a 0 a r r 0 0 p K.L.<XC.Z.!.kXlXo o I M d.p <Xk Z j j Z.zX7 a w 0 q q a 6 a d xXw 0 e w  .u E -.",
"& O p V m 7 m 8 hXN a 6 w V 6 w w e a { V w r a cXC.j C.Z.k vXi.% & L 5 U p bXZ.C.C.f cX7 V 6.a q ).0 a r w w a 0 0 0 p L y @ o ",
"& 2 U a =.Q B [ Q Q [ T K g.=.Q 7.=.G G 7X=.@XQ R ) $./.W.1 -.1 & 2 ,.a > @ R =.=.=.=.@XR K i R =.[ Y [ =.[ Y Y 5.2 @ < @ < & , ",
"1 @ ,.d.+ @ Y @XQ > Q Q R } 8Xx.+ > Y Y > 8X+ +X} O.[.[.4 = -.-.o 2 d.L @ O Q @X+XsXQ > [ R G Y > > =.=.> =.o.=.O o & & O O }.: ",
"o O u J 5.@ O @ o.[ Q =.> > @ @ o o @ 5.@ @ > =.=.[ + # 1 O Q =.o o J i > @ @ + [ } =.Q + + 5.@ @ o @ + @ @ @ @ =.=.O 5.=.Q o 3 ",
", nXB +.mXO o }.> Q +XQ O 2 O o pXX & & & }.> Q @X=.O : o 1 l.[ o & K B + + MXO T T 7.Q o O O o & & & o o @ O o =.=.< 2 Q l.o & "
};
