/* XPM */
static char *result[] = {
/* columns rows colors chars-per-pixel */
"64 64 111 2 ",
"   c #332F2B",
".  c #3F2E2F",
"X  c #35312C",
"o  c #3A332D",
"O  c #3F2E30",
"+  c #2F3A37",
"@  c #263E3E",
"#  c #2B3D3C",
"$  c #343532",
"%  c #3B3331",
"&  c #323835",
"*  c #303C3A",
"=  c #623A1F",
"-  c #7F1E3B",
";  c #402D2F",
":  c #473627",
">  c #4D3626",
",  c #4B3827",
"<  c #433629",
"1  c #4A3628",
"2  c #473829",
"3  c #483828",
"4  c #533624",
"5  c #5E3720",
"6  c #563824",
"7  c #5A3922",
"8  c #402D30",
"9  c #633E21",
"0  c #693E20",
"q  c #25403F",
"w  c #2D403F",
"e  c #75451F",
"r  c #7B461C",
"t  c #7E4A1D",
"y  c #744720",
"u  c #1E4749",
"i  c #1E494D",
"p  c #1A5055",
"a  c #1D5358",
"s  c #244242",
"d  c #2B4141",
"f  c #214749",
"g  c #21494B",
"h  c #2A4A4B",
"j  c #22565B",
"k  c #1C5960",
"l  c #1F6065",
"z  c #1D666E",
"x  c #1F737E",
"c  c #21666E",
"v  c #216A73",
"b  c #24737A",
"n  c #801D3B",
"m  c #9E163F",
"M  c #814719",
"N  c #834A1B",
"B  c #8B4D19",
"V  c #924915",
"C  c #8F5019",
"Z  c #945217",
"A  c #985416",
"S  c #915118",
"D  c #98581C",
"F  c #A15515",
"G  c #B25F12",
"H  c #BC640F",
"J  c #B56111",
"K  c #B96411",
"L  c #B36419",
"P  c #C2670E",
"I  c #CE6D0D",
"U  c #D16F0C",
"Y  c #D4710C",
"T  c #DB750B",
"R  c #C16A15",
"E  c #D16E10",
"W  c #D67412",
"Q  c #DC7510",
"!  c #E1770C",
"~  c #E57A09",
"^  c #E87B08",
"/  c #9E1640",
"(  c #1F7580",
")  c #1F7985",
"_  c #1F7C89",
"`  c #217682",
"'  c #207985",
"]  c #207D8A",
"[  c #158693",
"{  c #158C9A",
"}  c #21808E",
"|  c #218290",
" . c #169AAA",
".. c #2194A5",
"X. c #2297A8",
"o. c #219AAB",
"O. c #229EB1",
"+. c #18A2B2",
"@. c #22A0B3",
"#. c #22A4B8",
"$. c #24AABF",
"%. c #24AFC5",
"&. c #23B0C6",
"*. c #25B4CC",
"=. c #21BDCF",
"-. c #24BBD3",
";. c #27BFD8",
":. c #21C2D5",
">. c #26C4DD",
",. c #20C9DC",
"<. c #27C8E3",
/* pixels */
"X X X X X X   X X $ X X X X X $ X     X X     X X X X X X X $   X X     X X X X     $ $ X X X X X $     X X   X X X X X   X X X ",
"X X X X   X $ X $   $ X $ X X X   $ $ X X X X X X X X X X     X X X $ X X X X X   $     X X X   X   X $ X   X X   X X X X X X   ",
"X X X X X $     X $ X $ & X X $ X X $   $ X X X     X   $     $ X $   X X X X   X X X X X $ X X X X X X +   X   X +     X X +   ",
"X $ X   X X $ $ + # h h + & $ X X X X X X X X   X   + X X X X X X X X X X X X X X X X X X   X X $ X X   X X X X X X     X X     ",
"X   X   $ X X $ & ' :.:.b + $ X X X X X X   X   X X X X X $ X X X X   X $ X X X X   $ X $   X X X X X X X X X   X X X X $ X X X ",
"$ X   X   X X $ h ,.[ { =.h & & $ $   $ $ $ X   X X   X X X X X X $ X   X     $ X X X X X X X X X   X $ X X X X X X $ X X X X   ",
"    $ $ $ X $ + h =. .+.=.h & X   X   $   X   X $ X X $ X $ $ X   X X $     X   $   X X X X X X X X X X X $ X X X X X X   X X X ",
"X X       $ $ $ w z ,.:.l w & $ $   $ X X $ $ X X X X X X X     $ X X X   + X X X X X $ X X X X X X X X X X X X X X X $ X X X $ ",
"X   $ X $ X   $ * q O...# * & X $   X $ $ X X     X X X $ X $ X X $ X X X X X X X X X X X X $ $ $ X X X X X X X X $ X X $ X X X ",
"$ $ X X $   $ + * q @.X.# + & X $   X X   $ $ X $ X $ X   X X $ X X X X $ X X $ X $ X X X X X X X X $ X $ X X $ X X X $ X X   $ ",
"  X $   $ $ $ $ * q @.X.w * & & $ $ $ X $ X $   X $ $ X $ X X   $ X $ X X $ X X X X & X X $ $ X X $ $ X X X X X $ X + X $ X X X ",
"$ $ $   $   $ $ * q @.X.q * & X $ $ $   X X $ $ $ X X $ X $ $ X X X $ X X X & X $ X $ X X $   X X X X X $ X X X X X     X $   $ ",
"  $ $   $   $ $ w q @.o.@ * & X $ $ $   $ $   $ $ $   $ $ X $ $ + X X $ X $ & X X & $ X $ $   $ $ X $ X $ X w X X $ X X $ X $ X ",
"$ $ $ + $ $ + + w q @.o.@ * + & $ + $ + $ $ $     $ $ $ $ $ $ X $ $ & X X & X X & X X & $ X $ $ $ $ X w X $ X X w X X X X $ $ $ ",
"$ $ $ $ $ $ & & w q O...q w # * + + + $ +   $ $ + $ $ $ $ $ & & $ $ $ X & & X & $ X & X $ $ $ $ X X X $ $ X $ $ X X X w X X X w ",
"+ $ + + $ + + * w q O...@ q # + + + + + + + + + $ $ + + & & & & + + + + & & & & & & & $ + $ + $ w w X w $ X w $ X w $ X w w $ X ",
"+ + & + + + + w s a ;.O.z v c c c j @ w + * * & * * & * * $ + * * * * * & * * * * * * & * & * * $ w $ w w & & & w & w & & & & + ",
"w q w w w w w q a *.;.*.-.-.-.-.-.<.( s d w # w d d d w d d w d w d # d w d # # w w w d # w # # w w w w w w w w w w w w w w w w ",
"f f f f f f u k -.#.p j a a a a a _ <.) f g i i i g i i h i i g g g g g g g g g g g g g g g g f f g q f f g f f f f f h f f s s ",
"&.&.&.&.&.&.%.>.O.i d @ # # d d s s ( >.&.&.&.&.&.&.&.&.*.&.*.&.&.*.%.%.*.%.&.&.&.&.&.&.&.&.%.%.$.$.=.$.&.&.&.&.$.&.&.&.&.&.$.$.",
"] ] _ ] ] _ _ ` h d # & & * * * * w s c ] ] ] _ ] ' ' ' ` ` ` ' ` ` ` ] ` ' ) ` ` ` ] ` ] ` _ ] } ' x } x } ) ) ] _ ] ] } _ } } ",
"@ @ @ d # # @ # w & * * & & * & & * * * # @ @ @ @ d # # d w @ # @ @ # # w w d @ @ w q q d w @ @ w q w w q q w w q @ # w w q @ q ",
"* * * * * * * * & & & & & & & & & & & * * * * * * * * w * # * * * * * # * * * * * * * * * * * * w w & w w w w w * * * * w * * * ",
"& & $ & & $ & $ & $ $ $ $ $ $ $ $ $ $ & $ & & & & & $ $ $ $ & & & $ & $ $ & & $ & & & & & & & & & & $ $ X & X & & & & & & & & & ",
"$ $ $ $ $ $ $ $ $ $ % $ $ $ $ $ % $ & % $ $ $ $ $ & $ $ $ $ $ $ $ $ $ & $ $ $ $ $ $ & $ $ $ $ $ $ $ $ $ $ $ $ % % & $ $ $ $ & $ ",
"$ % % % % $ % $ % $ $ % % % % $ % $ & % % $ $ % % % $ % $ % $ % $ % % % % $ % % % % % $ % % $ % % % % $ % % $ $ % % $ % % % $ % ",
"% % % 8 % O % O % % 8 % % % % % & O O O O % % % % % 8 % % % % % 8 % % % % % % % % % % % % % % % % % % % % O % % o % % % 8 % 8 % ",
"8 8 8 8 O O O O 8 8 8 8 8 O O 8 8 O O O O O O O 8 % 8 8 O O 8 8 8 8 8 % 8 8 8 8 8 8 8 8 8 8 8 8 O O . O O O . ; 8 O ; O 8 8 8 8 ",
"/ / / / / / / / / / / / / / / / / / / / / / / / / / / / / / / / / / / / / / / / / / / / m / m m / / / / / / m m / / / / / / / / ",
"- / n - n n n n n n n n n n - - - / n - n n - - - / - - - - n n - - - - n n n n n n n n - - - - - - - - n - - - - - - - n n n n ",
"$ o O . % . X o % % % o O X % O $ X X $ O X O % $ o X . . X O X O   . o % o % % o . X %   % $ . O o % X X % O X O X O o % o % % ",
"$ $ $ % o % % % % % % % % % % o $ O O % o % % % $ $ % % % o $ . % % % % o 8 % % % % % O o % % o % % o % % % % o % % o % % % o % ",
"o o % $ o X o o $ o o o X < w o $ o o o o o o o o o o X <   o X % o o o % % o X o o o o X X X o o o $ o o X o o o X o o $ o o o ",
"o o o o o o o o o o o o o   < o o o o o o o o o o o o o o : w o o o o o o o o o o X o o o o o o o o o o o o o o o o o o o o o o ",
"o o o o o o o o o o o o o o X o o o o o o o o o o o X o o o o o o o o o o o o o X < <   o o o o o o o o o o o o o o o o o o o o ",
"< 2 < < < < < o o 2 2 o < : < < < 2 2 o 2 < < o o 2 < < < : o < < o < < < < < < < o < < 2 o o 2 2 o o o o o o o o < < < 2 < 2 o ",
"2 < < < : : : : : < < < < < < : < : < < < < < : : < < < : < < : < < < < < < < < < : < < < < 2 2 o 2 o o < o o : : : < < < < 2 < ",
"Z Z Z S C Z V C Z Z C Z C Z C C S C C C S Z C C Z Z Z Z C C C C S S S B C C S B C C Z C C C y , 2 2 < < < : : , 7 N Z Z Z Z Z C ",
"U U I I I I I U U I I U U U I U I I I I I I I I I U I I U I U U I I I I I U U I U I I U I U ~ B , , , , , , , 6 G ~ Y Y Y Y I I ",
"6 6 6 6 6 6 6 6 4 4 7 4 6 7 , , 4 6 6 6 6 4 4 4 4 4 4 4 6 7 , , 6 6 6 6 6 6 6 6 4 7 7 7 7 7 F ^ S 6 4 4 6 4 = J ~ M 5 5 7 7 7 7 ",
"2 2 : : < 2 < 2 2 2 < 2 2 2 2 2 < < 2 2 2 : 2 2 2 2 2 2 2 2 2 2 < < < < < < < : : : 2 : 2 2 , A T H H H J J I ~ M > , : 2 , 2 2 ",
"o o o o o o o o 2 o X o < X < 2 o o o o o o o o o 2 X o X < X < o < < o < < < X o < < o < < 3 , C J G P ~ J G r > : < < o o o o ",
"o o o o o o o o <   o o X o o o o o o o < o o o < X X < X o o < o o o o o o o o o o o o < < < 2 : , , t Y = : : : < o o o o o o ",
"o o o o o   o o X < X o o X o X o o o o X X o o X o X o <   X o o o o o o o o o o o o o o o X o o : , t T 9 2 2 o o o o o o o o ",
"X < o o X X o o o X o o X o X o o X o o X o o X X X < o X o   < X o o X o o o o X o X o o X o < < < < t Y 9 2 o < o o o X < X X ",
"X X X X o X X X X X X X o o   X X o   X X X X o     X   X X X X o X o X o X   o X X o o   o o o o < < t T = 2 < o o o o o X o X ",
"X X X X o X o X X o X X X X o X X   X o X X X o w < < X X o o X X o X X X o X X o X X X o X < X o o < 7 I G , : <   o   X o X X ",
"X X X o X X X X o X X o X X X X X o X X X o X X X     X X X X X X X X o X X   o X o o X X X   X o X X < y Y K , < < o < o o X o ",
"X o   X X X X o   X X o X X X X o   X X X   X X X X X o       X o   X   o   o   X X X o   X X o X < o < < = Y K , < o o o o X o ",
"X X X X X   o X   X X X o   X o X X X X   o X X X X X X < X X X X X X X X X X X X o   X o o   X X o     < : 9 Y H t e < o o X   ",
"o X X o X o X X X o     X   X X X   o   X <     X X X X X X X X X   X o X   o X X X   X X X o   X     o X : < y ~ T T D < X X < ",
"X X X   X X X   X X X X X   o X X X X X X X       X X X X X X X X o   X o X   X X X X X o X X   o o X   o o   7 Y S F W : < X X ",
"X X o     X   o X X   X X X X   X X   X   X   X o X X   <   X X X X o   X   X X o X X   o   X o   X X o   o < , K Y Y K : o o X ",
"X X X X X X X   X X   X   o o X   X   X o X X X X X X       X X   X X X o X X     X X o X X X         X o X X < 7 D D 7 o X o X ",
"X     X X X X o X X   o X X X X X o X   X X X X X X X     X   X X   X   X       X X   X X   X o X X   o   X o o w : o   o o o   ",
"X o X X X   X X   X   X   X X     X X X X   X   X X X X     X X     X   X X   o     X X   X X   X o X   X X   X   o o o   o X X ",
"o X X   X   X X o       o X X X X X X     o X X X       X o X X   o   X X o   X   X X X X   X   X   X X X X   o o X o   X X X   ",
"    X   o X X X X X X X   X   X     X   X X X X X X o X X     X X X X X X X X X X   o   X X X X X o   X X   X X X   X   X X X   ",
"X X X X   X   X   X X   X   X X   X   X   X X   o   X X X   X X X X X   X o   X     X X X X     X X X X X   X X X X X o   X o   ",
"    X X X   X X X X X   X X X   X X o X X X X   X X X     X X X       X     X X o X X X o   X X X   X     o   o o       o X X X ",
"X X X   X   X     o   X X X X     X X X     X   X   X     X X   X X X X X X       X X   X   X       o   X X X   o   X X       o ",
"X X X X   X   X     X X X   X X X X X     X X X   X   X     X   X   X   X X   X     X   X o X   X X X X   X X X X   X X X X X   ",
"X X X o o X     X X X X   X X X X   X   X X   X X o     X X X X   X X X o     X   X   X o   X X X X X X X X X X     X   X X   X ",
"            X X   X X X   X X   X     X X       X     X X   X o     X   X X X   X X X X     X X           X     X X X   o X     "
};
