/* XPM */
static char *result[] = {
/* columns rows colors chars-per-pixel */
"64 64 44 1 ",
"  c #44423C",
". c #474640",
"X c #484741",
"o c #4B4944",
"O c #4E4D49",
"+ c #514F4B",
"@ c #53514E",
"# c #565451",
"$ c #585754",
"% c #5B5956",
"& c #5E5D5A",
"* c #605F5D",
"= c #62615E",
"- c #666563",
"; c #686765",
": c #6A6967",
"> c #6C6B69",
", c #71716E",
"< c #747372",
"1 c #787776",
"2 c #797877",
"3 c #7A7978",
"4 c #82817F",
"5 c #858584",
"6 c #888786",
"7 c #888887",
"8 c #8C8C8B",
"9 c #908F8E",
"0 c #91908F",
"q c #919190",
"w c #9E9D9D",
"e c #A09F9F",
"r c #A0A09F",
"t c #9F9FA0",
"y c #A2A2A2",
"u c #A8A8A7",
"i c #ACACAB",
"p c #B0B0AF",
"a c #B2B1B1",
"s c #CECDCD",
"d c #D3D3D3",
"f c #EFEFEF",
"g c #F0EFEF",
"h c #F2F2F2",
/* pixels */
"&&*****=*=*=*-*=============*========================**********&",
"-;:;:;:>>>>>>>>>>>>>;>>>;>;>>>>>>>>>>>>>>>>>>>>>>>;>;>>>>;:>::;;",
"<111222223333333333333332333333332333333333333333333222222232222",
"678788888889998899898q888q888988899889988808qq888888888888888088",
"uuuuiiiiiiiiiiiiiiiiiiiiiiiiiiiiiiiiiiiiiiiiiiiiiiiiuiuiiiiiiiip",
"ffgggghhhhhhfffhffhfffffffhhhfhhfffffffhhhfhhhhhhhhfffhfffhfhhhh",
"dddddddddddddddddddddddddddddddddddddddddddddddddddddddddddddddd",
"wqwwwwwwwewetwttttttttwtttttttttttttttttwwtwttwtttttttttttwwtttt",
"4445555555555555757555755555575577755755555555555555555555555554",
">,,,,,,,<<<<<<<<<<,<<<<<<<<<<<<<<<<<<<<<<<<<<<<<<<<<,<,<,,,,,>,,",
"----------;;;;;;;;;--;-;;;;;;;;;>---;;;;;-;;;;;;-;;-----------==",
"%%&&%***&&*&***&&&*&&&&&**&&*****&***********&&&&&&&&&&&&&%%%&%%",
"##$###$#$$$$#$$#$$$$$$$%$$$$$$$%$$$$$$$$$$$$$$$$$$$$#$$#$$######",
"++++@+@@@@@+@@@@@@@@@@@@@@@@@@@@@@@@@@@@@@@@@@@@@@@@@@@@@O@@@O@O",
"ooOOoOo++oOOo++OOOOOOO+OOOOOOOo +++++O+OO++++++OO+OOOOoOoOOooOoo",
"oooooooooooooooooooooooooooooo. ooooOoooooooooooooooooOooooooooo",
" oo oo o            .XXX        .o...           oo.o.......o....",
"  o                 . ..        .....           ....  ...... .. ",
"                    . .         ...  .          .  .    . .     ",
"                                                                ",
"                                                                ",
"                                                                ",
"                                                                ",
"                                                                ",
"                                                                ",
"                                                                ",
"                                                                ",
"                                                                ",
"                                                                ",
"                                                                ",
"                                                                ",
"                                                                ",
"                                                                ",
"                                                                ",
"                                                                ",
"                                                                ",
"                     o                                          ",
"                                                                ",
"                             X              .                   ",
"                                         .  .                   ",
"         o   oO    o   o    o  X    .  . .    ..  .  X.         ",
"                        o      X     .. .  ..   ..              ",
"       @          o    o    X       .  . ... . . .. X           ",
"   @@   o O O O o  oO O o ooXXXX    .........XX.....XX.X    ....",
"@      @ o  o  oO  Oo O ooo o.oo  XXoXXoXoXoXo.XXXXXXXXXXXXXX..X",
"  #  #@ O @oOoO ooO oooOoooooooo  XoooooooooooooooXOoXoXXXoXoXXX",
"@  #@  #oo@ Oo @OO @oo+OOO+ooooOXOOOOOOOOOOoOoOOoOOOOoOOOOOXOoOO",
"### @@@@O@@@@@@O@@@@@+@@++++++@+O++++++++++++++++++++OOO++OOOOOO",
"#@@@@@@#@@@##@####@###@##@####@#@##@#####@@@@@@@@@@#@#@@@@@@@@@+",
"%%%%%%%%%%%%%%%%%*%%%%%&&%%&%%%%%%%*%%%%*$***$**%%%%%%%%%%%$%$$$",
"&&&==================-=======-==========**==**=*===========****&",
":;::::>>>:>>>>>>>>>:>>>>>>>>>>>>>>>>>:::>:>>>:::>>::>:::::::;:;;",
"<<32223333113222221122233222223221121121322212111121112113111111",
"4444444884888888888888898887777888888888868888887878787777777777",
"rwwwrrrrrrrrrrrrrrrrerrrrwwwytttrreerreerreeeeeetttttttttttttttt",
"ssssddssdssdsdsssddsdssddddddsdssdssdssddssssdsdsdssdsdssddsdssd",
"hhhhhhhhhhhhhhhhhhhhhhhhhhhhhhhhhhhhhhhhhhhhhhhhhhhhhhhhhhhhhhhh",
"ppppapapppppaaaaaaaaaaaaaaaaaaaaapapaaaaaaaaaaaaaaaaaaaaaappaaaa",
"88990000000900qqqqqqeqqqeqqqqqqq0000q0w00000qqqqqq9999q99q999qqq",
"1122222233333333333333343333343333434333333343333333333322333333",
"==:>:::::>>>>>>>>>>>>>::>>>>::>>>,>>:>>>>>>,>>::>>>>>>>>>>::>>::",
"=====*==========**======================**=====**===************",
"#$$$%%%%%%%%%%&%*$%%***$$***%*%**%&%%****$$****$$****$$**$$*%$$$",
"@#@###@#######$########$@#$#####$#############$#@##@##########+#"
};
