/* XPM */
static char *result[] = {
/* columns rows colors chars-per-pixel */
"64 64 25 1 ",
"  c #272A26",
". c #282B27",
"X c #292728",
"o c #2B2B2A",
"O c #302E2F",
"+ c #2D322B",
"@ c #31352E",
"# c #333A2E",
"$ c #312F31",
"% c #343233",
"& c #383537",
"* c #363C31",
"= c #393F34",
"- c #393739",
"; c #3C393B",
": c #403D3F",
"> c #3A4035",
", c #3D413A",
"< c #40433D",
"1 c #423F40",
"2 c #454243",
"3 c #484546",
"4 c #4A4648",
"5 c #4C494B",
"6 c #504C4E",
/* pixels */
"oO%$$$OooooooXoXo XXXXXX.XoXXXooOO$OOoooXXXXXoXXXXoXX X.XX  XXoo",
"$$%$$$OOOOO$OoXOo ooooXX.o....oOoO$$OOooXOOXXOoOOXoo.. .o. oXooo",
"oO23141111111111>>*>;>**#@*###++XO221211::111111<>;>>>######:;oo",
"oo43461111556115>>>>>>>*##**#>++XO223231;:333133,,>>>>#####*::oo",
"oo44-$&%&&;--%&&**%%%$>*+ +.++o+Xo11&%%%$%--&%&&&%%%#@++oo$$&&oo",
"oO11&&%%$%-;&&$$@*%%%$**+...o+++o$11%$%%&$--&%$%%%%%##.OoO$$&%oo",
"oo11$%%$-;&&-;&&%%%%&&$$++.+@%%%Xo::%%$$--&%$&--%%--O+$@+.$%%%oo",
"oo11&$&%&1$&--&%%%%%;&$+ ooo%%%%Xo;:%$%%--$%$$-;&%&-O.$%o+%$%$Oo",
"oo22%%-;%%;;%%&%%%--&%$@.+@%$%&%oX11%%&-&%&-%%%%-;&%+o%&%$%%$$oo",
"oo22&%;;&%-;%%%%%%--%$@$.o@%%%$%XO11&%--%%&-%%%$-;%$o.&%%%%%%$oo",
"oo22&%&&%%&%%&%%&&&%$%$o+.%%%%%$OX11-%%%&%&&%%%%%%@@..%%%&%%&%oX",
"XO12&%%%&%&%&&&%%%&&%$oo.+$&%%%$XX11%&%&%%%%%&%%%%@#.+$$%&%$%$oo",
"oo;;OO%%-%OOOO$%$o&%oo...++oOO&&XO&&oo%%%%$oo$&&Oo%@o+  o$oo&&oo",
"oo*&oo%&&%ooOO%%oo&%o.+...oooO%&OX%&$X%%%$o.oO%%oo++.. +Oooo$%oo",
"oooXXoXXXXXXXXXXoXXoo...   .ooooXXXXXXXXXXXXooooo..   ....XXXooX",
"ooooooo.oXoXoOXXXXoooo.... .oooXoOOX$XooXo..XXoXoXooo..o..oooooo",
"23,,,,>*>##>>>>   22222;>#>#<222231:22=*>#####+@oO2213:>##>#,211",
"23<,,>>>#>>++> > +3423<2>>>>322,331:<:=*###>>>++Xo2431,;#*>><11;",
"%%&%%$@@++.+  +  o22&%%%@@@@%%--%&&$%%%@#++...+.Xo21%%%%+@++%%%%",
"%%%%%$##+.+.  +  o2<%%%%@$@$%%;&$$%$&$$@##..++oOoo:2%$$$+@++O%%%",
"%%%%;;%$+.+.$%%%oo:1%%%&%%%%-;%%%$%&;&&&+++.%$%$Xo:1$%%%o+O%&-%%",
"%%%%;;&%+..+$%%%oX:1%%%%%%%%;;%$%&$%;;;&...+%$%$oo11%$%%+o%&-&$%",
"%%&;&&%%..@&$%%%oo11%%%%%%;-%%&-&$--%%%%..##%%%%oo11%%%$o+--%%%%",
"%$;-%%%%+.@%%%&%oo1:$%%%%$;-%$&-$&--&%%@..#+$%%%oo11%$$%+.&&%%%%",
"%&%-%%&#+.$%&%%%oX11&%--%%&%%%&&&%&%%%%@.+@%%%&$oo21%$&%+$%%%%%%",
"%%%%%%@@o+%%%%&%oo:1%%-&%%%%%%%%&$%%%%@@+.%%$%%$oo;;%$%%+%%%%%%$",
"$$-%$o.+.+o$o$-%oo%%oooO&&$oOooo&&oo$O@@+.OOoo%&Xo#@oooo#$oOoooo",
"$$-$oo+.++oo$o%%oX%$OooO%%ooOooO$$ooOO@@o..oOO%%oo%%oooo@+oooooo",
".ooXXoXX    .ooooXooXXX.oo  XXXXooXXooX ....XXooXooXXXXX.XX.XXXX",
"oXoooooX+   ooooooXXoooXXX  X.. XXooooo ...ooooXoooooooo....ooXo",
"oO444444,,*>444342,,,=**@@##*#++oo354332<>==1444141412==*+##**O+",
"oO564556<,>>664444,,,,=***@#>#++oo464433<<*;1454411434,>**#***+o",
"XO44;%%-&%##&&&&&-&%%%++@@+..+Oooo111%&%%%%#%%&%%%%&%%%O#@+.&%+.",
"oO44&%%%%$%%%%$%%%%%%%++@@+...OoXo11&%%%%%@@%%O%%&%$O%%@@@.+#&@O",
"oo22%%&%&&%%&$%$-;%$&-%%@%..%%$$oo1:%%%%%O%-%%%O&:%%&&%O@%..%%OO",
"o$12-%%%--&&%%&&&;%$;;%%@$O.%%%$oo11&%%%%%&-%%%%&&%%&:%%%O.+%%%%",
"o$11&%--%%;;%%--%%;;%&%%++*@%%%%XX11%%%%--&%&-&%%%&:$$%%+...@%O%",
"oo31&%;-%%&;&%--%$-;%%&%..@*%%%%OX11%%%%--%%&-&%%%&:&$%%..O@%%%%",
"o$11%%%-%%%%%%%%%%%$%%@@.o$#&%%%XO1:%%%%%%%%%%%%%%%%$&%O.+%%%%%%",
"X$11-%%%%%%$%%$$%%%%%$*@+o%&%$%$XX:1%$%$%%%$%%%%%$%$%$@@..%%%%%O",
"oo&*o$%%@#$o%%$$o$%%$X%#+ o$o$&%OO$&ooOO&&OoOO%%OOOO@O+++.oOOOO%",
"oo%&oo$%+>oo%%$$oo&$X$&# +oooo%%XX@OoooO$$oooo$%oooOOO+..+oooo%%",
"XXoXX XX    ooXXXoXXo  . .  ooXoXoXXXXXXo.XXXooooXXXX.......XXoX",
"oooooooo    ooo o ooo.+. .+ oooooooooooo.. ooo .Xoooo .....+ooXO",
"4333:,**>>>>>>++Xo333432<>>>121:111313==**###>++Xo1133:==***:2:1",
"3333<,*>>>>+>>++oo343233<,>>4111331111==*>##>#++oo441<:>=>*=::::",
"&%%%#%@@+.>@  o+Xo33&%%%%#*&%%%%%&$%&&$$++##.+.+XO41%%%%%@##%%-%",
"&%%%%%@@+ +>. ooXO33%$%%%%@%%%%%%$%$&$%%..@#..+.oo44%O%%O%**%%%O",
"%%%%;-$%%%+.%%$%XO21%$%%&&%%&-%$%$$%--$%%%.+.O$$oo11$%%$&&oo&-@$",
"%%%%-;%%%%o.%%%%XO;:%%%%;-%%&-%%$$&$--&$%%+..O%%oo::%$%$&&Oo&-%$",
"%%-;%%-&$$+ $%%$XX11&%&;%%%$%%&&&$--&$&%%%..@%%$Xo::%$&&&$$$%$%&",
"%%--%$-&$%.+@$%%XX2:&$&;%$%$%%&&%%&-&$%%%%o.%%%$XX1:%O&:$%%$$$&%",
"%%&$&$%$.O$$%%%$oO12%%%%%%--%%%%$%%&%%%%++o+$&$$oo11$$%%%%&-&%%$",
"%%&$$&%$..$%%%%%Xo:1%%%%%%--$%%$%%%$%%%$o.o+$$&$Xo::&%%%$%--%%$%",
"$$$$$$oo.+oOoo-%Xo**OoOO&%ooo$o$%$oo%$o+.oooOo%%XX&*oooo&%Oo$$OO",
"oo$$oooo..oooo%%oo&&oXoo%%oooooo$$oo%%oooooooo%$OX%@oooo%%oO$Ooo",
"oXo XXXo..  ooo oXoXXXo... oXXoXooXXOXXX .. ooXoXXoXo  .Xoo oXoX",
"Xooooooo+.o ooXooooooo..oo  ooXoooO%XOoXoo..Xoooooooo ..  ..XoXX",
"o$333322<>**1212121111;*####**@+oo111111>=#=231213<==*#=***=:-OO",
"X$344344,>**221111::11;>####==+OoO114455,>==22:232:===#=##**::OO",
"o$13-%%%%$+O%%%%&%&&%%%&++.+$$ooo$11;$&&&$%#%%%%$&%@##++.o@OO$OO",
"oo31%$%$$@.o$$$%%$$$%%%%. . $$ooo$11$%$$$$%@%%%$$$%$@#o..o$OOOOo",
"X$::$o$o%&ooo$o$oo%%ooooo.+ OXO$XO1;$OOO%%ooo$%$ooO$OOoO+..@OOOX",
"Xo-:$ooo%%oooooXoo%%ooooo+o XOX$XX-;OOoo%%oooo%$ooOOooOOo..ooXOO"
};
