/* XPM */
static char *result[] = {
/* columns rows colors chars-per-pixel */
"64 64 30 1 ",
"  c #131F08",
". c #16230A",
"X c #19260B",
"o c #1C2B0D",
"O c #1F3010",
"+ c #202E0F",
"@ c #22300F",
"# c #212F10",
"$ c #253412",
"% c #283613",
"& c #273914",
"* c #2B3C16",
"= c #2D3F18",
"- c #313E17",
"; c #313F18",
": c #2E4017",
"> c #2E4118",
", c #304017",
"< c #334419",
"1 c #39461B",
"2 c #36491C",
"3 c #3B4B1D",
"4 c #3E501F",
"5 c #3E5120",
"6 c #40471D",
"7 c #414D1E",
"8 c #41501F",
"9 c #424F20",
"0 c #435421",
"q c #465923",
/* pixels */
"X.o++#++oooo+%$oOOOoO@oo@OOoooX..OOOOOOOoOOooooOoOO@@@%@XXXXXXXX",
"X$<2<,<<,133111<>44244424424>:&ooO>4444424222>:222423<22:::::&&o",
"o%3337333777680325544044q8444<:oX:44448q5424222484443<412,2<:@&X",
"o*333316336771113443422443422>:o.<444444>2544444q42444773<<2::&o",
"o$,33383116361313>225<252>2<22:oX>4<,23,2222425544222417133,:::o",
"o$,<38883<3333333>2>>252<><22>:oX>2222,32224552344423217,6<32>:o",
"X@><,<3<31<<33,33>>322<>:&2>22$oo&2<4223>>53445222342<3,61<2:<:o",
"XO*:::<<,,:*1<3,><>>>>>>>:>222:oo:22>>22>22232<2<22>:3<,,1,::::.",
"Xo,*<**<****>24>>>><>*>>>:><22>OO:242><><2>&>>**>>>>>2><<1:*,,,X",
"X$<13*******>2>>>22<>*>>*>>>>>:Oo>42>2>>>52>>,>$&:>&>>:<<,::<::X",
"X$<1<,%%:*:<>>>:<<2<***>>>2:>>&OX:22>2<:>22&*2<=>&>:>::>:&*::*@X",
"o*33<<-**:222**&><2<*&&*>22><>&Oo>2><,><>>>>==*,>:O:::::,**:**%o",
"X*3,-,*%**2,>*&*,,:*****><<:&&&Oo:2,:**&>>*>,>%*>>:O&:&:::::*&@.",
"o@**-%**%%-%$&**-%%%*@*-&&@&&&OOOO*&**$$&&*&*&$*:O:&:&$*::::*%@X",
"oXo++XX+$++$+$%$@@++oXo@o@@oOO.OooOO@@X$OO&OXXO$OOOO@@X@@@@Oo@@.",
"oXXX....oooXXoXX+XXX.XXXoXXX..OOoXOooXXX.XXXX..XoooooXXOXXX.XoXX",
"*-<****----*%$oXo@-<<<**&&&&>&>>****::::&&*&*&OXoO**,-,*,<:***&*",
"2753<<163787<<$.o:8000<322552225221<<2>>22<22>&XX&33733480432><<",
"<332<<131113-*+.X,7332,2>>>>2>22<<1*:<>><<<32:$oo*863<2583<2::<>",
"<233<;;<;;;;%*@.o331,<<<>>>>>&>>&:,*<,>>:>::2<&o+313<<<>33<<:<<>",
"<<2<<<***,;**&$X+<1232<2>&>&&>::::&&>:&&:&&:>:*o+11:<2<:>>>>>::>",
"22<<13,:=*,,>*&oo<33<<:<>&&>>>O::&:*:O::*::::*&o+12<<:>&:&&>:::>",
"22<<221<2*>>*>&XX;3<>>>>>&=&==&::&&*&>>&O:&&**$.+32<:&*:>&O>>:>>",
",,**:2<<<>>>>>&oo*>&>>>:>=>&=>>&:&:&:>&:>&>:*$$.+<<<*:>>>>:&::<>",
":,,<<22;<=*=>>&o+,,>*>2<>>>>>*>>O::&****:><:**&.$,,*****&&&&&>>>",
",*<3<;<==*=*>>&Oo*2>*>><>>>><:>>&:**:**>*>2>>*$.O,<>&&&*&&>&&>&&",
";12,%;%-*&*>>=%oo*<*,>**>>>>,<**:>>**>**,>-<<*$.X<2:*$$>&&>>>&>&",
"-<<*%---=&&>*=%oo;<;>>&&&&:>*,-***:&&:**-*%**,$.o,<*&&**>&&&OO::",
"%-%-%%;;=&%$%=$oX*;-***$&&&***%*%%@%$***$%**%%$.o>,*$***&$**&&$$",
"-%$%%%%$$$%%%$#oo%%%**%$OO$&$$%%##+%&$$$*%%$$$+.X**$$$&$$$$#O$$$",
"$$#+$#####$#$O#o.##+$##+OOXX@@@+++++#+o$@++o#$o.X$$#@++$oo$+o+$+",
"X++++XX+oooXooo.X..o.XXXXX..XX.X..XoXX.XXXXXXoX.XXXXooXooXoooXX.",
" ++++$$$%++$%%%++@+$+++oo#ooooo.X.o+$+++@$OOO@@@@@@OOO@O&&@@&@o.",
"+#-;16111113661;11631111<22<>>&oX%<2<33<<222222143222><<1<:222*X",
"+#6661611;16131*<111<113<12>>>&.X*<<3<2<<<<3222:22<2<>2::2,222*.",
"+%66;1;--;<<-1-%*-<<11<;--<2>>&oX-9311<,2<><,:,*:2>&&::,::21,*&X",
"+%6;---;%%;;*>*-----;;-1*,=*>>Ooo;1<1<,**::*,<<,:<:*::&::-,:,*@X",
"+-6--,;--;<;*>-,---*=,******&>>Oo*<<,:*******,,::&&&**&*&*:,,:&o",
"#;--*,*&:***>>:>,:,**=**&***>>*Oo*3,,,,-**,,****:&*:>*::,**,,*@X",
"+;;->:>>**-*O>>&*****&&*:&*>>>Ooo=<>,,-***,*$-,*:&:&>::<,&*,,*&X",
"+%;=&=*=*>*>>*>>***>*O*****<:**oo*;,<;-*:::***<*&::*:::*,***:*&X",
"+%=*&&&*&:*&:><>>>***&>&%**:>:$oo*<**-*****&&***::&:>**::*&*&*@X",
"o%<%**&&***%*><>*&&&&*>>%---:>&oX*1;*%*$&*&$***%:>>&:**@*,:::*@o",
"#=1-**>*****&*&&>>***&&&%-;-,:$XX*<;-*%%********&:>&:&,&:,<**,&o",
"+%1;%-;***%%%%%--%-%&**%%-;-**%X.%;-%---*%--%*%-&$&*-&**-,,%**%X",
"+$--*%%*%%*%-%%%$%%%&*-*%%-%%%*X.%-%*%-*%**%*%%%&&**%%%*,,-**%@X",
"++#%%%-$%%%%$#$%+$%%%+%--%%%%%$.X$%%%%%%$*%@%%%$$%%$%$&*&%*%&%%X",
"+o+$$+++#++$##+++++%#+$####$++XXX.+++++#+++@$+++$$+o$$$@@@@@@@XX",
"XX o..oXX XXoXXXXX.oX.XXXXXXXXXXX  ..XX...X..XX......XX.XXXXXX..",
"++o+o.ooXXXXoXXX.XX..oXXooXoXoXoXX...ooX..X.XX.XXoXXXX.ooXXXXXOX",
",;%%*;<;-%;,-=#o.o*--*%%%*-;<,*>;=**&*>*&&**=*XX#%%**,****;**===",
"3<;-<3<,<<2<<;%XX-1<;11*,=;2<<2332>*,<2,><<,2<# o-1<36<1333,=<2<",
"=<**;*%*=,,,;=$oo-1--;;;1,,<***,=>=*,,<==,=*;=O o;-*;1<1<<>>=<<>",
"=%**=&***,,-;**oo-<;;1-<=>**-*****<,*=>>**=*;=#.o,---<<>*&>>=**,",
"=&***%*&=*-**%%++,<;;*=<**%$$*:*>*&***==**,2==$.o;*<**,*&**>*%**",
"=&**&$&**%**%%$oo;;*%*&*=*&******&$**&**&***>*OXO*********&**&&*",
"&&*&*&*&$&**&&&oo***$*%*=******=*&&&>*&***%*=%$Xo$,*=&&&&O&>&>**",
"&&*$&&&$&**&$**Xo%==*%&*&&*&%&==&**&*>*&,,*%%=$Xo*;***&**&&*O>>&",
"%*=**&&&=&**&&&Xo*=;&&%*=*%%&&*****&&**&*;;%-%#X$,;*>=$&&&&***>*",
"%&%$*&**&$&***&Xo%=%**%&*&$&&*%&&&&&*&&&*-%-%%#X+=***=&%&>&**&**",
"*%$&%%-%#&&&&&$.X%%%%=$$&$&%$%$O$%$%&O&**%%%%%$.o**$%%=$&*%$$&%&",
"*$#%#%%%$$$$$#$X+%%-%###$%$###O$$$&&O&$$##%-*%#.#**%%%%$$$##$&%$",
"#+#$+++#$#o$##OXX##%%o######oo##OO$###$O#+##$#X.+$%$##$$$#####$#",
"++o#+oooo#o#X#X.  +oXoooooooooooooO##oOOooooXo..X+oooooXoooX+o##"
};
