/* XPM */
static char *result[] = {
/* columns rows colors chars-per-pixel */
"64 64 206 2 ",
"   c #0E0E0D",
".  c #10100E",
"X  c gray5",
"o  c #121110",
"O  c #0E0E0E",
"+  c gray6",
"@  c #111110",
"#  c #131311",
"$  c #121111",
"%  c #111111",
"&  c #0F0F0E",
"*  c #100F0E",
"=  c #090909",
"-  c #0C0C0B",
";  c #0E0D0D",
":  c #10100F",
">  c #0C0B0C",
",  c #0B0A0B",
"<  c #0A0A0B",
"1  c #020303",
"2  c #040404",
"3  c #070706",
"4  c #0A0B0B",
"5  c #0B0B0C",
"6  c #0E0D0E",
"7  c #121211",
"8  c #171715",
"9  c #161614",
"0  c #121210",
"q  c #0B0C0C",
"w  c #0B0B0B",
"e  c #131210",
"r  c #11100F",
"t  c #0C0C0C",
"y  c #141413",
"u  c #0D0C0D",
"i  c gray4",
"p  c #0D0D0C",
"a  c #141312",
"s  c #09090A",
"d  c #080708",
"f  c #060606",
"g  c #020202",
"h  c #010101",
"j  c #0C0C0D",
"k  c #0D0C0C",
"l  c #151513",
"z  c #131211",
"x  c gray7",
"c  c #0F0F10",
"v  c #131312",
"b  c #191917",
"n  c #1F1F1B",
"m  c #1D1E1B",
"M  c #1A1A18",
"N  c #181816",
"B  c #1C1C1A",
"V  c #181916",
"C  c #1D1D1A",
"Z  c #1B1C19",
"A  c #141412",
"S  c #1C1C19",
"D  c #161714",
"F  c #191A17",
"G  c #1D1E1A",
"H  c #1B1B19",
"J  c gray2",
"K  c #060605",
"L  c #171815",
"P  c #161715",
"I  c #151413",
"U  c #1A1A17",
"Y  c #191916",
"T  c #151614",
"R  c #080809",
"E  c #252621",
"W  c #252521",
"Q  c #1F1F1C",
"!  c #20211D",
"~  c #22221F",
"^  c #171816",
"/  c #21211E",
"(  c #1C1D1A",
")  c #22231F",
"_  c #171716",
"`  c #010201",
"'  c gray1",
"]  c #070707",
"[  c #161615",
"{  c #1E1F1C",
"}  c #1E1E1B",
"|  c #242420",
" . c #1E1F1B",
".. c #181917",
"X. c #161716",
"o. c #181815",
"O. c #191A18",
"+. c #1F201C",
"@. c #151514",
"#. c #191919",
"$. c #131413",
"%. c #080909",
"&. c #0C0D0E",
"*. c #181817",
"=. c #131313",
"-. c #1B1B1A",
";. c #111010",
":. c #151515",
">. c #141514",
",. c gray8",
"<. c #0E0E0F",
"1. c #161616",
"2. c #141313",
"3. c #101010",
"4. c #121312",
"5. c #131412",
"6. c #191918",
"7. c #111212",
"8. c #121213",
"9. c #080807",
"0. c #0D0D0E",
"q. c #100F0F",
"w. c #060607",
"e. c #0E0F0F",
"r. c #0D0E0E",
"t. c #090908",
"y. c #0B0B09",
"u. c #111211",
"i. c #131314",
"p. c #0F0E0E",
"a. c #101110",
"s. c #090A0A",
"d. c #0B0A0A",
"f. c #0F1010",
"g. c #101011",
"h. c #111112",
"j. c #0C0D0D",
"k. c #030304",
"l. c #151615",
"z. c #111210",
"x. c #121311",
"c. c #070807",
"v. c #0F0E0F",
"b. c gray3",
"n. c #090809",
"m. c #0A090A",
"M. c #070606",
"N. c #070808",
"B. c #070708",
"V. c #0A0A09",
"C. c #080806",
"Z. c #080908",
"A. c #0C0B0A",
"S. c #030403",
"D. c #040403",
"F. c #030302",
"G. c #040504",
"H. c #020201",
"J. c #050504",
"K. c #020302",
"L. c #040303",
"P. c #050404",
"I. c #060505",
"U. c #090808",
"Y. c #080707",
"T. c #070607",
"R. c #0B0B0A",
"E. c #0E0D0C",
"W. c #0D0E0D",
"Q. c #0F100E",
"!. c #161514",
"~. c #0B0A0C",
"^. c #060707",
"/. c #0A0B0A",
"(. c #131212",
"). c #050405",
"_. c #040304",
"`. c #050506",
"'. c #010100",
"]. c #0F100F",
"[. c #0F0E0D",
"{. c #11110F",
"}. c #0A0A0C",
"|. c #0F0F0D",
" X c #050606",
".X c #030202",
"XX c #010202",
"oX c #0C0B0B",
"OX c #040405",
"+X c #0A0909",
"@X c #070605",
"#X c #060504",
"$X c #090807",
"%X c #141513",
"&X c #1B1B18",
"*X c #1A1B18",
"=X c #1D1D1B",
"-X c #09080A",
";X c #020203",
":X c #0B0B0D",
">X c #0E0F0E",
",X c #010102",
"<X c #090A09",
"1X c #0B0C0B",
"2X c #0A0908",
"3X c white",
/* pixels */
"  . X X o O + o O @ # o $ % + + & * =   @ X - - ; @ o : > , < < 1 2 3 4 5 5 O X X + O O X O 6 X X 7 8 9 X   & 0 : & & X O O q w ",
"e X + : r t O @ y @ u w O O X : @ & i t     i p a < < X w s d f g h 2 j : * t # @ 5 : & k y   w l : X O X   O 0 X , r # z @ x c ",
"  t v b n m M N B V v l b N y C Z N 8 v A S D l F G H V N % i J h g K X v l 7 L b V b P y S N I U Y b m 8 9 l y 9 N M 8 T 9 @ 7 ",
"R t l C E W Q H ! C b S Q C N ~ Q M H ^ N / ( b U ) ) Q Q _   J ` ' ] X y N [ N H ! { Z b } { S M S Q | U b N [ Z  .} ..X.N @ v ",
"= w v N b o.8 [ H H S / M N M O.[ @ : M +.8 b @.& X 7 N F #.$.%.g h 2 &.@.8 @ % y _ b *.[ =.M -.x ;.v ^ y 7 : N N 8 N [ :.y # + ",
"< 5 @ @.b B N 7 l 9 _ @.>.@.@.@.a % l ..N l v ,.:.+ 7 N } _ <.s g ' f 5 [ M =.% 7 v y y =.x @.^ 1.=.y F 2.@.N y 7 x 9 7 @ A O + ",
"4 i 3.,.@.b 8 7 7 y @.c =.,.v @.=.: 4.5.v 0 3.x :.@ v N H [ O R g ' ] 5 ,.6.:.3.3.v 7 7 v x v y >.7.7 [ 8.[ H % : 3.y : : v j O ",
"= 9.% =.0.+ =.[ 7 l P [ y 4.>.6.P q.j 3.x X x % + x y v v _ 5.] g ' w.i % @.[ O <.1.% A P v y v O e.+ <.=.:.9 @ # A l A =.=.r.<.",
"t.y.: =.x O + 7 7 : O + + 3.u.7 3.+ % x 8.& + % 9 $ & + ^ $.O = g g J O ,.:.+ 3.x i.% : & p.q.a.,.@.u.u 3.v [ y @ & & O + % r.w ",
"s.d.3.y 9 3.p.& A a.O O 0.+ u.c u.v : 3.f.;.& 3.y 3.+ & A + t i g ' f j $.T 3.y ,.g.@ : O j   : y y x + X + z A @ ; 5 t   O t < ",
"< R q.@.8 y + j @.y % + <.c v % y [ 0.X <.7.O <.h.+ + : : j.5 < g k.R i 3.y ,.*.@.& 7 7 3.5 O 7 7 @ @ v X t & : : O s t X t < s ",
"d d k % =.@ + + % 7 7 O i.=.+ @ a.% l.% + 3.0.O % + O + >.@ t R g 2 R X & ;.=.x @ 7 9 % w x 3.+ z.j.5 O u : A   w t   = 4 3.< R ",
"= w & 3.c @ + t X : 7 3.h.g.O w X + g.+ X w j : x.0.5 5 @ @ X = g ' c.O : : c : : + 3.+ + % g.3.: v.<.+ t X 0 X j   : X 5 j 5 < ",
"i 5 + & t +   5 < X @ 7 + O & b.i 0.t   p = j 3.u.5 s %.  + X s g g J X @ @ 5 & & t t O % O + 3.+ O & : < t & X X O : O 5 s t w ",
"b.R c % < R i X s.> O : X X & = 5 <.& X r.@ O t 5 w s = % c j < g g 2 = % =.R q t i t k X O t < > 5 X   i 5 0.0., i t i i w b.] ",
"] R a.v t < j 0.X O 0.w w t j t 5 5 O O j 5 < = b.n.< 5 5 5 < s g ' f = % >.+ , < j t w i n.= < 4 = s r.m.s i < i < > < i < s b.",
"] b.  : p w t j > t - i t t w > i s t X 5 i i b.M.s 5 t < < s N.g ' K w & : + 5 5 j t i = B.b.= w = = t t.9.] = n.= w < s s b.f ",
"b.f V.w i = = R ] C.9.V.X w ] 3 3 b.s i w q s 9.3 5 < m.5 < B.2 g g 2 < s.= i w 5 = Z.b.%.= 9.9.A.w = ] 9.K ' R 3 f 9.= b.K J 2 ",
"' ' 2 2 ' ' S.' ' D.D.2 2 D.' F.2 2 S.S.D.' S.D.S.' J ] G.2 2 D.h H.' 2 2 J.J.2 2 2 2 D.' D.D.D.D.D.D.' K.g g ' F.F.D.D.D.F.g g ",
"' G.D.2 2 ' D.J J 2 2 2 S.2 2 J 2 ' D.L.2 P.G.J J.S.2 2 2 J J D.' 2 2 ' 2 J f K K f I.J J J J J J J.2 ' ' g h ' ' 2 2 D.2 2 ' g ",
"J b.] U.s 3 ] i s = = ] Y.b.n.s ] I.Y.9.= i = = s n.f 2 T.R ] K N.R b.] b.m.w w i w < < , i i s i b.] J J ' g 2 ] b.f f ] n.J J.",
"= R X 3.  - i = - t - f U.R.X w t E.= < - i W.  t E.p p w w s i < j & @ & p.@ X w <   &   , w k   X t = = P.h g 2 ] w b.= j w i ",
"w w 7 9 v 7 v A @ v 9 # Q.: v 7 : & + @ @ ;.@.l 7 A 7 : A 7 + + % x v 9 y A !.v 7 7 9 y 7 @ v 9 N y : > > f H.g f 5 @ 3.: 3.< ~.",
"p t # 9 l l 9 8 y T *._ v v _ T % + % v y 5.P [ @.8 y : ^ 8 5.7 =.$.y 9 l l [ [ 9 8 ..@.v @.[ b Y !.@ O X ^.H.D.b.0.# A v v i 5 ",
"/.=   o o 7 + O # 3.O 0.O % :.,.3.0.3.% u.3.+ % =.y 7 3.(.y y : O 3.z @ + O + y @.7 ;.3.+ x =.v O : r . < ).h J.b.5 O & r 7 X j ",
"- =   0 0 O X p.: @ @ 3.y @.f.X > 5 3.<.O @ 7 % % _ *.P u.+ q.: X t X O X j + 3.3.;.=.@.@.: 7 y : : + X b.' h L.B.5 X 7 @ O   X ",
"w = p q.: + f.3.O : @ @ @.@.: = i j 3.X X 0 : & : 9 T y o ; ; @ r.5 < 5 X & @ + + e.=.:.@.& & @ + + X < b._.h g ] 5 5 x =.+   > ",
"= s t   O y :.y + v.@ A 7 7 @ = w + 0 : & 7 j 5 O : O t 7 & O @.+ j 5 B.& a : 3.: 0.q.@ 7 ;.t < + 0.w b.5 `.'.g b.j t 3.=.@.O d.",
"= 4 * @ O <.+ v.t 3.v j 0.X t i t O t   : A 6 w 4 ; & : .   X o t b.] w : 7 X c v T : & + O % % O % ].i 5 f h g b.j < p.@ ;.X < ",
"= < p.: O t t p > : @ w O : + i i t j O & : X X O X X X ; t t &   w U.i   q.j   : # + : 7 X : 3.X O O , = J h 2 9., X : r p.5 t ",
"= i X & O w t X 0.: r t 7 v 0 = t.w j X X t X q.7 0.w , X w t & : ; , U.- p.X - - ; O @ v & & [.  5 4 4 Y.D.g f ] = {.@ @ & < t ",
"R < % v w   j }.0.@ 7 % y 7 t 5 5 t p O & {.  j.0.: : |.p   X i 5 < i t   : & i i j w t   : [.p * X 5 < 9.2 g D.n.t m.+ x v =  X",
"9.< X & &   t 5 X O 0.0.+ & t = i w = w k k p.p < w t k t   p i i i i 9.i X j O O 5 j t p w w - . j < = J..XXXD.] < t & r W.= f ",
"b.< , p o   w i p t 4 5 O   p 3 U.i b.i w i &   < s s.w w t t i s s = f R ~.5 + & w w w 5 s w p & w = t.2 .Xg J.M.s   |.; w s ] ",
"b.s X : 0 t R b.    k 5 3.: R.b.= t >     w -   . w 5 i 9.= s b.= b.M.R s < O = b.w ] t.5 5 & : w < = 9.3 2 ` F.f < & i i |.= f ",
"f s ; & t 5 5 m.i - ; 5 0.X i f Y.i = = = = i w w < > oXU.i < b.R b.9.= < w 5 oXw 5 < t   w w w w 4 R f B.OXg `.b.i w X O & s f ",
"K R t t i = = = b.V.w 5 t w = J ] = 3 3 b.b.V.i V.R.d.V.t.= = b.b.] f ] 9.b.b.= i V.i R.R.= +Xt.b.b.] f ] 2 g J B.b.b.R.- R.] J ",
"M.n.9.Y.i K @X9.t.9.9., < +X9.J ] = 2 K 9.b.V.+Xt.R.t.3 9.Y.3 Y.] J F.D.D.2 I.K 3 9.Y.3 3 ] t.9.J.#XM.] M.D.g g f 9.3 3 f J P.P.",
"S.2 2 D.D.' F.' ' S.' ' D.D.' F.' ' F.' ' D.D.D.S.D.D.2 P.2 ' ' ' F.g F.S.2 ' ' ' ' ' L.D.' ' ' ' ' D.' ' g H.g ' ' ' ' ' ' F.g ",
"' F.F.' J J.J.J P.J J g 2 2 F.2 J.J.J J 2 2 J.J.J f K f K K 2 ' g F.D.D.2 J.f f M.3 K K J K K J.J 2 2 J.J.J 2 P.J.J.J.f K J.2 ' ",
"J 2 J.M.b.= = = b.s i f = = K = = +Xw d.= U.+XV.i w R.R.i m.b.P.h ' J f 9.t.R.R.- p - R.R.d.i V.w i V.V.+X= t.t.= t.= w w V.$X3 ",
"b.b.p & w p t i & : & & & p w oXp & : 0 @ O O O + : : + & i ] J g .XJ.< O : X q.: & @ {.: + & & : 7 @ O & & & &   X X & &   k t ",
"t.w : A T T D 8 @ %XV N S H y 9 %X# 9 9 9 N y v A b b P 9 @ < J g g J % [ ^ v y _ &Xb b S N F M N b M F @ 7 8 M 8 y T M O.P t < ",
"= w @ 9 [ N M H y 9 b N ( C 8 b _ A l y T F [ 9 9 ..b N N =.j J.g g I.v b M N 8 N &XM *XB b &X*XN *XZ =Xy v 8 M N 8 9 *X*X_ t < ",
"b.B.3.v 5 v @.v y l v 7 v $.z # v 7 X O : + @.[ v j ].v y 3., J.h g f 0.y M Z 9 % + 3.: : v 3.p.v.x =.$.9 7 O 5 3.v & O + 0 w R ",
"R %.w O x % x y O + + 0.+ 3.% 3.+ X O X X : 7 7 : j.+ 5.N : = f ` g f O l 8 + : + 0.6 O : y 3.O @.% (.l X t & 5 O 0 % X t . i R ",
"b.b.R.O % + @ v 0.0.O e.: + + O O   j j 0.7 3.+   <.3.7 @.v.= J h g P.5 4.l j.0.X ; X & r ;.& p.5.q.+ v t t W.O & + + + 3.0 w b.",
"t.t.  @ X   : ;.0.0.+ v v : - k & @ i t 3.y e.t t % x % % u b.D.XXg 2 i @ v <.5 t +   : 0   p O : X j c e.X 5 & O 0.0.y 9 y < ] ",
"i w j.0.u < 0.$ &   X t @ & i p O O X O 3.3.j <.h.+ 7 @.% j ] g h K.3 & @ + 5 + u.3.5 5 > i i t @ O 5 -Xw t j < 5 X O + 3.@ , ] ",
"s s   + w + : O 5 <.f.  : + ; t > t p X 6 X O & c % % u.(.j B.2 h ;X] w : 7 :X+ @ & j   : :   X X t i R s > ; O & & & X X   t b.",
"= = & 3.w 7 @ t 5 + g.& & & & 5 w - - t j.X p.  t @ +   v X B.K h ' ] b.+ v X   & O p & A A : t < w 5 w R w & {.: [.& t w p t = ",
"i , X + + X k t @ X < i   p i & @ * s w   r - w w < w X A <.m.3 g L.] p : :   w - {.X X 3.A + w |.p O 0 i w t i w t < 5 j + , s ",
"b.5   & X t   * & j t & O t i X X w < t X p.t j + : X 5 @ < `.D.h g J.V.t X X t t w w t p O t w w j X - R.i s j w w X j j O w i ",
"] 5     w oX  . X > t >XX w w t 5 w X t t k t X + & t w {.w `.F.h h 2 b.t X < w < R t X - < w w i j t i i i s 5 w w j.X O O w s ",
"9.<   E.< - t p X 5 i s p - = t X   7 X s = w w = < , w A e.B.F.h ' f R O & f s < , c O 5 n.i R.q 5 5 j B.m.t = w t < : z r w b.",
"9.s i R.- = i w 5 :Xi Y.w i K U.+Xi t 5 < i w w w B.i W.& w f F.h g J < 5 5 5 i = i w < < s = t.] t.m.5 b.f J.9.t.t.w X r.t w = ",
"3 R b.t.V.= = t.= s = f b.b.9.$Xt.= = = = U.< 5 w Y.= 5 oX= ] 2 h g 2 b.i < s t.R = +Xt.b.R = = b.U.b.b.9.K 2 b.9.9.s i i = = b.",
"I.] 3 I.K = b.K 3 ] ] f K M.%.n.b.] 3 b.b.K = < i 9.b.= U.Y.3 J ` g D.J.= < f ] R b.t.] J.b.= s < = 3 J.3 M.K R b.9.R I.P.3 K K ",
"D.' 2 J.J.J.D.D.2 P.2 L.' ' ' 2 S.D.P.2 2 J.J.2 J J.J.J.P.L.D.' ,Xg K.F.2 J 2 2 ' ' D.2 D.J.J.2 P.D.D.D.D.F.F.' 2 J.J P.D.D.' ' ",
"D.D.J.K ] K 2 2 #Xf f J J J.D.2 2 J f K f 3 J J.J K 3 9.3 f K J g L.f J.P.K b.f K w.f f K ] f J J K f 2 J.' g J f K 3 f f f J J ",
"K Y.9.t.5 V.U.3 b.<X+X= = b.] b.U.= s m.i i R b.+XR.w 1Xw w i = 3 b.w +Xt.V.j i < 5 w R.i j w = t.i < b.= J g R R b.i s i R.t.U.",
"b.t w 5 u [.p i w w t p t 5 t O X w q   & p w t ; - w t &       : + & & O X = &   w & & O O + & 5 t X O < f ' < < < t k X X d.2X",
"= w : a y 7 @ # l v @ v @ 7 y A % : 5.v @ @ y y @ @ 0 7 z A y y @.y v T & w p @ v %Xl A A 9 v @ [ [ y p.i f F.J = O # # 7 7 u = ",
"i < @ 8 9 7 7 %X@.l v A 7 v %Xv 7 7 A 4.;.@ @.l (.@ 7 # 0 %X@.y v 7 7 %X& t & : v 9 T I A T 7 3.P P y X R J K.' b.& A y A # X m."
};
