/* XPM */
static char *result[] = {
/* columns rows colors chars-per-pixel */
"64 64 39 1 ",
"  c #373731",
". c #383731",
"X c #363935",
"o c #393831",
"O c #333B3C",
"+ c #2E3E44",
"@ c #2B3E49",
"# c #303D41",
"$ c #27404F",
"% c #2A404D",
"& c #254254",
"* c #284150",
"= c #244459",
"- c #1F4762",
"; c #1F4865",
": c #1E4968",
"> c #1A4E73",
", c #185077",
"< c #17517B",
"1 c #185179",
"2 c #204761",
"3 c #204863",
"4 c #135787",
"5 c #145887",
"6 c #135788",
"7 c #125A8C",
"8 c #0C5F96",
"9 c #0C6097",
"0 c #0B6098",
"q c #0667A5",
"w c #0568A7",
"e c #026BAD",
"r c #017BC1",
"t c #048FD4",
"y c #0593D6",
"u c #0AA7E4",
"i c #0AA8E5",
"p c #16CDFB",
"a c #17D4FF",
/* pixels */
"*@&&@=@@2&&&&&&&&&&&&&&&&&&&&&&&&&=&&&&&=@=@2@@==&&&@=&&&&&&&&&&",
"------>--;-;;;-;;;;;;;----;;;--;:--:-:;;33:::>::;;;;-;;;;;------",
",,<<<,<<<<<<<4<<<<<<<<<<<<<<<1<<<<<<<4<<<<<<<<<<<<<<1<11<<<4<<<<",
"8888888888888888000099898988888888008888000088888888888888888888",
"eterrrrrrrrrrrrreterrrrretetrrrrrrrrrrrrrrrrrrrrrrrrrrrrrrrrrrrr",
"pppppappppppppppppaapppapppppppppppppppppppppppppppppppppppppppp",
"uuuuiiiiuuuuuuuuuuiiiiiiuuuuiiuiuuuuuuuuiiiiiiiiuuuuuuuuuuuuuuuu",
"eeeeeeeeeeeeeeeeeeeeeweeeeeeeeeeeeeeeeeeeeeeeeeeeeeeeeeeeeeeeeee",
"7777777777777777777777775877777777777877777777777777777766677777",
">>,1,>,1,>,,,,,,,,,,<,,<,,,,,,,,<,,<<<111,,,<<1,,111,,,,111>>>>>",
"333333333::33333;:;;;:::;;::::;:::-:3333333333333:333333-:::3333",
"============2=222=====================2=2==2==2========*@2@2==2@",
"*%%%********@&**%**%*%**&%*****%*&*****%************%%*%**%%@@**",
"%%%%+%+%%+%%@@@@%%%%%%%%%%%%+%%%@@%@%@%%@@@@%@@@%@%@%%%%%#%%@@@+",
"##O###########++++++##++++#++++++#++####+#######################",
"OOOOO##OO#O######OOO#OO#OOOO+OOO#O#O#O#####O#O#O#O#OO##OOOOO#OO#",
"OXOOXOOOoXXOOOOOOOOOOOOOoXXOOOOOOOOOOOOXXOOOXoooOOOOOOOOXOXOXOOX",
"XXXXXXXXooXXXXXXXXXXXXXXooXXXXXXXXXXXXXXXXXXXoooXXOoXXXXXXXXXXXX",
"XoXXXXXXooooXXXXoXXXXXoXooooXXXXXXXXXXXXXXXXoXooXXooXX  XXXXXoXX",
"ooooooooooooooooooooooo ooo.XoooooooXoXoXXoooo..ooXo  ooXooooooo",
"....oo.o..oo.oooo   oX  ooo...oooooooooooooo.ooooooooooooooooooo",
"...oooo.o.ooooooo  ooo oo.oooo.ooooooooooooXo.o.oooooooooooooooo",
"o.oo.ooo.....ooooooooo o..o.ooooooooooooooooo.oooooooooooooooooo",
"oo....oo.o.o..ooo   oooo..o..o.ooooooooooooooo..oooooooooooooooo",
"oooo.ooo..o.ooo. oooooooooo.oooooo   ooooooooo.ooooooooooo.o..oo",
"oooooooo.oo.oooooooooooooooooooooo     ooooooooooooooooooo..oo.o",
"ooooooooooooooooooooooooooooooooooo oooooooooooooo.o..ooooo.ooo.",
"oooo.oo.ooooooooooooooooooo.ooooo oooooooooooooo.o....ooo   ooo.",
"oo...oooooooooooooooooooooo..ooo..oooooooooooooooooooooooooooooo",
"oo.o..oooooooooooooooooooooooooooo.oooooooooooo.oooooooooooooooo",
"oooo.oooooooooo.ooooooooo...ooooo.oooooooooooo.ooooooooooooo.ooo",
"ooooooo.oooooooooooooooooo.ooooooooooooooooooooo..ooooo.oooooooo",
"ooooooooooooooooooooooooooooooooooooo.oooooooooooooooooooooooooo",
"oooooooooooooooooooooooooooooooooooooo.ooooooooooooooooooooooooo",
"oooooooooooooooooooooooooooooooooooooooooooooooooooooooooooooooo",
"oooooooooooooooooooooooooooooooooooooooooooooooooooooooooooooooo",
"oooooooooooooooooooooooooooooooooooooooooooooooooooooooooooooooo",
"oooooooooooooooooooooooooooooooooooooo.ooooooooooooooooooooooooo",
"ooooooooooooooooooooooooooooooooooooooo.oooooooooooooooooooooooo",
"ooooooooooooooooooooooooooooooooooooooo.oooooooooooooooooooooooo",
"oooooooooooooooooooooooooooooooooooooooooooooooooooooooooooooooo",
"oooooooooooooooooooooooooooooooooooooooooXoooooooooooooooooooooo",
"ooooooooooooXXoooooooooooooXXoooooooooXoXoXoXoXooXoooooooooooooo",
"ooooooooXXXXXoXXooooooooXXXoXXXXooooXXooXXXXoXXXXXOoXXXXoooooooo",
"XOXOXXXXXXOXXXXXXXOXXOXXXXOXXXXXooXXOOOOXXXXXOXXXXOXXXXXoOXXoXXX",
"OXOOOOOOOXOOOOOOOOOOOOOOOOOOOOOOXoOXOXOXOOOXOOOXOOOOOX#OOOOOooOO",
"O#######################O#OOO#O+OO#O#O#O%X%X%XOX##O#OOO##O#O##OO",
"###%####%+####%###+++###O%+%#%++%#%#%#%#O%O%O%%%#%##%#%##%#%#++#",
"*#**%%%%%%%%%%@%@@&$$@%%%%%%@@$%%%%%%%%%%%%%$$@@*%%%*%%%%%%%%%%%",
"===*==*=**=**=*=&@&&=&&&&=&*&&&&&&&&&&&&&=*=&&&&*==****==**==*=%",
"33333333333333332222-22;2;2;--22=;;222;-=;;=--=-3333=3333=3=3==3",
":>:>:,::>>:>:>>>>>>>>>>::>>:>:>>:>>>>::>>>>>>:>>>:>>>>>:>>,>>>>>",
"5555555544446666446644447444446475444446444444465555555555575555",
"qqq0q0q0qqqqqqqqqwwqwqweqqqwqwwqqqqqqwqqqqqqwwwwqqqqqqqqwwwwwwww",
"uyyyyyyyyyyyyyyyyyyytyyyyyyyyyyyyyyyyyyyyyyyyyytyyyyyyyyyyyyyyyy",
"aaaaaaaaaaaaaaaaaaaaaaapaaaaaaaaaaaaaaaaaaaaaaaaaaaaaaaaaaaaaaaa",
"ttttttttttyyttttttttttttttttttttttttttttttttttttttttttttyytttytt",
"qq8q8qqqqqqqqqqqqqqqqqqqqqqwwqqwqwwwwwqqqwqqqwqwqqqqqqqwqqqqqqqq",
"4444664445554444666666666666446646664466666646664444446644454444",
":>>>>>>>3>>>>>>>>>>>>>>>>>>>>>,,>>>>>,>>>>>>>>>>>>>>>>>>>>>>>>>>",
"-:;---;--:::3333----------------------;;-;;-----;-;;-;;;;---2222",
"@==@=-&=@3@3&====&==========&2==2==2==========2====&===&======&=",
"@@@&&@@@@=@@@=@@$$&$&$&&@=@@&@=@@@@&&@**&&&@@&@&&@**$$$$$$@**@%@",
"@@@@@@@@@@@@@@@@@@@@@@@@@@@@@@@@@@@@@@@@@@@@@@@@@@@@@@@@@@@@@@@+"
};
