/* XPM */
static char *result[] = {
/* columns rows colors chars-per-pixel */
"64 64 32 1 ",
"  c #3C3B2E",
". c #4F3C27",
"X c #433C2C",
"o c #4C3D2A",
"O c #543F26",
"+ c #5A3F23",
"@ c #533F28",
"# c #5B4126",
"$ c #534028",
"% c #634323",
"& c #6D4623",
"* c #6F4822",
"= c #704722",
"- c #754921",
"; c #7D4D21",
": c #87511F",
"> c #89521F",
", c #97541D",
"< c #9C551C",
"1 c #AB5B1A",
"2 c #B4621B",
"3 c #814F21",
"4 c #835021",
"5 c #8D5420",
"6 c #D38720",
"7 c #D38820",
"8 c #DE9724",
"9 c #DE9824",
"0 c #F0B527",
"q c #F0B528",
"w c #F5BF2A",
"e c #F5C02A",
/* pixels */
"++++++++++++++++++++++++++++++++++++++++++++++++++++++++++++++++",
"%%%%%%%%%%%%%%%%%%%%%%%%%%&%%%%&%%%%%%%%%%%%%%%%%%%%%%%%%%%+%%%+",
"--==-=-----------=--------=------=-------------------===----=---",
":>>:::::::::::::3555>>:::::::::>::::::::>>43>:::::::::::::::::::",
"1111111111111111111111111111111111111111111111111111111111111111",
"0000000000000000qqq0qqqq0000000000000000qqqqqqqq0000000000000000",
"8888988888888888888888887888888888888878888888888888788888888888",
"<<<<1<<<<1<<<<<<<<<<<<<<1<<<<<<<<<<<<<<<<<<<<,1<<<<<1<<<1<<<<<<<",
";::;;::;::;::;:;333333333:3::;:-:333333333333333:;:;:;:;:::33;:;",
"*&&&****====&=========&&========--==&=******=&=&***&****=&======",
"%%%%%%+%+%%%%%%%%%%+%%%%+%%%++++%%%%%%%%%&%%%%%%%%%%%%%%+%%%%%+%",
"+$+$#+++++++#++++++.+++O+++++++.++++++++O#OO++++###$##++++++#+++",
"$.$.....$...$$..........+..........OOO..@@@@@@@..$$...O....+.$.$",
"oooo....$...oo$.........................o@X.oo..ooo.....$...oo..",
"XXXXXXX. oX.Xo o.X.XXX.XX..X..  XX.XXX.XXoX.X.XXo.XoX.X.XXXXXoXX",
"XXXXXXXXX X XXX XX XXXXXXXXX    XXXXXXXXXXXXXXXX XX XX XXXXXXXXX",
"X   XXX                                          XXX           .",
"X                                                X          .   ",
"                                                                ",
"                                                                ",
"                                                                ",
"                                                                ",
"                                                                ",
"                                                                ",
"                                                                ",
"                                                                ",
"                                                                ",
"                                                                ",
"                                                                ",
"                                                                ",
"                                                                ",
"                                                                ",
"                    X                                       X   ",
"     X        X                               X                 ",
"                 X                                              ",
" X                                                              ",
"                            X                   X               ",
"X        XX             X X    X          X     X        X      ",
"    X  X             X     X                XX              X   ",
"   X        X      X   X      X                        X        ",
"                 X     XX   X         X        X         X      ",
"   X    X            X      X            X    X       X    X    ",
"      XX    X  XX X           X      XX   X      XX             ",
"X XX X XXXX  XX   XXXX XX X X  X     X  XX XX X X X XX  XXXXXX X",
"    X X XX XXXXXX XXXX XXXXXXXXX   XXXXXX$XXXXXXXX XXXXXXXXXX XX",
"X   $  $XXXXXXXXXXX XXXXXXXXXXXX  XXXXX   XXXXXXXXXXXXXXXXXXXXXX",
"XX    XXXX$XXXXXXXX$XXXXXoXXXXXoX .X.XXXXXXXXXXXXXXXXXXXXXXXXXXX",
"X$     9X$XXX$X$X$XX$$X$oooooooX... X...$XoXooooX$X$X$X$X$XX$XX$",
"4X$Xoo@ooooooo@oooo@o@ooo@@oo@@@o@ooo@o@o@oo@ooo$$X$oooooooooo@o",
" X 4$$@@$$@o$@@@@@@@@@@@@@@@@@@@@@@@@@@@$$@@@@@@$$$$$$$$$$@o@@@@",
"$$$4$$$$&$$@&@&@@####@#@$###@##@######@$##$#####$ $$$$$$&@$@$#$$",
"4X4X$&&$$&&&@@&&%%%#&%%&&%%%%%%%%%&##&&#%%%%%%%#44$4$&&$&$&&&$&&",
"4$$4$4$;&&&&;&&&&&&&&===&&&&&&&&&&&&&&*&*&&&&&&&$4$***$;&&&&;&&&",
" 84444;4444444443333333344;444444444;44;44;4;444444*44;;44444444",
"8X4$5554<55<<555,,,,,,,,,,,,,5,,,,5<,,,,,,,,,,,,5*445554,,<5<,55",
"88w888886666668866666666666666666666666666666666wq98988866666668",
"wwwwqqqqqqwwwwwwqwwwwwwwwwwwwwqqwwwwwwwwqqqwwwwwwwwwwqqqqwwwwwww",
"2222222222222222222222222222222222222222122222222222222222222222",
"4555455545545444,55,5555555555,555555555,55,5555555555,555555545",
";&=;=;;;;&;;;;;&--=-;--;-;-=;;==;=;=*;*;--==;=;=;=;=;===&;;&&;;&",
"#&&&&&&&&=&&@;&&=&%&&&&%&&&%&&%&%&&&&&&&&%&&%&&&%&&&=&&=&&&&&&&&",
"@##@@&@#@@@&@@@@#######%#####%###%@%$##$#%###%@%@##@#%@#@#@&@$#@",
"@@@@@@@@@@@@@@@@+@#@@@@@@@#@#@@@@#@@#@$@@@@@@@@@@@@@@@@@@@@@##@@",
"@oo@@@@o@@@o@@@o.......@@o@@oo@@@o@@oo@@@@@o@@@o@@@@o@@o@@o@ooo@"
};
