/* XPM */
static char *result[] = {
/* columns rows colors chars-per-pixel */
"64 64 13 1 ",
"  c #030503",
". c #060907",
"X c #080B07",
"o c #070A08",
"O c #0A0D0A",
"+ c #0D110D",
"@ c #10140F",
"# c #0F1410",
"$ c #111611",
"% c #131914",
"& c #171D18",
"* c #181E19",
"= c #1B211B",
/* pixels */
"...  . ..  oo o oooo o  o o ....  o..o.. o o ooo oooo ooo o oo o",
"..oO@@+++Oo+++O+++Ooo++++@##+O..  ooOOOoO+OO#$+O#ooO++oOOOOOOoo ",
"ooO$&*$$$++$%$#$$$$##%$##$$$$+o.   o@$$$$%%#%*%#%##$%$##$$$$#+oo",
".o%%**&$+$%&&%$&&&%%&&%$$#$&%+o.  .o#%%&%&&&*=%$%%%%&&#%%&%*$+o ",
"..$$%$@O$$$$$$$$$###$+##@O@%%@o.  oO+$%%$@@@@&%$$+##$#O%$#$#++..",
"..$%%$++%#@###$$##+@#+OOO+@@$+oo  oO+@@$+O+@@&$#$$#+#OO###$+O+..",
"o.#$@$$O@@+O+++$#O++++OOO$$@OOoo  .++OXOO+$$@%+O$%$#OOOOOOO+#O..",
"..oOOX+$@$$$@@++OO#%$O+OO%%%&@Oo   +++X@+oO+@OO+O+OOOO+oO#O+##. ",
"oO+##O+#O#$$%$$+OO##+++OO+@$$+Oo  .O$#O#+OOO+O++O#+O+OO+OOOOOO..",
"oO+$%#OO@@#$$%$+O++++O#O+OO$OOoo  .O$$O++OOOOOOOO##O+++#+o+OO.. ",
"ooO$%O+#%OOOO+$O###$$OOOO@$O$Oo.  oOOOO+O$+OOo+O+O+O.O+OO+$$+X  ",
"oo#$$OO+%@@O+##O#&O$%OOO+$OO$+o.  oO@$$OOO#+O++$++OOOO+OO+O++O. ",
"oo##+OOO##++#+OO#$###OO+O++o$$O.  .@@@OOOO+O+OO$+++OXO+O+OO++O. ",
"ooOOOO++++#O$#OOOO##+OOOOOOOO$O.  .$@oOOOOOO+OO@+O++.O$OO+O++X. ",
"ooO++OooO#+O++O+@#+++OOooO+++OOo  .o+$oOOOOOO@O++OOOXXOOOO.OOOX ",
"ooOOOOOOO++OOOOO@@OO+Ooo+o++OOoo  .oO$OOOOOOOOOOOOOOXXXXO+++O+X ",
"ooOOooO+OOOOO+OO+OoOOOOO+OOOOOoo  ..O+OoOOoOOOoO++OO.OX.O+++.O. ",
"ooooooOoooOOOOo.oXOOOOooooo.OO.   ..XoooOOOoooOoOXXX. ..XO..XX..",
"o                           .       .          .                ",
"                                                                ",
" .... ..     .      .oo      o o ....... .. oo.o ...    .. . ...",
"ooo++@OOOOOOooooOOOOXOOOOoOOoooo.oooOOOOOOOOOOOO++X   ..oOOOooo ",
"oo+$%%$+#+#$+ooo++$$$$$$#+####++##O$$%$%##$##$$$++O.  o++#####Oo",
"oo$$&%$$$$$$+o ++$$$%%%%%$%&$$##$$$$*=%%%%&%%%%%$+O.  O$%#$%%#Oo",
".o+++O+##++#@o ++++$#++@++#%$+++O#+$OO$+##$#O#+#++O  .O$#+OO##Oo",
"..+@#+O++++++O.+##+#@O+##+#$++++OO+#$Oo$#O###O#$+OO   O+#O+##%O.",
".o+@@++OO+#++o.O@#+++++@+++++@@+O##$$+o$#OO+###+++O   O+OO###+O.",
".OOOoO@@+@$++O OooO+++$@o+++@%@OOO.OOo$O+OO+$%+O#O.   X+##OOOOO ",
"..++OO+OoOO+O.oOO+O@@O@+++#+++OOXXOX+$OoO+OOO+++OOO   XO++OOOOOX",
".oOOOOOOoOOOO. OOOO+@+OO++++oO+OO+++O@OO++OOO+#+++Oo  XOOOOOOOO ",
".ooO+@OO+OOO+. OOOO@#@OOo+OOOOOO++$+OoO@+O++#++#++O.  OOOX+O++O ",
"oo+OOOOOO+O++o o++OOOOOO#OOO+OooXXO+OOX+OOXOOOOOOOO  XXOX+++OO.X",
".XO@OXXOO+O++..OO@OO+OO++OOOX+X.XXX@OOOO@.OOO.X+X+X.  .O+OO+++..",
"..OO+++XOO+@O. .OOX++.XO.O+XXX+X+Oo$Ooo@@O@OOX+@+XX   OO+O.++@. ",
".oO++.OOOOO$+o O++OOO+XX.++XOXX.ooooOOoOO.oOX.+XXOO.  ..OOOXOOX.",
".oO+OOOOO+@+Oo OOOOXO++O.++X+XXXXXXXOOOOO.OO+++XOXXX ....OO+OXX.",
".oO+.OOOO+OO+. oOXXXXOOOX.O++...OOOXo.XXo.OOOOOO+X..  .o..OXOOX.",
".. .......XOO. XXXXO..X...XX....ooX oooo....ooo X..   ....X.....",
".         .       .        .                                    ",
"                                                                ",
". ........ .ooo. .......X..XXX..  .oX.oXX.......XXXXXXXX........",
"..oX..XX+OOOOOO+ooOOOOOOOOOOOOoo  oX+++++O+OOOOOOOOOXOOO+XOOOO..",
"..XO++@$########+O$#####+$$##OOO  X$+#$$############+###+###++. ",
".o+$%$$$###%$%#%%$$$$$%#+$=$%#o.  o%$$%$%%%%%%%#$$%%$$%%$$$$$#X ",
".oo++OOOO###OOO####OO++++O+@++X   .+$%+O+#+O++#oO#$$+OOO+OX+#OO.",
".o+++OOO#OOOO++#OoOOOO##+OOO@+X   .O$@++O+OOO#OOOO#OOXOOOOOOOO.X",
".o+++OOO#OOOO++OOoOOOO##+OX+++.    O+@OOOOOO+#ooOOOOXOO+O++OOO. ",
".OO++OXOOOOOOOOO###O#OooO+XX+X.    OOOOO+#++OOoO+OOOOO+OOOO+O+. ",
".ooO+X++X++OOOOOOOOOOO.O@@+O+X.   .+++OOO+XOOO++OOXOOOO#OXOO++XX",
"..OOXXO+X+OO+OOOOOOOO+OO+++O@O..  .OO++++XOX.OOOOOOO+OXOOXO+O+XX",
"oo+O.XX+OXOO++O.XOOO@@OOXXOO+X..  X.OO+++ +X.OO.XOOOOOXOXXOOXXX ",
".oOO+O+X+OOOOOOOO@OOOOOOOXO++@X.  .O++OOXX.OO+O+OOOOXXXOXXOOOOX ",
" oOOOX+XOOXXoOOOOOoOOOoOOOO++OX.  .o+OXOOXXXOOOXOOXOXXOOOO+OO+OX",
".o+OXOXX..X+Oo.OOOoOOOXO+++O+X..  .O++XO+OOXOXX.OXO+OOXOOOOOOO.X",
".oOOOXXX+O.XO+OO++O+$o++OOOX@+.X  .OOOOO+OXO+XO+OOOXXXOXXXO++O.X",
" ooOO+XO+OXXOOOXOOOOOOOOOOO++X..  .XO..XO+O...XOOOOOXXOXXXOOOO. ",
"..XXOOOXXXO.OO.XoOXooXoXOoXoOOoo  .oO..oOO+X.X.O.Oo...XOXOO..X..",
".O. X.XX.......OooooooooOOOooooo  ..O.oOX..OOO   .... ..XX.X.X..",
"                                                        X       ",
"                  .                   .               . X       ",
" ...XX. . ....  o.ooo... o..oooo...O.oO......... ...  .X.O.oXX..",
"..OO+++XOOOOoOO+O@@O++XXoOo.OOOOOOOOOOOoOO+++O+OOO..  .OOOO++OX.",
"..++#++O+###+++$@+++++O++@+++O++$#$$$O#O+#$++++$@@O.  o++++##+X.",
".O+$$@+++$$#####$@O+++OO++$$$++$++%$$###$$++#+$$$OO.  O++++$#OX "
};
