/* XPM */
static char *result[] = {
/* columns rows colors chars-per-pixel */
"64 64 25 1 ",
"  c #35352F",
". c #363530",
"X c #3B3532",
"o c #532F3E",
"O c #433336",
"+ c #473338",
"@ c #4B313A",
"# c #52303D",
"$ c #562F40",
"% c #5D2C43",
"& c #563040",
"* c #612B46",
"= c #6F274E",
"- c #672949",
"; c #6C284B",
": c #70274F",
"> c #722750",
", c #7E2357",
"< c #7F2358",
"1 c #871B59",
"2 c #8B1A5B",
"3 c #822259",
"4 c #AD1672",
"5 c #CD2A9C",
"6 c #F54AD3",
/* pixels */
"..................................XX.......X..X..X..............",
".......X...........X..X.............X......X.........X....XXX...",
"........X..X................X.X...........X.X...X..X............",
".X..X.X..XX..XXX..XXX.XX...X.X...XX........X.....X..X.....X..X..",
"X.X.X...X.XXX...X.....XX..XXXXXX.XXXX.X.XX....X.X.XXXXXX..X.XXXX",
"XXXXXX.X.XXXX..XXXX.XXXXXXXX.XXXXXXXXX.XXXXXXXXX.XXX.X.XXXXXX..X",
"XXXXXXXXXXXXXXXXXXXXXXXXXXXXXXXXXXXXXXXXXXXXXXXXXXXXXXXXXXXXXXXX",
"XXXXXXXXXXXXXXXXOXXXXXXXXXXXXXXXXXXXXXXXXXXXXXXXXXXXXXXXXXXXXXXX",
"+XX+XX+XXXXX+XOOXOXXOXXXOXOXOXOXXXX+XX+XOXXOXX++XX+X+XXXXXXX+XX+",
"+X++++X++++++OOOOO+OO+OOOO+O+OOO+++X+X+O+OX++++X++++++++++++X+X+",
"++++++++++++++++++++&OO+++@++++++++++++&++++++++++++++&+++++++++",
"++++&++&+&++&+&++&@&&O&+&&@@@&&@+&+&&+&&&++&&+&&&++&++&&++&+&+&+",
"&&&&&&&&&&&&&&&&&&&&&&&&&&&&$$$&&&&&&&&&&&&&&&&&&&&&&&&&&&&&&&&&",
"&&*&&&**&*&&&&&&%%%%%%**&%%%%%**&&&&&;&&&&;&;&*&&&&&&&&&&;&&&&&&",
";;;;;;;;>>;;;>>>;;=;=;;;;;;;==>>>>>>>>>>>>>>>>;;>>>>>;>>>>&>&+>&",
"33333333333333333<3333333333<11233333333333333333333333333333533",
"4444444444444444444444444444444444444444444444445444444444444444",
"6666666666666666666666666666666666666666666666666666666666666666",
"5555555555555555555555555555555555555555555555555655555555555555",
"333322232122222222222222222222222222222222222222>33<222333222223",
";::;3>>>::::::>>::::>:>>==>=>>>><>>>>>>:3>>>>>>>;;>>>>>>3;;;3>>;",
"%%%%%%%%****************--*--**---*-**-*-**-*--****&**%%%*-%&%%%",
"##&&&&&&#ooo####ooooooooooooooo$$$$$ooo####o#o##&&&&&&#&##&&&#&&",
"+++++@++@@@@@@@@@@@@@@@#@@@o@@@@@@@@@@#@##@#@@#@&+#+##++@+@+@@@@",
"+OOOOOOOOOOOOOOO+OO++O+++++O++++@+++++++O+O+OOOO+OOOOOOO++OOOOO+",
"OOOOOOOXOOOOOOOXOOOOXOOXOXOOOOXOOXXOXOOXOOOOOOOOOOOXOOOOOOOOOOOO",
"XXXXXXX.XXXXOXOXXXXXXOXOXXXXXXXXXXXOXOXXXXXXXXXXOOXXOOXXXXXXXXXX",
".XXXXX.XXXX..X.XXXXXXX.XXXXXXXXXXXXXXXXXXXXXXXOX  O   XXXXXXXXXX",
".X.X .X ........ X...X..X .....X X. X X ..XX XXX  O ...XX XX   X",
". ... ..........  ......  ...... ...   XX. .        ....     X  ",
" .. ............  . ....   ...X . ..    ....X       .     X   X ",
"...... .........   ..... X  ..  ..  X   ... .          X        ",
"..........X............. XX  XX.X  ..   ...X   X      X     X   ",
"..X..X........X.X.XX..XXX XX..X.X. XXX.X..XX X XX .. X XX.XX X X",
"XXXXXXXXXXXXXXXXXXXXXXXXXXXXXXX.XXXXXXXXXXXX.X.XXXXXXXXXXXXXXXXX",
"XOXXXOXXXOXOXXXXXXXOXXXXXXXXXOOXXXXOXOXXXOXXOXXOXXXOXOXXXXXXXXXX",
"OOOXOXOOOOOOOOXOOOXOX+XXOX+XOOOOOXOOOOXOOOOOXOOOOOOOOOOOOOOOOOOO",
"OOOOOOOOOOOOOO++@OO@@X@+++X$OOOO++OO@OO@O+OO++O+OOOOOOOOOOOOOOOO",
"+O@+@@@@@+@@+@+O++@@@+@X$X$OO+@O@@+@++@@@@+++@++++@@@O@O++@+@@+@",
"#####@#@####&@&&ooo$@$$$$$$$$$$$ooooooo$#oo#oooooo#@####o@@oo@o@",
"oooo%o*o$%$%%%%%%%%%%%%%*%%%%$**%%%%%$%$%%%%%%$%%o%o%o%oo%o%%%o%",
";;-*;-;;;;=---;=;-;;-;;;=>-=-==>;;;-;;=;=-;;;>;;;;;-;-;*;;------",
",,,,,,33<<<<<33<<1<<<<<1<2<<<<<<1<<13<3<33333333313333,113,,,,13",
"4444444444444444444444444444444444444444444444444444444444444444",
"6666666666666666666666666666666666666666666666666666666666666666",
"5555555555555555555555555555555555555555555555555555555555555555",
"111211112121221111211122<2<<<2<<11112222112222112221211211111211",
";;;::;:;======:==:=:::=:>>,=>,====>>====>>::>>>>:::::;::;:==:;;-",
"%%%%oo***o%%%%%%*****%***********%**********%***%o**%%%%%%%%%%%%",
"####ooooooooooooo$@oo@o$@ooooooooooooooo@oooooo$ooooooooooooo@o@",
"++++@@@+@@@@@@@@@@@@@@@@@@O@@@@@O@@@O@@@@@@@++@@@@@+@@@@O@@@@@@O",
"OOOOOOOOOOOOOOOOOOOOOOOOOOOOOOO@OOOOOOOOOOOO+OOOO@OOOOOOOOOOOOOO",
"OOOXOXXOOOOOXOOXO.OOOOOOO O OOO  OOOOXXOOOOXOOOOOXXOXOOXOOOOOO O",
"XXXXXXXX X XXXXXO..O.X.OO  O OO O O OXXX XOX.O.XXXOXXXOX   O OO ",
"XXX XXXX X XXXX X.X..X..   O O OO   XXXXXX  X... X X X X O      ",
"    X   X  X     X... .. O                X .... X   X    O  O  ",
". ..         X  ...........  ..         ... ..   X   X    X    X",
".     X           . ..  .. .  .       X ..   . .       X        ",
"                     .. . . ..          .. ...                  ",
"             X      .       ..        X ......             X    ",
"                    ..                     .  X   X            X",
".X                  .                     ..          X         ",
"   .        X     . .    .     XX   X  X    X   X       X       ",
"   .          X . ..                                        X X "
};
