/* XPM */
static char *result[] = {
/* columns rows colors chars-per-pixel */
"64 64 42 1 ",
"  c #3E4D27",
". c #3F4E28",
"X c #414F2A",
"o c #44522C",
"O c #48552F",
"+ c #4A5B2D",
"@ c #475530",
"# c #485630",
"$ c #4C5A31",
"% c #505A37",
"& c #53652E",
"* c #56692F",
"= c #596D2F",
"- c #5A702F",
"; c #556631",
": c #586734",
"> c #576831",
", c #5A6C33",
"< c #5F6E39",
"1 c #5D7132",
"2 c #616E3B",
"3 c #617336",
"4 c #627338",
"5 c #5E5E47",
"6 c #605F47",
"7 c #605F48",
"8 c #616247",
"9 c #65634C",
"0 c #68664F",
"q c #6A694E",
"w c #6A6750",
"e c #6D6A53",
"r c #716D56",
"t c #736F58",
"y c #737156",
"u c #75715A",
"i c #7A755D",
"p c #7C785E",
"a c #7D7760",
"s c #7E7961",
"d c #817B64",
"f c #867F68",
/* pixels */
"o...oo..o..ooo. X XXo XXoXoXooooXoo.o......o.o. . oooXo  X  ooo ",
"o.oo@@ooOoOOOooooooooooooo+oooXooXoOOoOO@@@oO@oo.ooooooooo+oOoo.",
"o@iassssiasspi111-,=--1-11yiauOXoOiasaasaaaasspi1----111---3iuO.",
"o#sdsfddddddfp411,==-33313ppdioXoosdsdfdaafddddp11-11-313-33ppO.",
"oOadrww00wreyreq,&&*eeuryyrrrr@X.@ssewuyreeweeue,&>=&>eyreyeiuOo",
"oosseee0w9erqerq;>,<rtttyyeereoo@@sseweereeweere,>>>&;wtuiutueOo",
"ooadeeaaaieeew1>&;erq9999qee00XX.@ase099weutaaqqweyr>&,<eeweeqoo",
".oistwaaaawwww,;;;yte0979qeww9oX.oase889wwtaateeeeye<:,,0eeee0O.",
"o@adw9eeeeeeeeeweeruairwertuur@o@@sfyeweeew0q9rere,1ppe0eryir0@o",
"o@aaw9eeewweteewrruusateetuutw@o.@aayyterww9qeeere:,uiyeeeiir0o.",
"o@ettrre09w9trrweeyrreretew9ww@X.@eerryrw9teuy<->:eqewyeye99ee@.",
"ooweteyw8899rte090eqw0eeew98w9oo.@9weeur99etue>&&>0q00qee99509o.",
"ooooooooOoooo@OooooooXoo@oXXoooo@.oo..oo@@o.@@ooooOoooooOOoooo..",
"@ooXoOoo+ooo.oo.XXoXXXoooooooOo@##@@@@o.@.o.ooo+..o.ooXoooo @o@@",
"ssaiiy,=-1=-1111oo1---3--<uisssssssaai1-11111111oo11--1-=-=1issa",
"dddspi1*1-,-311=oo=1=13,13aasdddfsfssa<1<1111111oo331,11>=,<pdss",
"eere<;&&,=1,qq,=oo,1*>qqeeuuyeteeeeweww090eq>=>>o+ii1>,>&>yyeeee",
"weew,;$;>,<,q9,* o,1>,qrtyyrreeweew00wew00eq>&,,oodp,&,:>,yte9ww",
"eeuteqwqerwq,*,&oX=*qeeeew,<09wweereaaw0er<:*>99oopd>>qeqqqwewee",
"ttuurerruee0&&>;oo=,eereew,;99wwweutauwwyr>>>,e0ooss,:errewqweue",
"ewwwrrreee<;88w8@oyisirq1,wweweetrw9reeewq*>q0e0oosfyewwye99eere",
"e999rruee8>;89e8oouadpeq<,eeyyeeaaw9eeteee,:0ee0+ossuyeere99eeqe",
"eererrte,;;:weeeooui<<12qqrw>:0wtterrrrr00iyeere@@sfyeeeeeeq:>,<",
"errrreeq>&;<etteXoeq=,,,eeeq;>qereetyrye0esarrrw.@asrweeewq0&&>,",
"ew9999<,11eeewew@X<,,=,,,**<rqeee099ew<:yuiy09e0o@ete999ew>&&,qq",
"995796&&,,ye9909@o:,&&,,&&&,rwe0955508;;ruyq7805oo90w95599>&&:00",
"@oXXOOo.ooOO@.o@ooX  Xoo+oooooXo@X.XOo..oo@oo.oX.oooooo..@oO+...",
"XX@Xo@ooOOOO.oo@ooooooOoooo++oXX..o.oooo@ooO@o@o@@oooooo..oooo..",
"X@usaisappsaassssssssssi1=-1111,oo11111,assasssasssasaau11-11-$.",
"oosfsssaapsssdsfdddddddi1-1-111,oO131,,1ssdddsdssddddssp1--11-+o",
"X@sfteew99eeiy00erw009ee9eeq,*=*ooss>&&>eeweyte0wweyuy<1:>>*->oo",
"X@sdwwee990wye08rrw099eeeee9,*;;.oss<;;;re00eew000eeee,>,>:>,-o.",
"o@adeeiiiiq0eeuutuw0ttq9eq2;&>re+oafeeaiaiut99tauire:&,&qeryiuOX",
"o#adersiiue000uuduw0uur8e9*+&;ueooaseyssaiat77raaate,&>:erttpiOo",
"ooadw0rreere3<eqeeeeerdy2*&&9qewooaseeyrrw99ew79ttre000qii09rrOo",
"X@iuw9eqeere,,00eew0wrdi*&&2eey0o@aarereee99re97eeeew0eriu09eqOO",
"o@eeyq,&:,,3qeerrewwrrre,;erreeq@Xee90eeeetteriyweerreee99etye$O",
"oo0wqq,&;,&:qeqew000rre9**eeeew0@@w058eweeee0wyr99eeew0q75errw$O",
"o.oXooXXoooO+oXoOOXXXOOoXXoOooXXoXXXX@.@ooOoOoXo@X@ooooooooooooo",
"@oo@+oXoooooXoXXXXXooXOoOOOOOXoX@@XX@X@.@OooOooXX oXooooooO@oooo",
"aaau11113111,111ootddididdudduddssssdiddppdppu3=+o1113-,11iipdii",
"sasa<1111,1=,=1,X@ddddddddddddfddddsdddddidiii3,oo,33=3,33iipddd",
"ewq0eq>&=,,===,*ooddreqerew7rtrrrererrw909re,,,*oo,=**0qee0970qe",
"w000ye>*,=3,,,,;OOide0eeee77rrreeweerew999q9,=,,oo=,,:rrre9990eq",
"yerrwq,>,,ryiir0@@ideerrttddwwe7rrreeeuure,;&;rqoo*=97w0wrtutre0",
"uruew9*,,,yudiw0oXade7ruudduw7wwttewwwuurq:&;:teOo<,w770etuiur00",
"eeew,;&,yyrrrrw7@Xddrw07eteeeruueere97::,,e0eetroOuittwereeerr07",
"eeew,&*,utrrte00X@iire00eeeertddewrew9<;=,wrttreOoisatrwrwwwerw7",
"re,<qeqeeew9ree0oo11>:reeq80eererr77eeeeeeeerewwooww0qe077790e09",
"w9;;eeeee0970009XX&*&>reeq669qe07077eeeeeweew999oo7790e077667009",
"@o..XooXoooooXXX  oXoXXXoXXoXOXX@@XXXXooooXoooXXXXXXooXXXXoXoXXX",
"o.oX@oooOooOooXooooXOooooXooOOXXXXX@oooXoooo@@XX@X@oOXooooo+oooo",
"ooisapssiiiiau3-1111111311idudde@Xidiiaaaiidaaaaaiisiiiu131311,=",
"o@sfssdddddddi431111113433ududdd@@ddddddaddddaaaadaddddi1=1133,=",
"oOase9eeq000,:*=>>&&&,0ee999qere@Xidw0erw999eeee99we90q0,,*;qq:=",
"ooisw9eeeq00:;&&12;&&20eee00qeee@Xidwwre9997ewew779w0909,&;,re:&",
"Xoidrwe000rrruiireutw0eerudreee0@@idrwwwttteew9wtrter0:>*:yyq9$+",
"X@adtre707uttiidredueeeeuudde7e0@@adrew0iaaaew97uutreq:,:,tr00OX",
"@@ddrrrriuurw7rueee777uudruitee0oodd00uuteereraarre0,:yuyrttr0Oo",
"X@tdrrruiitw07errew700turerrrrr0X@ui90udteeerrtar009:,tiittrre+o",
"X@rte0e0errerwrweeeerereee770er0@@rteeuewww9ertrew990err0900e0oX",
"ooerqq00q0re00ww07e0eee0777770q0@@00wwee98990weww0990eeq769679#X",
"oX@@oooooOooo@@@oXOOoXOOOOoXoooOXX@@@@@@oooXOO#OoXoOoOOOo#oXXooo",
"oXXXXXXXXXooXXXXXXXXXXoXXXXXoXXooXXXXXXXo..  oooX XoXooXooXXXXoo"
};
