/* XPM */
static char *result[] = {
/* columns rows colors chars-per-pixel */
"64 64 34 1 ",
"  c #3A372E",
". c #3B392F",
"X c #3D3730",
"o c #3C3930",
"O c #562F3B",
"+ c #5D2F3E",
"@ c #433633",
"# c #4B3337",
"$ c #4E3238",
"% c #53313A",
"& c #59303C",
"* c #612F3F",
"= c #622F40",
"- c #6B2E43",
"; c #702D45",
": c #762D48",
"> c #7B2E4B",
", c #8C274E",
"< c #812E4D",
"1 c #8D284E",
"2 c #91254F",
"3 c #872D50",
"4 c #882D50",
"5 c #922550",
"6 c #9F2557",
"7 c #A02457",
"8 c #A12458",
"9 c #AA275F",
"0 c #AB2760",
"q c #CB4587",
"w c #CC4588",
"e c #D65197",
"r c #EB6CB5",
"t c #F075BE",
/* pixels */
"OOO+&O&&O++&&&&&OOOOOOOOOOOOOOO&&OOOOO++&&OOOOOOO&%OO+OOOO&&OOOO",
"==**************==-==-=-========================================",
";:;;;;;;;;;;;;;;::;:;:::;:;;:;;:;;;;;;;;:;;;::;:;;;;;;;;;:;;;:;;",
"<<<<<<<1<<<<<<<<>>>>>>>>>3>>3>>>>3>3>3>>3>>>>>>3>3>>3>>>>>>3>>3>",
"8898889888887878666888608888888866660666866688869666666660888888",
"rrrrrrrrrrrrrrrrrrrrrrrrrrrrrrrrrrrrrrrrrrrrrrrtrrrrrrrrrrrrrrrr",
"eeeeeeeeeeeeeeeeeeeeeeeeeeeeeeeeeeeeeeeeeeeeeeeeeeeeeeeeeeeeeeee",
"5555555526555252555555465555555555555555555555555555555555555555",
">>>>>>>><<<>>><>>>>>>>>>>>>>>>>>>>>>>>>>>>>>>>>>>>>>>>>>>>>>>>>>",
";;;;:;;;;*;;;;;--;;;-;--;-:--;;;-;;;;--;:-;---:--;;;;-;;;;-;;;;:",
"===-====****====================================================",
"+&&&&&&&&&*&+&&&&&+O+&&&&&&&&&&&+O+O&&&&&&&&&&&&&+&&&&&&&&&&&&&&",
"O%%%%%%%%%%%%%%%$O%$%$%$%$%%%%%%$%%%%%%%$%%%%$%$$$%%$%%$%%%%%%%%",
"$$$$$$#$$##$$$##$$$$$$$$$$$$####$$$$#$##$$$$$$$$$$$$$$$$##$$$##$",
"@#@##@@#@@#@@@@#@@#@#@@$@#@@@##@@$@$####@#@@@@$@#@#@@#@#@@#@@#@#",
"@@@X@@@@@@@@@@@@@@@@@@@@@@@@@@@@X@@XXXX@@@@@@@@@@@@@@@@@@@@@@@@o",
"XXXXX@XX  .. oXXXXXXX@@X......oX@XXooooo@XXooo..o@@X.oooXXXX@XX@",
"XXXXXXXX  ..X   XXooXXXX......ooXXXoooo.Xoo o...ooXo  oooXo XooX",
"XX    XX ...   .X     X .    .  oo  oo  o .. o..  oo .. o o   oo",
"Xo        ..   . X       .   ..           ..  ..   o ...   o    ",
"      .... ......     ..........            ....  ..   .  .    o",
"      ....  ......    ..........  .     o   ....  ..  .    .  . ",
"     .. ........ ..    ..........  .. ....  ....  o.   .  ... ..",
"      ...........     . .......... ......oo ....  oo   .  ......",
"........o..............o...o.....      .................  ......",
"..........................oooo....  ..........o.................",
"........oo...............ooooo......o..................o........",
".........o....oo..........o..... .....o....o....................",
"...........o...........................oo......o....o.....oo.o..",
"......oo.................ooo......o..o.oo.o..o.........ooooo...o",
".....oooo................o......o..o.o.o....ooo......o..oo..o.oo",
"......oo.ooo............o..........o....oooo..oo.....o.ooo.oo.o.",
"o.ooo...oooooo.oooooo...oooo....o.o....oo.....o....oo.o.o.o.oo..",
"..ooo.o....o.o..ooo......oooooo.o...oo.oo.......o.....ooo...ooo.",
".oo.oo...o......oo.o....o.o....o...ooo.......o.o.oo..oo.......o.",
"ooo.oooo......o..o..oo.......o...o.oo..ooo........o.o....ooooo..",
"ooooo.ooo.o.ooooo.o..o..oooo......oo...o..o...o.o..o.o.oo.oo.ooo",
"oooo..o..ooooooo...ooo..ooooooooo.o..o...oooooooo......oo...o..o",
"ooooooooooooooooo.o.ooo.ooooo.ooooo.oooo.oo.ooo..ooooooo..ooo.oo",
".o..ooooooo.ooooo.o...o..ooooooo.ooooo.oo.o..o..o...oooo.o.oo.o.",
"oo....o.oooooooo........ooooooo..o.ooooooooooooooooooooo.o..o.o.",
"o.o.o...oooooooo.ooo...oooooooo.o...oooooooooooo.ooooooo..o.o...",
"..o.o...ooooooooo..o.o..ooooo...o.o.oooo..o.oooo..oooooo.o.oo...",
"ooooo...oooooooooooooooooooooooooooooooooooooooooooooooooooooooo",
"oooooooooo@oooo@ooooooooo@oo....oooo@oo@oo@ooooooooooo@o@ooooooo",
"@@@ooooo@o@o@o@o@@@@ooo@o@@o@@@@oo@o@ooooooo@@@oooooooo@oo@@oooo",
"@@@@@o@@o@@o@@o@@@@@@@@@@@@@@@@@o@@@@o@@@@@@@@@@@o#oo#@@#@@o@@o@",
"$@@###@##@$#@$#@#@@@@#@#@#@#@@#@@@#@###@#@#@@##@####@#@@#@@#@@@#",
"$@$$############################################################",
"&$$$##%##%%##%#%%%$$$%%%$$%$%%#$#$$$$$$%$$$$$$$%$$$$$$$$$$$$$$$$",
"&&*$%&&%&%&%&%&&&%%%%%O%&%%%&&&OOOO&OO&O&%%&&&&%%$&%&&**&&%&%&&&",
"***=*******+**+*++*+*+*+++*+&*&+***&****++*+*&&&********++++++++",
"------*-----------------*-**;**-************=---****<***********",
"><><>><>:>:<>:::>>:::::>>>>>><>>>><<>><<<><<>>>:<<*<<<*><<<<<><1",
"44411111111111114,1111,,2,,,,,,,,,,,1111111111114411111111111221",
"eqqqqqqqqqqqqqqqqqqqqqqwqqqqqqqqqqqqwqwwwwwqqqqqqqqqqqqqqqqqqqqq",
"tttttttttttttttttttttttttttttttttttttttttttttttttttttttttttttttt",
"9999999999999999999990009999999999999900099999999999999900000000",
"4414441<4<4<4<<4<44<3443444444134441444433<144444444444445414444",
":<>::>:::>>:>:::::>::::::>::::>>::*<:::>:::::::::::::::><*<*:::<",
"-----------;--*-------------*;-**-;***:*--*----***;****:;******:",
"************+*****+++*++&*&*+****+******+******+*+**++**********",
"&&%&&&&&%&&&&+&&OO&O&&O&&&&&O&&&+&O&&&&&OO&%&&%&&&&&&&&&+&&&&&+&",
"%%%%%%%%%#%%#%%#%%%%%%%%%%%%%%%%%O%%%%%O%%%%%%%%%%%&%%$%%&%%%%%%"
};
