/* XPM */
static char *result[] = {
/* columns rows colors chars-per-pixel */
"64 64 170 2 ",
"   c #3E312E",
".  c #2C3435",
"X  c #283738",
"o  c #2D3B3C",
"O  c #333635",
"+  c #3C3534",
"@  c #353837",
"#  c #3C3837",
"$  c #3E3738",
"%  c #343A39",
"&  c #3C3939",
"*  c #45352E",
"=  c #4A362D",
"-  c #4F3A2E",
";  c #503129",
":  c #543A2B",
">  c #462E35",
",  c #4E2F3A",
"<  c #522F3B",
"1  c #592C3D",
"2  c #423334",
"3  c #483434",
"4  c #423A35",
"5  c #433539",
"6  c #4E303B",
"7  c #403838",
"8  c #503E31",
"9  c #50303B",
"0  c #693F26",
"q  c #652B3F",
"w  c #39403E",
"e  c #58402F",
"r  c #6A4027",
"t  c #64402A",
"y  c #7C4726",
"u  c #744526",
"i  c #263F41",
"p  c #293F40",
"a  c #4C3640",
"s  c #6B2943",
"d  c #742646",
"f  c #7D2449",
"g  c #782246",
"h  c #1F4F52",
"j  c #1E5153",
"k  c #1B585D",
"l  c #244344",
"z  c #2D4446",
"x  c #244648",
"c  c #254A4D",
"v  c #214E51",
"b  c #215154",
"n  c #1C5F64",
"m  c #1A6165",
"M  c #14676C",
"N  c #1F6772",
"B  c #166D73",
"V  c #186E74",
"C  c #157176",
"Z  c #187076",
"A  c #167379",
"S  c #20636D",
"D  c #714F75",
"F  c #913733",
"G  c #9E531F",
"H  c #A55B1D",
"J  c #A95E1C",
"K  c #B45C1C",
"L  c #BC5E1E",
"P  c #A9601B",
"I  c #B3621B",
"U  c #BC601A",
"Y  c #824823",
"T  c #854923",
"R  c #8C5121",
"E  c #9B5022",
"W  c #BD4B2F",
"Q  c #A05B20",
"!  c #BD5428",
"~  c #BC5B22",
"^  c #BB4635",
"/  c #CD6C16",
"(  c #C6611A",
")  c #DA6717",
"_  c #D46C16",
"`  c #DC6D16",
"'  c #D4641A",
"]  c #DF6618",
"[  c #D46919",
"{  c #D57114",
"}  c #D97115",
"|  c #E56B16",
" . c #F6651E",
".. c #ED7513",
"X. c #F17413",
"o. c #C05C21",
"O. c #931B4D",
"+. c #9E1E56",
"@. c #A31F56",
"#. c #A41D58",
"$. c #AB1D5A",
"%. c #B41B5C",
"&. c #B91C5E",
"*. c #81244B",
"=. c #8C224E",
"-. c #93224F",
";. c #942251",
":. c #992152",
">. c #A4274C",
",. c #BA2A4F",
"<. c #BB3B40",
"1. c #BB324A",
"2. c #A22057",
"3. c #A42058",
"4. c #B92653",
"5. c #BE1861",
"6. c #CD185F",
"7. c #D1195F",
"8. c #D33241",
"9. c #C62555",
"0. c #D20F63",
"q. c #C71760",
"w. c #CA1766",
"e. c #C51A64",
"r. c #CA1866",
"t. c #D11567",
"y. c #D31A65",
"u. c #DC1867",
"i. c #D31668",
"p. c #D91669",
"a. c #D21869",
"s. c #DF1270",
"d. c #E20D6E",
"f. c #EA0E6E",
"g. c #E4126E",
"h. c #E40F72",
"j. c #E31171",
"k. c #E81578",
"l. c #167A87",
"z. c #13848D",
"x. c #11898F",
"c. c #0F8F95",
"v. c #0E8F98",
"b. c #118793",
"n. c #118C92",
"m. c #0F9097",
"M. c #0D949B",
"N. c #109095",
"B. c #11909F",
"V. c #0B9EAF",
"C. c #0B9EA6",
"Z. c #0B9FB2",
"A. c #0BA5AE",
"S. c #0AABB4",
"D. c #0CA6B6",
"F. c #1FA8BC",
"G. c #08B7C6",
"H. c #09B1C8",
"J. c #06BCCB",
"K. c #07BAC4",
"L. c #06C5CE",
"P. c #04C8CF",
"I. c #05C3D3",
"U. c #04CAD3",
"Y. c #04CCD9",
"T. c #03D4DE",
"R. c #05CEE3",
"E. c #03D6E1",
"W. c #02DBE4",
"Q. c #03DCE8",
/* pixels */
"& & & # & & & & & & & & & & & & # & & & & & # & & & & & & & & & & & % & & & & & & & w & & 7 7 & & & & & & & & & & & 7 w # # 7 & ",
"& & & & & & & & # & & & & & & & & # # & & & & & # & & & & & & & & & a & & & & & & & 7 & & & & & & & & & & & & & & & & & & # & & ",
"& # & & & & & & & & & & & & & & & & & & & & # # & & & & & & & & & & & & & & & & & & & & & & & & & & & 7 & & & & & & 7 & & & & & ",
"& & & & & & & & & & & & & & & & & & & & & & & & & & & & & & & & & & & & w & & & & & & 7 & & & & & & & & & 7 & & & & & & w 7 & & ",
"& & & & & & & & & & & & & & & & & & & & # & & & & & & & & & & & & & & & 7 & & 7 & & & & & & & & & & & & & & & & & & # 7 7 & & & ",
"& & & & & & & & & & & & & & & & & & & & & & & & & & & & & & & & & 7 & & & & & & & & & & & & & & & & & & & & & & & & & & 7 & w 7 ",
"& # # # & & & & & & & & & & & & & & & & & & & & & & & & & & & & & & w 7 & & & w & & & & & & & & & & & & & 7 & & & & w 7 7 & 4 & ",
"# # & & & & & & & & & & & & & & & & & & & & & & & & & & & & & & & & 7 & & & & 7 & & & & & & & & & & & & & & & & e & & & & & & & ",
"& & & & & & & & & p & & & & & & & & & & & & & & & & & & & & & & & & w 7 & & & & & w 4 & & & & & & & & & & & & & p # & & & & & & ",
"& & & & & & & & 7 5 & & & & & # & & & & & & & & # & & & & & & & & & & & & # & & & & & & & # # # & & & & & & & & & & & & & & & & ",
"& & & w & & & & 7 & & & & & # & # & % & & & & & & & & & & & & & & & & & & & & # & & & & & & # & & & & & & & & & & & & & & & & 7 ",
"& & % & & & & & & & & & & & % & & # & & & & & & & & & & & & & & & & & & & # & & & & & & & & # & & & & & & & & & & & & & p & & & ",
"w w % w % % w w w & w & z % & w & # & & & & & & & & & & & & & & & & & & & & & & & & # & # & & # & & % & # & & & & & & & 5 7 e p ",
"l l l l l l l l l l l l z o l l z % & & & & # & # # & # & & & & & & & & & & & & & & # # & & & & & & & & # & & & & & & & 7 7 & & ",
"J.I.U.U.P.U.U.P.P.U.P.P.P.P.L.U.S.x & & & % & & # % % # & & & & & & & & & & & & # & & & & & & # & & & # # # # & # # & & 5 p & & ",
"l.z.c.c.c.m.m.m.m.M.m.M.M.M.M.c.U.m.o z & & # # # & # & & & % & & & & & % & & & & & & & & & # & & & & # # & % & & & & 7 & & & & ",
"% O o O O o % . O O . @ o o o . k T.n o % & p 7 # & & & & w % & % % & & & & % # & & # & & # & & # & & w # & % & & z & w w & & w ",
"w & w & & & & & w & w & w & w w O x.J.i p i p z z p l l w w i o l w l z z o p & % # & # & & & & & % % l l l x l l z x x x l l x ",
"# & % & & & & % w # & & # & & & & w S.I.G.J.L.L.L.L.P.P.U.L.P.P.L.P.P.L.I.U.B @ & & & & # # & & & % m I.U.U.U.U.U.U.U.U.U.U.U.U.",
"# & # # & & & & @ & & # # & & % & % j b.b.n.n.n.n.n.n.m.c.c.c.c.N.n.N.n.n.A.Y.v % & & # # & 7 7 & l L.A.z.x.b.c.x.n.n.x.n.x.x.x.",
"& & & & & & & & @ # @ # w & & # & z & O O % O . O . O O O O . % O % O o # . A.S.o & & & & & & p O C.K.X @ O % @ O O O O O O O O ",
"& & & % & % & % w w w % & % & % & & % % & w & w w & & & & & & # & & & # p & z Y.A O % % @ @ % O n T.k # & # & & & w & & & w w & ",
"& & & & & % w c j j j j j j j j b b v v v b b x % & # & & & & # # % & & & % O Z U.B C Z V Z A B I.z.O % & # % # & & & % & # # # ",
"& & & & & % x K.Q.T.W.T.T.T.T.T.T.T.T.T.T.Y.T.J.b % & % & & % $ # & # & & # & @ B.R.Y.T.E.E.E.Q.A.o # $ & & & # & & # & & # # % ",
"& & & & & @ v.G.M A C C C C C C C C B B B B M V.V.o $ # & # # $ # & # & # # & # p c c c v c v z p % # # # # # & & & # # & $ # % ",
"% & & % @ v I.n X % @ o % % % % @ @ @ @ % % % l H.N + # $ $ # $ & # $ # & & # $ & & p 6 & 7 $ $ 7 $ & & & $ $ $ @ # # # % $ # # ",
"& & & & o Z.b.% p & & % & & & & & & & # & % & O S F.a , < < < < , 9 9 < 9 , , 6 , , < , 9 6 6 a , < , , , < 9 5 & # # # $ % $ # ",
"& # % # z l.z % 7 # # # # # % # & % # # & # # & O D k.s.d.h.d.d.j.j.j.h.h.h.h.h.s.h.h.h.j.h.j.h.j.j.j.j.j.s.h.*.# & # # # # # # ",
"# & $ $ % O & # & & & # # # # # # & # # # # # # , 0.O.g g f g f *.f f f *.f f *.f f *.*.f f *.f *.*.*.f f g O.i.a $ $ $ $ # # # ",
"# # $ $ $ $ & $ & & & & $ & $ $ # # $ # & $ 2 O #.#.O $ + + # # # + # # $ # + + $ @ $ O $ $ $ $ $ O # # # $ O +.q.+ 5 $ $ $ & # ",
"2 3 5 3 5 3 2 3 2 3 2 5 $ 2 2 2 2 2 2 2 2 2 + g 0., $ $ $ $ $ % $ $ $ $ & & $ $ # & & & # & & $ & # & $ $ & 5 5 0.=.+ 2 + $ $ 2 ",
"y.y.p.y.p.y.a.a.a.y.a.y.y.r.a.y.y.y.r.y.y.7.6.f.f @ $ $ $ $ $ $ # $ % $ $ # # $ $ $ $ $ & & & # # # # # # & $ $ d j.e.w.w.e.e.e.",
"-.-.;.;.=.;.;.;.:.:.:.O.;.O.;.O.-.-.O.-.O.+.@.*.+ 2 $ $ $ $ $ $ $ $ $ # $ # $ $ $ $ $ $ $ $ $ $ $ $ # # & & & $ $ f #.@.@.@.@.@.",
"@ O O O # O # O O O # # O $ @ @ + # O + + + O # 5 $ $ $ # + # @ O # + + + + O + O # + + # $ $ $ @ # # # & & # # $ $ + + # + # O ",
"# # & & # & & $ $ # $ & & & # & # # # $ # # & $ & $ s @.@.@.@.#.#.@.@.@.@.@.@.@.@.3.3.@.@.$.1 $ $ $ # & & & # # # & $ # $ & $ $ ",
"& # # # # # # & # # & & & $ & # # # # # # # # # $ , t.w.e.w.w.w.w.w.w.w.w.w.w.w.r.r.r.w.e.a.&.3 $ $ % # # & # # # & # $ # $ # $ ",
"# # # # # # # & # # # & # # % # # # % # # # # 5 + $.%.  3 + 2 2 2 2 2 2 2 2 2 2 2 + 2 2 2 > r.=.O 5 $ $ 2 # 4 4 4 4 4 # # # & & ",
"& & # # # # % & # # # # # # # # # $ # & # $ $ O d t.< $ 2 # $ 7 $ & & 5 $ # & $ 5 # 5 $ $ # s p.1 # > + #   2 +   2 + 4 # & & # ",
"& & # # # # # # # & # & $ $ $ $ $ $ $ & $ $ 5 > t.f + $ # # $ $ $ & & & & # $ # # & & # $ $ $ :.p.4.,.1.<.^ W ! ~ U U t 4 # # # ",
"& # & # $ % # # $ $ O # + + O # O + + # + + O @.%.+ $ # # # $ $ # $ # # & # # # # # $ # # # & 3 2.4.,.1.<.^ W ! ~ L ) ( 3 4 4 # ",
"& # # & # # & & + 1 ;.:.;.;.;.;.;.;.;.;.;.;.@.p.1 $ # # 4 4 4 4 4 4 4 4 4 4 4 4 4 4 4 # # # # + + # + +   + * * 3 * = ' E   4 4 ",
"& & & # & # & & + %.g.y.a.a.a.a.a.a.a.a.y.w.p.f + 4 $ # 2 * * = * * * * * * * * * = * 4 4 # + # $ 7 4 7 4 4 # 4 4 4 4 r | 0 * = ",
"# & & & # # 5 # =.6.> 4 3 3 > 2 > > 2 3 2 3 2 + # # 4 * y / / / / / _ / / / / _ _ / _ u + # # # # $ & # & & 4 # # # 4 4 G ../ / ",
"& & & & # # # 1 u.q $ 4 5 4 $ $ 5 $ 2 & $ 2 4 $ # # 4 : [ U J I I I I I I K I P K J ( ) : 4 # $ $ # & 4 & 4 # # 4 & # 4 8 P I I ",
"4 4 4 # 4 4 * 9.>.+ * 4 4 4 * 4 4 4 4 4 4 4 4 4 4 * * I K   * 2   + * 2   4 * *   2 * L K   = 4 4 4 4 4 4 4 4 4 4 4 & 4 4 + * * ",
"* = * * = * F 8.; = = = = = * * = = = = = = = = - * Y ` : 4 4 4 4 4 4 4 4 4 4 4 4 4 4 : | y * = = = = = = = - - = 4 # & # 4 4 # ",
"/ _ _ { { {  .| { { { { { { { { { _ { { { { { } { { X.Y + # 4 # # 4 # # # # # # # 4 4 # y X.' ) [ _ ` _ ` ` { } { e # 4 # # # 4 ",
"J J J J H P G H P P P P P P J J J J H J J P H J P P R * 4 # # # # # & # # # # # # # # 4 * R H H H H H H Q J Q J Q 8 # & 4 # 4 w ",
"+ + + 2 + 2 * * + + # + + +   + +   + +   2 4 + + + 2 4 # # # # # # # # # & 7 # # & # 4 4 # * # + + +   # 4 + + + # 4 & & 7 & # ",
"4 4 4 4 4 4 # 4 4 4 & e 4 4 4 4 4 4 4 4 4 4 4 4 4 4 4 # # # # # & & # # # & # # & # # # 4 # 4 4 4 4 4 4 4 4 4 4 4 # # & & & & 7 ",
"& # # # # & # 7 # # # # # # # # # # & & # & # # # # # # & & # & & $ & # & # & # # & & & # # & # 7 # # # 7 & 4 # # # # 7 w # & # ",
"# & & & # & # & # # # # & & & # & & & & & # & & # # # # # # # # # # # # & & & # & 7 # & # # & & & # & & & & & # # 4 & & 4 & 7 # ",
"# & & & 7 # & # # & & & & & & 7 # # & & & # # & # # & & & # & & # # # # & & # & & & # 7 & & # 4 # & & & # 7 & 7 4 # 7 & # 4 & & ",
"# # & # & & & # # & # & # # & # # # # & & & & & # # & & # & & # # # # # # & & # & # & & & & & & & # # & & & & & & # w & & & & & ",
"& & & & # & & & & & 7 & & & & & # # # # $ $ & & # & # & & & & # & # # # & & & & & 7 & # 4 & & & & & # & # & & 7 & & & & & & & & ",
"& & & & & & # & & & & & & & & & # # # # # # & & & 7 & # # 7 & # & # & # & # & 7 & & & & & & # & # & # & & # # & & & 7 & & & 7 & ",
"# & # & & & & & & & & & # & # # & & & & & & & & 7 & & & & & & & # & & & # & & & 7 & & & & & 7 # & & 7 & 7 & & & 7 & & & & & & & ",
"& & & & & & 7 & & & & & & & & & & # # 7 & & 4 & & # & & 7 # & & & # # & & & & & & # 7 & & & & & 7 & & & & & & & & & & & 7 & w 7 ",
"& & 4 & & & & & & & # & & # & & & & & & 7 & & & & # & # & & & 7 # # & # & & & & & & & # # & 7 & & & & & & & p & 7 & & 7 & # # 4 ",
"& & # w 7 & & # 7 & & & & & & # & & # # & & & # 7 & & & & & # & & & # & & & & $ 7 & & 4 & # & & & & 7 & & & e & w 7 & & & & # & ",
"& & & & & # & & & # # & 7 & # & & # & & & & & & & & & & & & & & # & & & & 7 & & & # & w 7 & & & & & & & & & & & & 7 & # & & w 4 ",
"& # & & & # & & 7 & & & & & & & & & & & & 7 & & # & & & & & & 7 & & & & & & & & & & 7 # & & & 7 7 & & & & # 7 & & # & & & 7 & & ",
"& & & & # & & # & & 7 & & # & # & & # & & & & & 4 & & & & # # & & # & # # $ $ & & 7 & & & # & & & & & & & & & & & & & & & # & & ",
"# # & # & & & & & & & & # # & & # # # & & 7 & & & & # & # # & # $ & & # # & # & & & # # & & & & & & 7 & # 7 # & & & & & & # & 7 "
};
