/* XPM */
static char *result[] = {
/* columns rows colors chars-per-pixel */
"64 64 30 1 ",
"  c #36322C",
". c #3B332B",
"X c #62371F",
"o c #65381F",
"O c #6C3A1E",
"+ c #743C1D",
"@ c #7F3F1B",
"# c #463427",
"$ c #4C3526",
"% c #433429",
"& c #493528",
"* c #533624",
"= c #593723",
"- c #5B3823",
"; c #613720",
": c #633920",
"> c #8F3D12",
", c #803F1B",
"< c #923E11",
"1 c #85411B",
"2 c #8A421A",
"3 c #B34B0D",
"4 c #B94D0C",
"5 c #D26F28",
"6 c #D67127",
"7 c #D87127",
"8 c #D57229",
"9 c #D97429",
"0 c #FAA756",
"q c #FBA856",
/* pixels */
"                                                                ",
"                                                                ",
"                               .                                ",
"                   .                                            ",
"    .   .       .   .  .    .      .      .        .   .  .     ",
"     ..   ..  . ...   ..  ..........    .. ....   .... .. .     ",
"............... .......................................... .....",
"...........%...............%..............%...............&.....",
".%.%.%%%%..%.%.%..%.%%.%%.%.%%%%&&.&..&.&...&.%...%....&&..&...&",
"%%%%%%%%&&&&&%%%&&&%&%%&%%&%%%%%&..&&&&.&&&&&&&&&&&&&&&&&&&&&&&&",
"%&&&&%&&&&&&&&&&&&&&&&&&&&&&&&&&&&&&&&&&&&&&&&&&&&&&&&&&&&&&&&&&",
"&&*&&&&&&&*&*&*&&**&&&&-*&***&**-&-&-&&-&-&&&-&--&-&&-&-&-&-&-&&",
"-***-**-*------*------*----*--*---------------------------------",
"-------:-----::-:----:--::::::::----+----+--+--:-:::+--::::-+-::",
"::OO:OO:++OOOO+++OOO++++++++++++@+++++++@++++++++@1++++11+1++11+",
"1@@1@@1111111111111111111111112222222222222222222222222222222222",
"4333333333333333333333333333333333334344343333335333444444444444",
"qq00000000qqqq00qq000000qqqqqqqqqqq0000000000000qqqq0000qqq0qqqq",
"9996677656666556555656586866668595585585557577578888885877777797",
"2223<<<2>>>2>>>,>>2>>>>2>>><>>>><<><<<><<<>><><<><21>>>><<<<<<<<",
"++++++++++++++++++++++++++++++++++++++++++++++++++++++++++++++++",
"XXXXXXXX;;:;::XXoXooXXXooo:::::;::::XXX:::::XXoo:::::::::;;;:;;-",
"*=**===*==*=*===*===============----======--====--=-*======**=**",
"$$$$$$$$$$$$$$*$$$$$$$$$$$$$*$$*$$$$$*$$$*$$$$$$&$$$$$$$$$$$$$$$",
"##################$#&&&&###$&&&&&&$$%$#######$###############%##",
".##.%%%#%%%.%#%%%%%%%%%%.%%%%%%%%%%%%%%%%%%%%%%#%%%%%%#%%%%%%%%%",
"%...%......#%....%..%%.%.%.%%.%%%.%.%%%.%%%.%.%..%%%..%...%%%...",
"...........................................%....................",
"... . . .....  ........  ... ... . ..    .. ...... . ... ...... ",
" . .   ...  .    .    . .. ..  .. .. .. .. .     .. .      . .  ",
"          .    .   .          .                ..     .         ",
"                 .   .             .  .     .       .    .     .",
"  .     .   .      . .   ..  .  . .  .    .  . .  .  ..... .   .",
". .   % . ..... ........... ................... ..... . ........",
"....%.% .% .%..%%...%...%..%%.%.%.%.............%.%.%...........",
"%%%.%% %%.%%.%%%%%%.%%%%%%.%%%%%%.%%%%%%%%%%%%%%%.%%.%%%.%%%#%.%",
"%%%%&&%%%%%%&%%&%%%%&%&%%%%%&&%&%%##%%%#&%&%%&%%%%%%%#%%#######%",
"%%&&&&&&%&&&&&&&&&&&&&&&%&$&&$&&$$$$#$$#&$&&&$$&#####$$$#$#$####",
"&&&&$$$$$&&$&$$$*$$$*&&*****$$$$$*$$*$***$***$*$*$***$$$$*$$**$$",
"$***$*-*-**-*--**=*==*-***=*=--=====*==**-**===*==*=====*===*===",
"=;;;-;;--:--:::-::::-:::;;;:::;:;;;;:::::::::::::;::;;::XX:::;:;",
":::::OO:O:O+OO+:OOOO+O+O++OOO++O++O++O++O++O++O+++++++++++++++++",
",1,,,,11,,1,11,,111,1,11111121212,2211112111221111,>1,11>,>222>1",
"3333333333333333333333333333333333333333333333333333343333333333",
"q0000000000000000000000q000000000000000000000q000000000000000000",
"9999889999999988999888887788575585989999999989899998979999999999",
"<<<<<<<<<<<>>><>2><><<22<<<<<<>>><<<>>><>>>>2<<<><<><<<<<<<<<<<<",
"+@@+@+++++++++++++++++++++++++++++++++++++++++++++++++++++++,+++",
"::::XXXXooXXXXo:XXXXXXXXXXXXXXXXXXXXXXXXXXXXXXXX::::XXXXXXXXXXXX",
"=====*=========;==X==;=;;==;==;;X*XX===XX===X=X================*",
"$$$$***$*****$$*****$***$*$****$$$*****$****$**$*$$$*$$$$**$*$$$",
"$$$$#$######$$#$$#######$$###$#####$##$###$$##$#$#$$$$##########",
"%&%%%%%#%%%%%%%%##%#%#####%%%#%%#########%#%####%%#%#%##########",
".%%%%%%%%%%%%%%%.%%..%.%%%%%%%%%#.#.%#..%%%..#..%%%.%..%...#....",
"..... ...........%.....................%....... ...%............",
"......................  .................... ..  ..  ...........",
"        ..                      .. .  .                 . . . . ",
"            .  .                    .                           ",
"               .                                                ",
"                                                                ",
"                                                                ",
"                                                                ",
"                                                                ",
"                                                                "
};
