/* XPM */
static char *result[] = {
/* columns rows colors chars-per-pixel */
"64 64 94 2 ",
"   c #3D2D2B",
".  c #3D312F",
"X  c #363534",
"o  c #3C3534",
"O  c #363932",
"+  c #3D3836",
"@  c #363C3C",
"#  c #3C3B38",
"$  c #54262E",
"%  c #47382F",
"&  c #48382F",
"*  c #543B2D",
"=  c #593D2D",
"-  c #4D2F36",
";  c #542E39",
":  c #5B2B3B",
">  c #433534",
",  c #4B3136",
"<  c #423834",
"1  c #483830",
"2  c #4F3038",
"3  c #633F2A",
"4  c #6A273E",
"5  c #65293D",
"6  c #68283E",
"7  c #6C4128",
"8  c #764426",
"9  c #7F4624",
"0  c #7D4823",
"q  c #353F40",
"w  c #5D394E",
"e  c #6E2640",
"r  c #742441",
"t  c #792341",
"y  c #2F4D4F",
"u  c #344343",
"i  c #364749",
"p  c #314B4C",
"a  c #2E4E51",
"s  c #2D5256",
"d  c #2B565A",
"f  c #2B5B5F",
"g  c #305458",
"h  c #285E62",
"j  c #1F737B",
"k  c #246B70",
"l  c #21757C",
"z  c #B5551C",
"x  c #BB571B",
"c  c #814624",
"v  c #8C4A23",
"b  c #944C21",
"n  c #9A4E20",
"m  c #CF5D17",
"M  c #C35919",
"N  c #C85A18",
"B  c #D25D16",
"V  c #D96115",
"C  c #E26314",
"Z  c #851F45",
"A  c #8D1D47",
"S  c #9E174B",
"D  c #941B49",
"F  c #9C184B",
"G  c #B40F4E",
"H  c #A3174C",
"J  c #AB144E",
"K  c #BD0F53",
"L  c #B61151",
"P  c #B81052",
"I  c #822044",
"U  c #C20D54",
"Y  c #C80C57",
"T  c #1B7D85",
"R  c #1B7F88",
"E  c #1A828B",
"W  c #198791",
"Q  c #168D96",
"!  c #198992",
"~  c #168F99",
"^  c #15919C",
"/  c #0F9EAA",
"(  c #1497A1",
")  c #119BA6",
"_  c #109EA9",
"`  c #0EA1AC",
"'  c #0DA5B2",
"]  c #0CAAB7",
"[  c #0AACBA",
"{  c #0AB1BF",
"}  c #07B4C3",
"|  c #09B2C0",
" . c #07B8C6",
".. c #06BBCA",
/* pixels */
"+ + + + + + # + + + + + + + + + + + + + + + + + + + + # + + + > # + # > # + + + + # + + + + # + > + + + # + + + + + o o # + # + ",
"+ + + + + + + + + + # + + + + + + + + + + + + + + + + + + + o # + # + # + # + + + + > # + + + + # + + # + + + + o o + + > # > + ",
"+ + + + + + + + + + + + # o + + + + # + + + + + o + + + # # # o > + + # + + + + + + + + + + + + + + + + + + + + # + + + # + # + ",
"+ + + # + + + + + + + + o # o + + + + + + + + + o + + + > # o o # + + > + + + + + + + + + + + + + + + + + + + + > # + + + + + + ",
"+ + + + + + < + # + + + # # + + + + + + + + + + o # + + + + + o + + + + + + + + # > + + + + > X + + + + + + + + # + # > + + + # ",
"+ # + + + # + # + + + # > # + + + + # + + + + + o # + + + + + + + + # + + + > + + + # + + + # + + + + + # o + + + + + # > + # > ",
"< + + + + # + + + + + + + + > # + + + + + # + + # o # + + + + + + # + + + # # # + + # + + + + + + + + + + + + + < + + + + + # > ",
"+ # + + < + + + + + + + + + + + + + + + + + + + > # # + + + + + + + + + + + + + + + + + + + + + + + + # + + + + # + + < # + # # ",
"+ # > + + # + + # > + # + + # + + + # + # + + + + + + + + + + + + # + + + + + + + + + # + # o + + + + + + + + + + + + + + + + > ",
"+ + + # + + + + # + + + + + + + + + + + + + + + + + + + + # + + + > + # + + + + + + + + + + + + + # + + + + + + + + + + + + # # ",
"# + + + + + + + + + + + + + + + # + + + + + + + + + + + + + + + + + + + + + + + + + + + + + + + + + + + + + + + + + + + + # + + ",
"+ + + + + # + + # + + + + # # o + + + + # < + + + + + + + + + + + + + + + + + + # + + + + + + + + + + + + + + + + + + + + < + + ",
"# # # # @ # + # + @ + @ # # # # + + + # # + + + + + + + # + + + + + + + + + + + + + > + + # + + + + + + + # + + + + + + + # + + ",
"o o . o X . o o o . o . . . . + # o + + + + + # + + + + + + + + + # # + + + + + > + + X + + + + + + + + + + + + + + + + + + + + ",
"T T T T T T T T T T T T T T R h o # + + + + # o + + + + + + + + + + + + + + + + + + + + + + + + + + # + + + + + + + + + + + + + ",
"[ [ [ [ [ [ [ [ [ [ [ [ | [ | ..a + # # + o o # + + o # + + + + # + + + + + + + + + + + + + + + + + + # o # # + + + # # # # + # ",
"@ @ @ o @ @ @ @ @ @ @ @ @ @ . R ' X @ # # @ + # + # # # + # @ + + # # + # + + + + + + + > + + + + # + q q @ @ q @ @ q q q q q q ",
"# o # # o # + + # # o # o # # O ] T   X o o . o o o o . o o . o o . o o o o # + + + + # # + + + @ . T ..| | } } } } } } } } } } ",
"o # # + + # + + + + + + # + # + s ../ / ) / ) ) ) ) ) ) ) ) ) ) ) ) ) ) ) ^ u # # + + + + + + # . d  .T l l j j j j j j j j j j ",
"+ o + + + o + + + + # + + + o # o k ( ~ ~ ^ ^ ^ ~ ^ ~ ^ ~ ~ ~ ^ ~ ~ ^ ^ Q [ ^ o # o + + + + + # @ ] j   X . o + . o . o . X . . ",
"+ + + + + + + # # # # # # # # # @ @ . o X X + . o   . . . .   o o . o   . o | k o @ # # # # @   R ' o @ + + # + # # + + # + + # ",
"+ + + + + + o o . X . X o . o o . . o o . . # # # # # # # # # # o # # # # o h  .q   o o . o   d ..a o + + + + + + + + + X + + + ",
"+ + + + + + @ E ~ ~ ~ Q Q Q Q Q Q Q Q Q Q ! p > + + + + + + + + o + + + + + > ! | ! Q Q ~ ~ !  .T   # + + + + + + + + + + + + + ",
"+ + + + + o p  .' ` / ` / / ` ` / _ / / / [ ' # + + + + + + + + # + + + o + o q ^ ` _ / _ _ ` W + + + + + + + + + + + + + + + + ",
"+ + + + + o p _ @ O O O o X X X # . o o o . / R   + + < + + + + + + + + + + + + o o o o o o . o # + + + + + + + + + + + + + + + ",
"+ + + + + o p ` @ # + # # # # # # # # # # o y  .d o o o o + o o + o + + + O + + + # + O O # # # o o o o + + + + + + + + + + o + ",
"+ + + + + > p ` q + + + o + + + + o o # + +   l ( $ ; ; ; ; ; ; ; ; ; : ; ; ; ; ; ; ; ; ; ; ; ; ; ; ; ; ; > + + # + o + + o + + ",
"+ + + + + o y _ q + + + + + + + + # o o + + + @ w U K K K K K K K K U P K K K K K K K K K K K K K K K K Y Z O + o + + + + + + + ",
"+ + + + + + p ` @ < # + + + + + + + + + + + @ > L r 2 ; ; ; ; ; ; ; ; ; ; ; 2 ; ; ; ; ; ; 2 ; ; ; ; 2 ; ; L 5 o + + # + o + + + ",
"+ + + < + > i ^ @ > + + + + > < + o + > o < O D D O + + O o + + + O + + + + + o + o O + o + + + + + + + X e J < > + < + + < + + ",
"O O X O X O O @ o O O o X O O O O O o O o O 5 G > + + o + + + o + o + + + + o + + + + + + + + + + + # + + O F A X O O O O X o O ",
"F F F F F F F F F F F F F F F F F F F F S S K 5 O + + + + + + + + + + + + + + + + + + + + + + + + + + o # + , L H S S F S S S S ",
"A A A A A A A A A A A D A A A A A A A A A D r + o + < O + + + + + + + + + + + + + + + + + + + + + + + + + + X e A Z A A A A A A ",
"O O O O O X O X O O O O O O O O O O X X O O O o < o > > > > > > > > > > > > > > > > > > > o + + + + o + + > > + X O O O O O O o ",
"# + + < + < + + + + + + + > o < < + > + + + + + + > F K K L L P L K G K L K P P L L L L U A O + o + + o + + + + # # < + > + # + ",
"+ + + + + + + + o + + + + + + + + + + + + + + < X Z J 6 4 4 4 4 4 4 4 4 4 4 4 4 4 4 4 4 4 G 4 O > + + + + # > + + > O o # > + + ",
"+ + # + + + + + + + + + + + + + + + + + + + + + ; K - X O o o + O o o O X o O O o O o + O 5 L > o + o o + > + + + o e : # + + + ",
"< + + + + + + + + + + + + + + + + + + + + + + o J r O + + > + + + + + < + < > + + < + + < O A D o > > > > , > > o Z U K : o + + ",
"+ + + + + + + + + o + + O < + + > # < + o < X Z H O < + + + < + + + + + + + + # + + + + + + < J U L K L P G L P K K - r D O > + ",
"+ + + + + + + # o + o ; : o O X O O o o O X ; L 2 + + + + + + + + + + + < + + + + + < + + + + 2 4 6 6 6 e e e : r F O : F + + + ",
"< + + + + + + < + o ; K U r 5 6 e 5 6 6 6 5 J r X < + + o < < + < < + + < + + < + < < + + + + + O + O + + O o O o J r D Z O # + ",
"+ + + + + + + + + + F t 5 Y L K L L L K L K D o < + + > < * = = * * * * * * * * * * 1 < < + + o + + + < + + < < O 5 U J - o + + ",
"+ + + + + + + + + + F - > F - > > > , > > > o o + + < o 0 C B B V V B V B V V B B C v o < + o o + + + + + + + + + + , > + + + + ",
"+ + + + + + + + < O F r 4 H O < + + + + > + + < + + + * m 0 3 8 7 7 7 8 7 8 7 7 7 8 B 3 o + < o + + + < + + + o + + + + < + + < ",
"+ + # > < + + < 1 + : U U 5 o < + # > + > + + + < < o z n O o + + o o o + O o o + X v M > > > o < o + + < + < + < o < < + + + + ",
"o o + X o o o o O o O ; ; X + o o o o o # o o o + X c N < < o < + + > + + + < < < < + x b . < < > % % < > % % o < < > > < + # > ",
"9 9 c c 0 c 0 9 9 9 c 9 9 c c c 0 c 9 9 9 9 9 9 c c B 7 o + o + + + + + + o < + + < + = B M M M M M M M M M M M M M M M = o + # ",
"m m m m m m m m m B B B B B B m m m m m m m m m m B b O < o + o + + + o + + + + + + + + 7 n b b b b b b b b b b b b b b 1 + + < ",
"1 1 1 1 % 1 1 1 1 1 1 1 1 1 1 1 % % % % 1 1 1 1 1 1 o + + + o + o + o + + + + + + + + < + O o X O O o O @ o X o X o o # + + + + ",
"+ + + o + + o + + + + < + < + + + + + + + + < + + + < + + o + + + + + + o + + + + > + o + + + < + < + + > > + + + + + < + + + + ",
"+ + + + + + + + + o + + + + + + < + o + + + + + o + + + + + + + < + o + + + + + + + + + + + + < + < + + + + + < + + + + + < + + ",
"+ + + + < + + + + < + + + + + + + + + + + + + + + + + + + o + + + + + + o + + + + + + + + + + + + + + + + + + + + + < + + + + + ",
"+ + + + + + + + + + + + + + + + + + + o + + + < + o + + + + + + + + + + + + + + + > + # + > # + + + o + + + o + + # + + + + + + ",
"+ + + + + + + + + + + + + + + + + + + + + + + + + + + + o + + + + + + o + + + + + + + + + + + # + + + + + + + + + > + + + + + + ",
"< + + + + + + + + + + + o + + + + + + + + + + + + + + + + + < + + + + o + + + # + + + + + + + + + + + + + + < + + + < + # + + + ",
"+ + + + + + + + + + + < + + + + o + + + + + + + + < + + + + + + o + + o + + + > + + + + + + + + + + + + + + + + + + + + + # > + ",
"+ # + + + + + # + + + + > + + + + + + + + + + + + + + + + + + + + + o + + + o + + + + o + + + > + + + + + + + + + + + + + + + + ",
"+ > + # + + + + + + + + + + + + + + + + + + + + + + + + + + + + + + + + + + + < + < + + + + + + + + + + > + + + + + + + + + + + ",
"+ + + + X > + + + + + + + + + + + + + + + > + o + + + + < + + + + + + + + + + + + + + + + + + o + + + + # + + + + > # + # + < # ",
"# + + + + + + + + + + + + + + + o + + + + + + + + + + + + + + + + + o + + + + + + + + + + + + < + > + + + + + + + + + + + < + + ",
"+ + + + + # + + # + + + + + + + + + + + + + + + < + + + + + + < + + + + o + + < + + + + + + + + + + + + + < + + + + + + + + + + ",
"+ + + + + + > + > + + + + + + + + + + + < + + + + + + + + + + + + + + + + + + + o + + + + + o + + + + + + + + + < + + + + + # > ",
"+ + + + + + + + + # + + + + + + + + + + + + + + + + + + o + + + o + + + + + + + + + + + + + + + + + + + + + + + + + + + + + + + ",
"+ + + + + + + + + + + + + + + + + + + + + + + + + + + + + + + + + + + + o + + + + + o + + + + + + + + + + + + + + + + + + + + + "
};
