/* XPM */
static char *result[] = {
/* columns rows colors chars-per-pixel */
"64 64 30 1 ",
"  c #474C3C",
". c #484D3D",
"X c #47513D",
"o c #49523F",
"O c #4A5640",
"+ c #4B5B42",
"@ c #4D6344",
"# c #4E6845",
"$ c #506746",
"% c #506947",
"& c #526E49",
"* c #4F7C46",
"= c #507E47",
"- c #53734A",
"; c #527E49",
": c #587E4F",
"> c #587F50",
", c #52834A",
"< c #52884A",
"1 c #598050",
"2 c #5A9553",
"3 c #81B77E",
"4 c #82B87F",
"5 c #86BF86",
"6 c #87C087",
"7 c #88C187",
"8 c #9DD7A1",
"9 c #9ED8A2",
"0 c #BDE6BF",
"q c #BDE6C0",
/* pixels */
"Ooo@O++++++++++++++++++++++++++++++++++++++++++++++++++++++++X++",
"+@+@@+@++++@+++++@@+++@++@@++@@+@+@@+@+@@@@+@@@@@+@@@@++@+@+@@@+",
"#########################@######################################",
"&&-&--&&*-----**----*----*&*----*-*----*--;-*----&**-*--*&--*#**",
",,<,,,<<,<<<<<<<<<<,<,<<<<,,<<<<<<<<<<<<<<<<<<<<<<<<<<<<<<<<<<<<",
"8899888888898888999999998888999989998888999999998899889989998888",
"4464466655665555565555665666655555666656666666666666666655666666",
",*,*,***=*=**,*****========,=,=,;;**,*;*====;;;;;;**;*;*;*;*;**;",
"&&&&&-&&-&-&&---&&&&--&--&----------&&&----&&&&-&*----*#-----#--",
"@@#@#@#@################%%%%@%%%##################@##@@#########",
"++@++@+@++@+@@++@+@+++@+++@+++++@++@@@@@@+@@@@+@+@@+@+@@++++++++",
"+++X++++++++++++++++++++++++++OO++++@X+++++++++++++++++@++++++++",
"OOOO++X+++X+O++X++X+++OOOOOOOOOOX++++XX+++++X++XX++X+XXXX+X+++X+",
"OXXXXXXXXXOOXX+XXO+XXXXOOOOOOOOOXXX++X+XXX+X+X+XX++X+XX+XX++XXXX",
"XXXXXXXXXXXXOXXXXXXXXXXXOXOX....XXXXXX+XXX+XXXXX+XXXXX+XXXXXXXXX",
"XXXXXXXXXXXXXXXXXXXXXX XXXXX....+XXXXXXXXXXXXXXXXXXXXXXXXXXXXXXX",
"XX   X X                      ..... ..  .. .    XXXX XX XX X X X",
"XX                           .  ..   .  .  ..   XXXX      XXX XX",
"                      O         .       .. .                    ",
"     XX                          .                              ",
"                                                                ",
"                                 .                              ",
"                                                                ",
"              ..                                                ",
"               .    .    ...                                    ",
"                      .   ..             ... .                  ",
"                      .    ..            .                      ",
"                            .                                   ",
"                      .       ..             .                  ",
"                      ..  .  . .   .    ..  .                   ",
"                         .......  .   .  . . . .                ",
"                     . .   .. . . . .. .... ..                  ",
"................................. . ... ........................",
".................................. ..   ........................",
".................................  .... ........................",
"................................. ... ..........................",
"..................................... ..........................",
"....................................... .....O..................",
"............O...............O...................................",
"................................................................",
".....O......O............O......................O...............",
"........O...........O..O....O..O.......O...O....................",
".......................O.........................O...O..........",
"....O..O.O.OO.O......O...OO.........O..OO.O.O..O..O...O.........",
".O...O..O.O.O..OO..OO.O..O.OOO......O....O.O....O.O...O...O.....",
"O.O.O..O.OO...OOO.O..O.O.OO...Oo..O.OOO.O.O..OO..O.OO..OOO......",
".O.OO.OOO.O.OO..OO.OO.OOO.O.OOOO..O..OOOOOO.OO.O.OO..O.OO..OO...",
"OOOOOOOOOOOOO.OOOOOOOOOOOOOOOOOo..OOOOOOOOOOOOOOOOOOOOOOOOOOOO..",
"OO$.OOOOOOOOOOO$OOOOOOO+OOOO++ooOOO+OOOOOOOOOO+OOOOOOOOOOOOOOOOO",
"OO$O+O++O+OOOOOO++++++O+O+++o@@++++++++++++++O++OOO$+OOO+++O+OO+",
"$.OOO++O$O$$O$$O++++@+++$+$O$o$o++++++++@+++++++$OO$++++@O@O+O@+",
"O$$$$+$$$+$O$O$$@@$$@@@$$+$$o@$$$$+$$$@$@$@@@$@$$$O$@@@@$@@@$@@@",
"$$$$$$$$$$$$$$$$%%%&&%%%$$$$$$%%$$%%%%%&$$%%%%%&$$%%%%$%%%%%$%%%",
"&:-$--&&----:--:-------------:-----:-------:----%>&&---&--------",
"1$:$1-::::-:::::;,;:,,:;>-::::;,::::,:;;::::,;;,>+-&>->-,,-=-&>>",
"7555744444444444444335355544443434444443333544448555555535535555",
"0000000000000000qqqqqqqqqqqqqqqq00qqqqqqqqqqqq0qq00q00qq00000000",
"2222222222222222222222222222222222222222222222222222222222222222",
"--:--:::::::::::::>>>:>:11>>>>::::::::11>>>>1>>>>:::::>>::>>::-:",
"$&&&&&&&&&&&&&&&&---------------&&-------&&&--&----&&&-&&&&&&&&&",
"$$$$$$$$$$$$$$$$$$$$$$$$$$$$$$$$$$$$$$$$%%$$%%%#$%$#%%%%%%$$$$$@",
"o$@o@@O++$+$$+$+@+@++@@@$@+@@$@+@+@@@@+@@@+$@@+@@++@@@+@+++$+$++",
"o@oo++O$O+++++O+++++++++@+++++@++++@+@++++++++@+++++++++++++++++",
"ooo@OOOOOOOO+OOO+O++O+OOOO+OO+OO+O+OOO+O+O++O+OO+O++O++O++O+O+OO"
};
