/* XPM */
static char *result[] = {
/* columns rows colors chars-per-pixel */
"64 64 42 1 ",
"  c #2F3F26",
". c #303E27",
"X c #35352B",
"o c #323B29",
"O c #274E1F",
"+ c #284E1F",
"@ c #25551D",
"# c #28521F",
"$ c #23591A",
"% c #156F09",
"& c #0F7704",
"* c #0E7A03",
"= c #117506",
"- c #107804",
"; c #147208",
": c #1F6516",
"> c #1E6915",
", c #1D7513",
"< c #1B7811",
"1 c #206417",
"2 c #216F17",
"3 c #216118",
"4 c #236B18",
"5 c #207115",
"6 c #2D4425",
"7 c #274D20",
"8 c #2A4B21",
"9 c #304027",
"0 c #304028",
"q c #295120",
"w c #1B8E0A",
"e c #179605",
"r c #189306",
"t c #169A03",
"y c #1A9108",
"u c #39B62C",
"i c #36BC2A",
"p c #38B92B",
"a c #7DEF74",
"s c #7EF175",
"d c #80F177",
"f c #80F078",
/* pixels */
"XXXXXXXXXXXXXXXXXXXXXXXXXXXXXXXXXXXXXXXXXXXoXXXXXXXXXXXooXXXXXXX",
"XXXXXXXXXXXXXXXXXXXXXXXXXXXXXXXXXXXXXXXXXXXXXXXXXXXXXXXXXXXXXXXX",
"XXXXXXXXXXXXXXXXXXXXXXXXXXXXXXXXXXXXXXXXXXXXXXXXXXXXXXXXXXXXXXXX",
"XXXXXXoXXXXXXXXXXXXXXXXXXXXXXX0XXXXXXXXXXXXXXXXXXXXXXXXXXXXXXXXX",
"XXXXXXXXXXXXXXXXXXXXXXXXXXXXX0XXXXXXXXXXX0oXXooXXXXX0XXXXXXXXXXX",
"XXXXXXXXXXXXXXXXXX0XoXoXXXXXXXXX0XXXXXXXXXXXXXXXXXXXXXXXXXX0XXXX",
"XXXXoXXX0XXXXXXo0XXXXoooXXXXX0XXXXX0XX0XXXXXoooXXXXXX0XX0XXXXXX0",
"XXooooooXX0X0X0XXX0XXoooX00X0XX0X0XX00X00X0Xoooo000X0XX00XX0X0XX",
"oooooooo0000oo0o0ooo0o0oooo0o0oo00oX00o0oo0o0o0oooo0oooo0X0ooooo",
"ooo0.o090000000000000000000000000000000000000000900090990000000o",
"0000999900006600066600006000066600000666600660666606669900000000",
"9966696906868666668868686886686888886866868886868686868666866690",
"66888888888+qqq87qqqqq8qqqqq7qqq8qqqqqqqqqqq7qqqqqq8#+77q888q886",
"qqqq#@##@@@@####qqqqqqqqqqqqqqq$qqqq$q$qqq@$@@@@@$$@@@@@@@@@q$##",
"$$33$31131111444:$::>:::::>>::::2411>4::>4:::::::141::4111413443",
"44442255555,,555,,,,,,,,,,,<,,,,<,,,,,,,<<,,<,,<<<,,,,,5<5555544",
"wwwyyyyrrrrrrreereeeeeeeeeettettttetttttetteeteetteeeeeeeerrrrrw",
"dfadaaaaaaaaaaaaaaaaaaaaaaaaaaaaaaaaaaaaaasaaasassasaaaaaaaaaaaa",
"uuupppppppiiiiiiiiiiiiiiiiiiiiiiiiiiiiiiiiiiiiiiiiiiiiiiiipppuuu",
"%%%;====&&&&&&&&**&&******&****&****&*****************&&****&&&%",
"33$3::::::::>>>>>::%>>>>>>>>>>>>>>>>:::>:>>>>>>>::::>>::>>:::::3",
"@@@O@@@$@@$$$$$$$$$$$$$$$$$$$$$$$$$$$$$$$$$$$$$$$$$$$$$$$$$$$#@@",
"OOOO++OOOOOOOO##OOOOOOO@7777@O77OOO7OOOOOO@OOOOO#OOO@OOO77OO77O7",
"6 +  + ++66+ +68676677677767676866766O66O68O68888888O6O888686866",
"     6 6 6 69966  6 06000660060066 06 069999666966696990  6.66 .",
" oooo ooo. oo00o  . o0000...00..   oo o o099o......o...0oo..oo.o",
"ooooooXXooooooooooooooooooooooooXoo ooooooooooooooo.X.oooooooooo",
"XXooXoXXooXXXooXoXoXoXoooXoXXoXooXoXXoXXoXoXoXoooXooXXXooXoXXoXX",
"XXXXXXXXXXXXXXXoXXXoXXXXXoXoXXXXooXXXXXXXoXooXXXXXoXoXXoXXXXXXXo",
"XXXXXXXXXXXXXXXXoXXXXXXXXXXXXXXXXXXXXoXoXXXXXXXXXXXXXXXXXXXXXXXX",
"XXXXXXXXXXXXXXXXXXXXXXXXXXXXXXXXXXXXXXXXXXXXXXXXXXXXXXXXXXXXXXXX",
"XXXXXXXXXXXXXXXXXXXXXXXXXXXXXXXXXXXXXXXXXXXXXXXXXXXXXXXXXXXXXXXX",
"XXXXXXXXXXXXXXXXXXXXXXXXXXXXXXXXXXXXXXXXoXXXXXXXXXXXXXXXXXXXXXXX",
"XXXXXXXXXXXXXXXXXXXXXXXXXXXXXXXXXXXXXXXXXXXXXXXXXXXXXXXoXXXXXXXX",
"XXXXXXXoXXXXoXXXXXXoXoXXXXoXXXXoooXXXooXXXooooXooXooXXoXXXXoXXXX",
"XoXXooXoooooooooooo.X.ooooooooooXooooooooooooooooooooooooooo.ooX",
"oXooX.oo0oo00oooo9..9...o0o0....ooooo o   oo ..  ooo ooo..oo.ooo",
"99999.9900999069999999996060000069666 006006060 66 6666 999..9.9",
"999698668686668886868968666686886886688686676776868868686+686969",
"688+88+88q8q777q++++777qq7qqq8qq777777q77qq7777777++#OO++++8++88",
"#@@@@@@@q$q@$q@@@$$$@$$$q$$q$qqq@$@$$$$$$$$$$$$$@$$$$$$$@@@@@@@+",
"$$341111:4>>>>:411141111::>:>>>>41:1>>::::::>>::>:>>>:>>1111113$",
"4255,<<<,<,,<<<<<<<<<<<<,<,w<<<<<<<<<<<<,w<<w<<<<<<<<;<<<<<55552",
"yyrrreeettttttttttttttttttttttttttttttttttttttttttttttttteeeeeyy",
"ffsdddddssssssssssssdssssssssaaasdssssssssssssssssssaaasdsdsddsd",
"upipipiiiiiiiiiiiiiiiiiiiiiiiiiiiiiiiiiiiiiiiiiiiiiiiiiiiiiiiiip",
";=----****************w*******&&w***w**&****w&****w**w******---=",
"3111:>:>>>>>>>>>>%>>>>>>>>>>>%:%>>>>%:%:>>>>%>>>>>>>>>>>>>>>>111",
"@@@@@@@@$$O@$$$$$$$$$$$$$$$$$$$$$$$$$$$$$$$$$$$$$$$$$$$$$$$$$$O$",
"688+OOOOOOOOOOOOOOOOOOOOOOOOOOOOOOOOOO77OOO7OOO7OOOOOOOOOOOOO777",
"66666668 + OO6 O766676766776767 77767 6O777O7666 O7O766 7676 7  ",
"o.. o            6                66      6   XX    6           ",
"ooooo.o. oo o o o o XXXX  o  o    o  o     oXXXX   o o  o X   X ",
"XoXooXooX XoXoXo XoXXXXXooooooo oooX XXoooooXXXXooooooo Xoo oooX",
"XXoooXoXXXXooooXXXXXXXXXooooXooXX XoX XoX XXXXXXooXoXXoXoXoXX XX",
"XXXXXXXXXXXXXXXXXXXXXXXXXXXXXXXXXXXXoXXXXXXXXXXXXXXXoXXXXXXXXXXX",
"XXXXXXXXoXXXXXXXXXXXXXXXXXXXXXXXXXXXXXXXXXXXXXXXXXXXXXXXXXXXXXXX",
"XXXXXXXXXXXXXXXXXXXXXXXXXXXXXXXXXXXXXXXXXXXXXXXXXXXXXXXXXXXXXXXX",
"XXXXXXXXXXXXXXXXXXXXXXXXXXXXXXXXXXXXXXXXXXXXXXXXXXXXXXXXXXXXXXXX",
"XXXXXXXXXXXXXXXXXXXXXXXXXXXXXXXXXXXXXXXXXXXXXXXXXXXXXXXXXXXXXXXX",
"XXXXXXXXXXXXXXXXXXXXXXXXXXXXXXXXXXXXXXXXXXXXXXXXXXXXXXXXXXXXXXXX",
"XXXXXXXXXXXXXXXXXXXXXXXXXXXXXXXXXXXXXXXXXXXXXXXXXXXXXXXXXXXXXXXX",
"XXXXXXXXXXXXXXXXXXXXXXXXXXXXXXXXXXXXXXXXXXXXXXXXXXXXXXXXXXXXXXXX",
"XXXXXXXXXXXXXXXXXXXXXXXXXXXXXXXXXXXXXXXXXXXXXXXXXXXXXXXXXXXXXXXX"
};
